<svg width="258" height="74" viewBox="0 0 258 74" fill="none" xmlns="http://www.w3.org/2000/svg">
<rect width="258" height="74" rx="20" fill="black"/>
<path d="M57.1556 36.5872C57.0994 30.345 62.2667 27.3081 62.503 27.1668C59.5765 22.9001 55.0406 22.3171 53.4467 22.2706C49.637 21.8697 45.9417 24.5502 44.001 24.5502C42.0217 24.5502 39.0332 22.3093 35.8124 22.3752C31.6677 22.4391 27.7903 24.8388 25.6637 28.5651C21.275 36.163 24.5482 47.3285 28.7529 53.47C30.8562 56.4778 33.314 59.8361 36.5309 59.718C39.6782 59.5882 40.8538 57.7115 44.6518 57.7115C48.4149 57.7115 49.5189 59.718 52.7998 59.6425C56.1775 59.5882 58.3041 56.6211 60.3338 53.5862C62.7644 50.1388 63.7406 46.7436 63.7793 46.5693C63.6999 46.5422 57.2195 44.0689 57.1556 36.5872Z" fill="white"/>
<path d="M50.9582 18.2305C52.6509 16.1136 53.8091 13.2336 53.4876 10.311C51.0376 10.4195 47.9736 12.0057 46.2092 14.0761C44.6482 15.9005 43.2537 18.8909 43.614 21.7031C46.3661 21.9084 49.1918 20.3144 50.9582 18.2305Z" fill="white"/>
<path d="M102.703 57.2862H98.3045L95.8952 49.7154H87.5206L85.2255 57.2862H80.9434L89.2405 31.5117H94.3652L102.703 57.2862ZM95.1689 46.5391L92.9901 39.8088C92.7596 39.1213 92.3277 37.5021 91.6905 34.9534H91.613C91.3593 36.0496 90.9506 37.6687 90.389 39.8088L88.2488 46.5391H95.1689Z" fill="white"/>
<path d="M124.04 47.7652C124.04 50.926 123.186 53.4244 121.477 55.2585C119.947 56.8912 118.047 57.7066 115.779 57.7066C113.331 57.7066 111.573 56.8273 110.502 55.0687H110.424V64.8591H106.295V44.8194C106.295 42.8322 106.243 40.7928 106.142 38.7011H109.774L110.004 41.6469H110.081C111.459 39.4274 113.548 38.3196 116.353 38.3196C118.545 38.3196 120.375 39.1853 121.84 40.9187C123.308 42.6541 124.04 44.9356 124.04 47.7652ZM119.833 47.9163C119.833 46.1073 119.426 44.616 118.609 43.4423C117.716 42.2183 116.517 41.6063 115.014 41.6063C113.996 41.6063 113.07 41.9471 112.243 42.6192C111.414 43.2971 110.872 44.1822 110.618 45.2784C110.49 45.7897 110.426 46.208 110.426 46.5373V49.6361C110.426 50.988 110.841 52.1287 111.67 53.0603C112.499 53.9919 113.575 54.4567 114.9 54.4567C116.455 54.4567 117.666 53.8563 118.532 52.6594C119.399 51.4605 119.833 49.8801 119.833 47.9163Z" fill="white"/>
<path d="M145.416 47.7652C145.416 50.926 144.562 53.4244 142.851 55.2585C141.323 56.8912 139.423 57.7066 137.155 57.7066C134.707 57.7066 132.949 56.8273 131.88 55.0687H131.802V64.8591H127.673V44.8194C127.673 42.8322 127.621 40.7928 127.52 38.7011H131.151L131.382 41.6469H131.459C132.835 39.4274 134.924 38.3196 137.731 38.3196C139.921 38.3196 141.751 39.1853 143.219 40.9187C144.682 42.6541 145.416 44.9356 145.416 47.7652ZM141.209 47.9163C141.209 46.1073 140.8 44.616 139.983 43.4423C139.09 42.2183 137.895 41.6063 136.39 41.6063C135.37 41.6063 134.446 41.9471 133.617 42.6192C132.788 43.2971 132.248 44.1822 131.994 45.2784C131.868 45.7897 131.802 46.208 131.802 46.5373V49.6361C131.802 50.988 132.217 52.1287 133.042 53.0603C133.871 53.99 134.948 54.4567 136.276 54.4567C137.831 54.4567 139.042 53.8563 139.908 52.6594C140.775 51.4605 141.209 49.8801 141.209 47.9163Z" fill="white"/>
<path d="M169.316 50.0582C169.316 52.2506 168.555 54.0344 167.027 55.4114C165.348 56.9163 163.01 57.6677 160.006 57.6677C157.233 57.6677 155.009 57.1332 153.326 56.0622L154.283 52.6205C156.096 53.7167 158.085 54.2668 160.252 54.2668C161.807 54.2668 163.018 53.9143 163.887 53.2132C164.753 52.5121 165.185 51.5708 165.185 50.3971C165.185 49.3513 164.829 48.47 164.114 47.7554C163.403 47.0407 162.216 46.3764 160.558 45.7624C156.045 44.0794 153.791 41.6139 153.791 38.3717C153.791 36.2529 154.581 34.5156 156.164 33.1638C157.74 31.81 159.843 31.134 162.474 31.134C164.819 31.134 166.767 31.5427 168.323 32.3581L167.29 35.7242C165.838 34.934 164.195 34.5389 162.357 34.5389C160.905 34.5389 159.77 34.8972 158.956 35.6099C158.269 36.2471 157.924 37.0237 157.924 37.9437C157.924 38.9624 158.317 39.8049 159.107 40.4673C159.795 41.0793 161.044 41.7417 162.857 42.4564C165.075 43.3492 166.703 44.3931 167.751 45.5901C168.795 46.7831 169.316 48.2764 169.316 50.0582Z" fill="white"/>
<path d="M182.968 41.7997H178.417V50.8231C178.417 53.1182 179.219 54.2647 180.826 54.2647C181.564 54.2647 182.176 54.2008 182.66 54.073L182.775 57.2086C181.961 57.5127 180.89 57.6657 179.564 57.6657C177.933 57.6657 176.658 57.168 175.738 56.1744C174.822 55.1789 174.361 53.5094 174.361 51.164V41.7958H171.65V38.697H174.361V35.2941L178.417 34.0701V38.697H182.968V41.7997Z" fill="white"/>
<path d="M203.503 47.8405C203.503 50.6972 202.686 53.0427 201.055 54.8768C199.345 56.7651 197.075 57.7064 194.246 57.7064C191.519 57.7064 189.348 56.8019 187.729 54.993C186.109 53.184 185.3 50.9006 185.3 48.1484C185.3 45.2685 186.133 42.9095 187.804 41.0754C189.472 39.2393 191.722 38.3213 194.552 38.3213C197.279 38.3213 199.473 39.2258 201.129 41.0366C202.713 42.7933 203.503 45.0612 203.503 47.8405ZM199.219 47.9741C199.219 46.2601 198.853 44.7901 198.112 43.5641C197.246 42.0806 196.008 41.3407 194.405 41.3407C192.745 41.3407 191.484 42.0825 190.618 43.5641C189.876 44.792 189.51 46.2853 189.51 48.0516C189.51 49.7656 189.876 51.2357 190.618 52.4597C191.511 53.9433 192.758 54.6831 194.368 54.6831C195.944 54.6831 197.182 53.9278 198.075 52.421C198.836 51.1717 199.219 49.6862 199.219 47.9741Z" fill="white"/>
<path d="M216.926 42.3326C216.517 42.257 216.081 42.2183 215.624 42.2183C214.172 42.2183 213.048 42.7664 212.258 43.8645C211.571 44.8329 211.226 46.057 211.226 47.5347V57.2863H207.099L207.137 44.554C207.137 42.412 207.085 40.4616 206.982 38.7031H210.579L210.73 42.259H210.844C211.28 41.0369 211.968 40.053 212.909 39.3151C213.829 38.6508 214.822 38.3196 215.893 38.3196C216.275 38.3196 216.62 38.3467 216.926 38.3951V42.3326Z" fill="white"/>
<path d="M235.392 47.1144C235.392 47.8542 235.344 48.4779 235.241 48.9872H222.854C222.902 50.8233 223.5 52.2275 224.651 53.1958C225.695 54.0616 227.045 54.4954 228.703 54.4954C230.537 54.4954 232.21 54.203 233.715 53.6161L234.362 56.4825C232.603 57.2495 230.527 57.631 228.131 57.631C225.249 57.631 222.987 56.7827 221.341 55.0881C219.699 53.3934 218.875 51.1177 218.875 48.2629C218.875 45.4604 219.641 43.1266 221.173 41.2654C222.776 39.2782 224.943 38.2847 227.67 38.2847C230.349 38.2847 232.377 39.2782 233.754 41.2654C234.844 42.8438 235.392 44.7961 235.392 47.1144ZM231.455 46.0434C231.482 44.8193 231.213 43.7618 230.653 42.869C229.938 41.7205 228.84 41.1472 227.362 41.1472C226.012 41.1472 224.914 41.7069 224.076 42.8303C223.388 43.7231 222.979 44.7941 222.854 46.0414L231.455 46.0434Z" fill="white"/>
<path d="M93.8027 18.6553C93.8027 20.9349 93.119 22.6508 91.7536 23.8032C90.4889 24.8665 88.6916 25.3991 86.3636 25.3991C85.2093 25.3991 84.2215 25.3488 83.3945 25.248V12.7927C84.4733 12.6184 85.6354 12.5293 86.8904 12.5293C89.108 12.5293 90.7794 13.0116 91.9066 13.9761C93.1694 15.0665 93.8027 16.6256 93.8027 18.6553ZM91.6626 18.7115C91.6626 17.2337 91.2714 16.1007 90.4889 15.3105C89.7065 14.5222 88.5638 14.1271 87.0589 14.1271C86.4198 14.1271 85.8755 14.1697 85.4243 14.2588V23.7277C85.6741 23.7664 86.1312 23.7838 86.7955 23.7838C88.3488 23.7838 89.5476 23.352 90.3921 22.4882C91.2365 21.6244 91.6626 20.3655 91.6626 18.7115Z" fill="white"/>
<path d="M105.151 20.6465C105.151 22.0507 104.75 23.2011 103.948 24.1037C103.107 25.0314 101.994 25.4943 100.603 25.4943C99.2628 25.4943 98.1956 25.0508 97.3996 24.1598C96.6055 23.2709 96.2085 22.1495 96.2085 20.7976C96.2085 19.3838 96.6172 18.2237 97.4383 17.3231C98.2595 16.4225 99.3635 15.9712 100.754 15.9712C102.094 15.9712 103.171 16.4147 103.987 17.3037C104.761 18.1675 105.151 19.2831 105.151 20.6465ZM103.045 20.7124C103.045 19.8699 102.863 19.1475 102.501 18.5452C102.075 17.8169 101.469 17.4528 100.68 17.4528C99.8651 17.4528 99.2453 17.8169 98.8193 18.5452C98.4551 19.1475 98.275 19.8815 98.275 20.7492C98.275 21.5917 98.4571 22.3141 98.8193 22.9164C99.2589 23.6447 99.8709 24.0088 100.661 24.0088C101.436 24.0088 102.044 23.6389 102.482 22.8971C102.857 22.2831 103.045 21.5549 103.045 20.7124Z" fill="white"/>
<path d="M120.365 16.157L117.508 25.2869H115.649L114.465 21.3223C114.165 20.3327 113.921 19.3488 113.731 18.3726H113.695C113.518 19.3759 113.274 20.3578 112.961 21.3223L111.704 25.2869H109.823L107.137 16.157H109.223L110.255 20.4973C110.505 21.5238 110.71 22.5018 110.875 23.4276H110.911C111.063 22.6645 111.312 21.6923 111.665 20.5166L112.961 16.1589H114.615L115.856 20.4237C116.156 21.4637 116.4 22.465 116.588 23.4295H116.644C116.782 22.4902 116.989 21.4889 117.264 20.4237L118.372 16.1589H120.365V16.157Z" fill="white"/>
<path d="M130.887 25.287H128.857V20.0577C128.857 18.4463 128.245 17.6406 127.017 17.6406C126.415 17.6406 125.929 17.8614 125.551 18.3049C125.177 18.7485 124.988 19.2714 124.988 19.8699V25.2851H122.958V18.7659C122.958 17.9641 122.933 17.0945 122.884 16.1532H124.668L124.763 17.5806H124.819C125.055 17.1371 125.408 16.771 125.871 16.4786C126.421 16.1377 127.037 15.9653 127.711 15.9653C128.563 15.9653 129.272 16.2404 129.835 16.7923C130.536 17.4683 130.887 18.4773 130.887 19.8176V25.287Z" fill="white"/>
<path d="M136.486 25.2869H134.458V11.9678H136.486V25.2869Z" fill="white"/>
<path d="M148.435 20.6465C148.435 22.0507 148.034 23.2011 147.232 24.1037C146.391 25.0314 145.276 25.4943 143.887 25.4943C142.545 25.4943 141.478 25.0508 140.684 24.1598C139.89 23.2709 139.493 22.1495 139.493 20.7976C139.493 19.3838 139.901 18.2237 140.723 17.3231C141.544 16.4225 142.648 15.9712 144.036 15.9712C145.379 15.9712 146.453 16.4147 147.271 17.3037C148.045 18.1675 148.435 19.2831 148.435 20.6465ZM146.328 20.7124C146.328 19.8699 146.145 19.1475 145.783 18.5452C145.359 17.8169 144.751 17.4528 143.965 17.4528C143.147 17.4528 142.528 17.8169 142.103 18.5452C141.739 19.1475 141.559 19.8815 141.559 20.7492C141.559 21.5917 141.741 22.3141 142.103 22.9164C142.543 23.6447 143.155 24.0088 143.945 24.0088C144.72 24.0088 145.326 23.6389 145.764 22.8971C146.142 22.2831 146.328 21.5549 146.328 20.7124Z" fill="white"/>
<path d="M158.258 25.287H156.436L156.285 24.2354H156.229C155.605 25.074 154.716 25.4943 153.562 25.4943C152.7 25.4943 152.003 25.2173 151.478 24.6673C151.001 24.1676 150.763 23.5459 150.763 22.808C150.763 21.6924 151.228 20.8422 152.163 20.2534C153.097 19.6646 154.41 19.376 156.101 19.3896V19.2191C156.101 18.0164 155.47 17.416 154.205 17.416C153.304 17.416 152.51 17.6426 151.825 18.092L151.412 16.7595C152.26 16.2346 153.308 15.9712 154.544 15.9712C156.93 15.9712 158.127 17.2301 158.127 19.7479V23.1101C158.127 24.0223 158.171 24.7486 158.258 25.287ZM156.151 22.1495V20.7414C153.912 20.7027 152.793 21.3167 152.793 22.5814C152.793 23.0578 152.921 23.4142 153.182 23.6524C153.444 23.8906 153.777 24.0088 154.174 24.0088C154.619 24.0088 155.036 23.8674 155.415 23.5866C155.797 23.3038 156.031 22.9455 156.118 22.5058C156.14 22.4071 156.151 22.287 156.151 22.1495Z" fill="white"/>
<path d="M169.793 25.2869H167.991L167.896 23.8208H167.84C167.265 24.9364 166.285 25.4942 164.908 25.4942C163.808 25.4942 162.892 25.0623 162.166 24.1985C161.439 23.3347 161.077 22.2133 161.077 20.8362C161.077 19.3585 161.47 18.1616 162.261 17.2474C163.026 16.3952 163.963 15.9691 165.078 15.9691C166.304 15.9691 167.162 16.3817 167.651 17.2087H167.689V11.9678H169.721V22.8272C169.721 23.7162 169.744 24.5355 169.793 25.2869ZM167.689 21.4366V19.9143C167.689 19.6509 167.67 19.4379 167.633 19.2752C167.519 18.7871 167.273 18.3765 166.899 18.0453C166.521 17.7142 166.066 17.5476 165.541 17.5476C164.784 17.5476 164.191 17.8478 163.756 18.4501C163.324 19.0525 163.105 19.8214 163.105 20.7607C163.105 21.6632 163.312 22.3953 163.729 22.9589C164.168 23.5593 164.761 23.8595 165.503 23.8595C166.169 23.8595 166.702 23.6097 167.106 23.1081C167.498 22.6452 167.689 22.0874 167.689 21.4366Z" fill="white"/>
<path d="M187.151 20.6465C187.151 22.0507 186.75 23.2011 185.948 24.1037C185.108 25.0314 183.996 25.4943 182.604 25.4943C181.265 25.4943 180.198 25.0508 179.4 24.1598C178.606 23.2709 178.209 22.1495 178.209 20.7976C178.209 19.3838 178.618 18.2237 179.439 17.3231C180.26 16.4225 181.364 15.9712 182.757 15.9712C184.095 15.9712 185.174 16.4147 185.987 17.3037C186.762 18.1675 187.151 19.2831 187.151 20.6465ZM185.048 20.7124C185.048 19.8699 184.866 19.1475 184.503 18.5452C184.075 17.8169 183.471 17.4528 182.681 17.4528C181.868 17.4528 181.248 17.8169 180.82 18.5452C180.456 19.1475 180.276 19.8815 180.276 20.7492C180.276 21.5917 180.458 22.3141 180.82 22.9164C181.259 23.6447 181.871 24.0088 182.662 24.0088C183.436 24.0088 184.046 23.6389 184.484 22.8971C184.858 22.2831 185.048 21.5549 185.048 20.7124Z" fill="white"/>
<path d="M198.065 25.287H196.037V20.0577C196.037 18.4463 195.425 17.6406 194.195 17.6406C193.593 17.6406 193.107 17.8614 192.731 18.3049C192.355 18.7485 192.167 19.2714 192.167 19.8699V25.2851H190.136V18.7659C190.136 17.9641 190.112 17.0945 190.064 16.1532H191.846L191.941 17.5806H191.997C192.235 17.1371 192.588 16.771 193.049 16.4786C193.601 16.1377 194.214 15.9653 194.89 15.9653C195.741 15.9653 196.449 16.2404 197.013 16.7923C197.716 17.4683 198.065 18.4773 198.065 19.8176V25.287Z" fill="white"/>
<path d="M211.724 17.6774H209.489V22.1126C209.489 23.2398 209.886 23.8034 210.672 23.8034C211.036 23.8034 211.339 23.7724 211.577 23.7085L211.629 25.2483C211.228 25.3993 210.701 25.4749 210.053 25.4749C209.251 25.4749 208.627 25.2308 208.176 24.7428C207.723 24.2547 207.498 23.4335 207.498 22.2811V17.6774H206.164V16.1571H207.498V14.4837L209.487 13.8833V16.1551H211.722L211.724 17.6774Z" fill="white"/>
<path d="M222.47 25.2869H220.438V20.0964C220.438 18.4598 219.826 17.6406 218.6 17.6406C217.659 17.6406 217.016 18.1151 216.663 19.0641C216.603 19.2636 216.568 19.5076 216.568 19.7942V25.285H214.541V11.9678H216.568V17.4701H216.607C217.246 16.4688 218.162 15.9691 219.35 15.9691C220.19 15.9691 220.885 16.2442 221.437 16.7961C222.125 17.4837 222.47 18.5063 222.47 19.8582V25.2869Z" fill="white"/>
<path d="M233.554 20.29C233.554 20.6541 233.526 20.9602 233.478 21.21H227.391C227.418 22.1125 227.708 22.8001 228.272 23.2765C228.787 23.7026 229.451 23.9157 230.265 23.9157C231.165 23.9157 231.987 23.7723 232.727 23.4838L233.044 24.8937C232.178 25.2695 231.16 25.4573 229.98 25.4573C228.566 25.4573 227.453 25.0409 226.647 24.2081C225.837 23.3753 225.437 22.2578 225.437 20.8556C225.437 19.4785 225.81 18.332 226.564 17.4178C227.35 16.4417 228.413 15.9536 229.756 15.9536C231.069 15.9536 232.066 16.4417 232.74 17.4178C233.284 18.1925 233.554 19.1512 233.554 20.29ZM231.617 19.7652C231.632 19.1628 231.499 18.6438 231.224 18.2061C230.871 17.6425 230.335 17.3597 229.608 17.3597C228.946 17.3597 228.406 17.6347 227.993 18.1867C227.656 18.6264 227.457 19.1512 227.391 19.7652H231.617Z" fill="white"/>
</svg>
