<svg width="359" height="74" viewBox="0 0 359 74" fill="none" xmlns="http://www.w3.org/2000/svg">
<rect width="359" height="74" rx="20" fill="#22A0FB"/>
<rect x="0.75" y="0.75" width="357.5" height="72.5" rx="19.25" stroke="black" stroke-opacity="0.04" stroke-width="1.5"/>
<path d="M30 44.2173C30 43.8574 30.1256 43.5518 30.3769 43.3005C30.6282 43.0424 30.9338 42.9134 31.2937 42.9134H33.4533V30.9032C33.4533 30.1154 33.6706 29.5144 34.1053 29.1002C34.5399 28.6859 35.1375 28.4788 35.8981 28.4788H54.1019C54.8964 28.4788 55.5008 28.6859 55.9151 29.1002C56.3362 29.5144 56.5467 30.1154 56.5467 30.9032V42.9134H58.7063C59.0662 42.9134 59.3718 43.0424 59.6231 43.3005C59.8744 43.5518 60 43.8574 60 44.2173C60 44.5704 59.8744 44.876 59.6231 45.1341C59.3718 45.3922 59.0662 45.5212 58.7063 45.5212H31.2937C30.9338 45.5212 30.6282 45.3922 30.3769 45.1341C30.1256 44.876 30 44.5704 30 44.2173ZM35.4499 42.9134H54.5501V31.4329C54.5501 31.1069 54.4686 30.8659 54.3056 30.7097C54.1494 30.5535 53.9151 30.4754 53.6027 30.4754H36.3973C36.0849 30.4754 35.8472 30.5535 35.6842 30.7097C35.528 30.8659 35.4499 31.1069 35.4499 31.4329V42.9134Z" fill="white"/>
<path d="M78.7251 44H73.5689V29.4545H78.7678C80.2308 29.4545 81.4903 29.7457 82.5462 30.3281C83.602 30.9058 84.4141 31.7367 84.9822 32.821C85.5552 33.9053 85.8416 35.2027 85.8416 36.7131C85.8416 38.2282 85.5552 39.5303 84.9822 40.6193C84.4141 41.7083 83.5973 42.544 82.532 43.1264C81.4714 43.7088 80.2024 44 78.7251 44ZM76.6442 41.3651H78.5973C79.5064 41.3651 80.2711 41.2041 80.8913 40.8821C81.5163 40.5554 81.9851 40.0511 82.2976 39.3693C82.6148 38.6828 82.7734 37.7973 82.7734 36.7131C82.7734 35.6383 82.6148 34.7599 82.2976 34.0781C81.9851 33.3963 81.5187 32.8944 80.8984 32.5724C80.2782 32.2505 79.5135 32.0895 78.6044 32.0895H76.6442V41.3651ZM92.9918 44.2131C91.8886 44.2131 90.9345 43.9787 90.1296 43.5099C89.3294 43.0365 88.7115 42.3783 88.2759 41.5355C87.8403 40.688 87.6225 39.7055 87.6225 38.5881C87.6225 37.4612 87.8403 36.4763 88.2759 35.6335C88.7115 34.786 89.3294 34.1278 90.1296 33.6591C90.9345 33.1856 91.8886 32.9489 92.9918 32.9489C94.0951 32.9489 95.0468 33.1856 95.8469 33.6591C96.6519 34.1278 97.2721 34.786 97.7077 35.6335C98.1433 36.4763 98.3612 37.4612 98.3612 38.5881C98.3612 39.7055 98.1433 40.688 97.7077 41.5355C97.2721 42.3783 96.6519 43.0365 95.8469 43.5099C95.0468 43.9787 94.0951 44.2131 92.9918 44.2131ZM93.006 41.8693C93.5079 41.8693 93.927 41.7273 94.2631 41.4432C94.5993 41.1544 94.8526 40.7614 95.0231 40.2642C95.1983 39.767 95.2859 39.2012 95.2859 38.5668C95.2859 37.9323 95.1983 37.3665 95.0231 36.8693C94.8526 36.3722 94.5993 35.9792 94.2631 35.6903C93.927 35.4015 93.5079 35.2571 93.006 35.2571C92.4994 35.2571 92.0733 35.4015 91.7276 35.6903C91.3867 35.9792 91.1287 36.3722 90.9535 36.8693C90.783 37.3665 90.6978 37.9323 90.6978 38.5668C90.6978 39.2012 90.783 39.767 90.9535 40.2642C91.1287 40.7614 91.3867 41.1544 91.7276 41.4432C92.0733 41.7273 92.4994 41.8693 93.006 41.8693ZM102.207 44L99.2383 33.0909H102.299L103.99 40.4205H104.089L105.85 33.0909H108.855L110.645 40.3778H110.737L112.399 33.0909H115.453L112.491 44H109.288L107.413 37.1392H107.278L105.403 44H102.207ZM120.092 37.6932V44H117.067V33.0909H119.95V35.0156H120.078C120.32 34.3812 120.724 33.8793 121.293 33.5099C121.861 33.1359 122.55 32.9489 123.359 32.9489C124.117 32.9489 124.777 33.1146 125.341 33.446C125.904 33.7775 126.342 34.2509 126.655 34.8665C126.967 35.4773 127.124 36.2064 127.124 37.054V44H124.098V37.5938C124.103 36.9261 123.932 36.4053 123.587 36.0312C123.241 35.6525 122.765 35.4631 122.159 35.4631C121.752 35.4631 121.392 35.5507 121.08 35.7259C120.772 35.901 120.53 36.1567 120.355 36.4929C120.185 36.8243 120.097 37.2244 120.092 37.6932ZM132.534 29.4545V44H129.508V29.4545H132.534ZM139.886 44.2131C138.783 44.2131 137.829 43.9787 137.024 43.5099C136.224 43.0365 135.606 42.3783 135.17 41.5355C134.735 40.688 134.517 39.7055 134.517 38.5881C134.517 37.4612 134.735 36.4763 135.17 35.6335C135.606 34.786 136.224 34.1278 137.024 33.6591C137.829 33.1856 138.783 32.9489 139.886 32.9489C140.99 32.9489 141.941 33.1856 142.741 33.6591C143.546 34.1278 144.167 34.786 144.602 35.6335C145.038 36.4763 145.256 37.4612 145.256 38.5881C145.256 39.7055 145.038 40.688 144.602 41.5355C144.167 42.3783 143.546 43.0365 142.741 43.5099C141.941 43.9787 140.99 44.2131 139.886 44.2131ZM139.901 41.8693C140.402 41.8693 140.821 41.7273 141.158 41.4432C141.494 41.1544 141.747 40.7614 141.918 40.2642C142.093 39.767 142.18 39.2012 142.18 38.5668C142.18 37.9323 142.093 37.3665 141.918 36.8693C141.747 36.3722 141.494 35.9792 141.158 35.6903C140.821 35.4015 140.402 35.2571 139.901 35.2571C139.394 35.2571 138.968 35.4015 138.622 35.6903C138.281 35.9792 138.023 36.3722 137.848 36.8693C137.678 37.3665 137.592 37.9323 137.592 38.5668C137.592 39.2012 137.678 39.767 137.848 40.2642C138.023 40.7614 138.281 41.1544 138.622 41.4432C138.968 41.7273 139.394 41.8693 139.901 41.8693ZM150.334 44.206C149.638 44.206 149.018 44.0852 148.473 43.8438C147.929 43.5975 147.498 43.2353 147.18 42.7571C146.868 42.2741 146.712 41.6728 146.712 40.9531C146.712 40.3471 146.823 39.8381 147.045 39.4261C147.268 39.0142 147.571 38.6828 147.955 38.4318C148.338 38.1809 148.774 37.9915 149.261 37.8636C149.754 37.7358 150.27 37.6458 150.81 37.5938C151.444 37.5275 151.955 37.4659 152.344 37.4091C152.732 37.3475 153.014 37.2576 153.189 37.1392C153.364 37.0208 153.452 36.8456 153.452 36.6136V36.571C153.452 36.1212 153.31 35.7732 153.026 35.527C152.746 35.2808 152.348 35.1577 151.832 35.1577C151.288 35.1577 150.855 35.2784 150.533 35.5199C150.211 35.7566 149.998 36.0549 149.893 36.4148L147.095 36.1875C147.237 35.5246 147.517 34.9517 147.933 34.4688C148.35 33.9811 148.887 33.607 149.545 33.3466C150.208 33.0814 150.975 32.9489 151.847 32.9489C152.453 32.9489 153.033 33.0199 153.587 33.1619C154.145 33.304 154.64 33.5241 155.071 33.8224C155.507 34.1207 155.85 34.5043 156.101 34.973C156.352 35.437 156.477 35.9934 156.477 36.642V44H153.608V42.4872H153.523C153.348 42.8281 153.113 43.1288 152.82 43.3892C152.526 43.6449 152.173 43.8461 151.761 43.9929C151.349 44.1349 150.874 44.206 150.334 44.206ZM151.2 42.1179C151.645 42.1179 152.038 42.0303 152.379 41.8551C152.72 41.6752 152.988 41.4337 153.182 41.1307C153.376 40.8277 153.473 40.4844 153.473 40.1009V38.9432C153.378 39.0047 153.248 39.0616 153.082 39.1136C152.921 39.161 152.739 39.206 152.536 39.2486C152.332 39.2865 152.128 39.322 151.925 39.3551C151.721 39.3835 151.536 39.4096 151.371 39.4332C151.016 39.4853 150.705 39.5682 150.44 39.6818C150.175 39.7955 149.969 39.9493 149.822 40.1435C149.676 40.3329 149.602 40.5696 149.602 40.8537C149.602 41.2656 149.751 41.5805 150.05 41.7983C150.353 42.0114 150.736 42.1179 151.2 42.1179ZM162.844 44.1776C162.016 44.1776 161.265 43.9645 160.593 43.5384C159.925 43.1075 159.395 42.4754 159.002 41.642C158.614 40.804 158.42 39.7765 158.42 38.5597C158.42 37.3097 158.621 36.2704 159.023 35.4418C159.426 34.6084 159.961 33.9858 160.629 33.5739C161.301 33.1572 162.037 32.9489 162.837 32.9489C163.448 32.9489 163.957 33.053 164.364 33.2614C164.776 33.465 165.108 33.7206 165.359 34.0284C165.614 34.3314 165.808 34.6297 165.941 34.9233H166.033V29.4545H169.052V44H166.069V42.2528H165.941C165.799 42.5559 165.598 42.8565 165.337 43.1548C165.082 43.4484 164.748 43.6922 164.336 43.8864C163.929 44.0805 163.432 44.1776 162.844 44.1776ZM163.803 41.7699C164.291 41.7699 164.703 41.6373 165.039 41.3722C165.38 41.1023 165.64 40.7259 165.82 40.2429C166.005 39.7599 166.097 39.1941 166.097 38.5455C166.097 37.8968 166.007 37.3333 165.827 36.8551C165.647 36.3769 165.387 36.0076 165.046 35.7472C164.705 35.4867 164.291 35.3565 163.803 35.3565C163.306 35.3565 162.887 35.4915 162.546 35.7614C162.205 36.0312 161.947 36.4053 161.772 36.8835C161.597 37.3617 161.509 37.9157 161.509 38.5455C161.509 39.1799 161.597 39.741 161.772 40.2287C161.952 40.7116 162.21 41.0904 162.546 41.3651C162.887 41.6349 163.306 41.7699 163.803 41.7699ZM182.035 33.0909V35.3636H175.302V33.0909H182.035ZM176.843 44V32.3026C176.843 31.5118 176.997 30.8561 177.305 30.3352C177.617 29.8144 178.043 29.4238 178.583 29.1634C179.123 28.9029 179.736 28.7727 180.423 28.7727C180.887 28.7727 181.31 28.8082 181.694 28.8793C182.082 28.9503 182.371 29.0142 182.56 29.071L182.021 31.3438C181.902 31.3059 181.755 31.2704 181.58 31.2372C181.41 31.2041 181.235 31.1875 181.055 31.1875C180.61 31.1875 180.299 31.2917 180.124 31.5C179.949 31.7036 179.862 31.9901 179.862 32.3594V44H176.843ZM188.422 44.2131C187.318 44.2131 186.364 43.9787 185.559 43.5099C184.759 43.0365 184.141 42.3783 183.706 41.5355C183.27 40.688 183.052 39.7055 183.052 38.5881C183.052 37.4612 183.27 36.4763 183.706 35.6335C184.141 34.786 184.759 34.1278 185.559 33.6591C186.364 33.1856 187.318 32.9489 188.422 32.9489C189.525 32.9489 190.476 33.1856 191.277 33.6591C192.082 34.1278 192.702 34.786 193.137 35.6335C193.573 36.4763 193.791 37.4612 193.791 38.5881C193.791 39.7055 193.573 40.688 193.137 41.5355C192.702 42.3783 192.082 43.0365 191.277 43.5099C190.476 43.9787 189.525 44.2131 188.422 44.2131ZM188.436 41.8693C188.938 41.8693 189.357 41.7273 189.693 41.4432C190.029 41.1544 190.282 40.7614 190.453 40.2642C190.628 39.767 190.716 39.2012 190.716 38.5668C190.716 37.9323 190.628 37.3665 190.453 36.8693C190.282 36.3722 190.029 35.9792 189.693 35.6903C189.357 35.4015 188.938 35.2571 188.436 35.2571C187.929 35.2571 187.503 35.4015 187.157 35.6903C186.816 35.9792 186.558 36.3722 186.383 36.8693C186.213 37.3665 186.127 37.9323 186.127 38.5668C186.127 39.2012 186.213 39.767 186.383 40.2642C186.558 40.7614 186.816 41.1544 187.157 41.4432C187.503 41.7273 187.929 41.8693 188.436 41.8693ZM195.758 44V33.0909H198.691V34.9943H198.805C199.004 34.3172 199.338 33.8059 199.806 33.4602C200.275 33.1098 200.815 32.9347 201.426 32.9347C201.577 32.9347 201.741 32.9441 201.916 32.9631C202.091 32.982 202.245 33.008 202.377 33.0412V35.7259C202.235 35.6832 202.039 35.6454 201.788 35.6122C201.537 35.5791 201.307 35.5625 201.099 35.5625C200.654 35.5625 200.256 35.6596 199.906 35.8537C199.56 36.0431 199.286 36.3082 199.082 36.6491C198.883 36.9901 198.784 37.383 198.784 37.8281V44H195.758ZM208.571 44V33.0909H211.454V35.0156H211.582C211.809 34.3764 212.188 33.8722 212.718 33.5028C213.249 33.1335 213.883 32.9489 214.622 32.9489C215.37 32.9489 216.007 33.1359 216.532 33.5099C217.058 33.8793 217.408 34.3812 217.583 35.0156H217.697C217.92 34.3906 218.322 33.8911 218.904 33.517C219.492 33.1383 220.185 32.9489 220.985 32.9489C222.003 32.9489 222.83 33.2732 223.464 33.9219C224.103 34.5658 224.423 35.4796 224.423 36.6634V44H221.404V37.2599C221.404 36.6539 221.243 36.1993 220.922 35.8963C220.6 35.5933 220.197 35.4418 219.714 35.4418C219.165 35.4418 218.736 35.617 218.429 35.9673C218.121 36.313 217.967 36.7699 217.967 37.3381V44H215.034V37.196C215.034 36.661 214.88 36.2348 214.572 35.9176C214.269 35.6004 213.869 35.4418 213.372 35.4418C213.036 35.4418 212.733 35.527 212.463 35.6974C212.198 35.8632 211.987 36.0975 211.831 36.4006C211.674 36.6989 211.596 37.0492 211.596 37.4517V44H208.571ZM229.924 44.206C229.228 44.206 228.607 44.0852 228.063 43.8438C227.518 43.5975 227.087 43.2353 226.77 42.7571C226.458 42.2741 226.301 41.6728 226.301 40.9531C226.301 40.3471 226.413 39.8381 226.635 39.4261C226.858 39.0142 227.161 38.6828 227.544 38.4318C227.928 38.1809 228.364 37.9915 228.851 37.8636C229.344 37.7358 229.86 37.6458 230.4 37.5938C231.034 37.5275 231.545 37.4659 231.934 37.4091C232.322 37.3475 232.604 37.2576 232.779 37.1392C232.954 37.0208 233.042 36.8456 233.042 36.6136V36.571C233.042 36.1212 232.9 35.7732 232.615 35.527C232.336 35.2808 231.938 35.1577 231.422 35.1577C230.878 35.1577 230.444 35.2784 230.123 35.5199C229.801 35.7566 229.587 36.0549 229.483 36.4148L226.685 36.1875C226.827 35.5246 227.106 34.9517 227.523 34.4688C227.94 33.9811 228.477 33.607 229.135 33.3466C229.798 33.0814 230.565 32.9489 231.436 32.9489C232.042 32.9489 232.623 33.0199 233.176 33.1619C233.735 33.304 234.23 33.5241 234.661 33.8224C235.096 34.1207 235.44 34.5043 235.691 34.973C235.942 35.437 236.067 35.9934 236.067 36.642V44H233.198V42.4872H233.113C232.937 42.8281 232.703 43.1288 232.409 43.3892C232.116 43.6449 231.763 43.8461 231.351 43.9929C230.939 44.1349 230.463 44.206 229.924 44.206ZM230.79 42.1179C231.235 42.1179 231.628 42.0303 231.969 41.8551C232.31 41.6752 232.578 41.4337 232.772 41.1307C232.966 40.8277 233.063 40.4844 233.063 40.1009V38.9432C232.968 39.0047 232.838 39.0616 232.672 39.1136C232.511 39.161 232.329 39.206 232.125 39.2486C231.922 39.2865 231.718 39.322 231.515 39.3551C231.311 39.3835 231.126 39.4096 230.961 39.4332C230.605 39.4853 230.295 39.5682 230.03 39.6818C229.765 39.7955 229.559 39.9493 229.412 40.1435C229.266 40.3329 229.192 40.5696 229.192 40.8537C229.192 41.2656 229.341 41.5805 229.64 41.7983C229.943 42.0114 230.326 42.1179 230.79 42.1179ZM243.343 44.2131C242.226 44.2131 241.265 43.9763 240.46 43.5028C239.66 43.0246 239.044 42.3617 238.613 41.5142C238.187 40.6667 237.974 39.6913 237.974 38.5881C237.974 37.4706 238.19 36.4905 238.62 35.6477C239.056 34.8002 239.674 34.1397 240.474 33.6662C241.274 33.188 242.226 32.9489 243.329 32.9489C244.281 32.9489 245.114 33.1217 245.829 33.4673C246.544 33.813 247.11 34.2983 247.527 34.9233C247.943 35.5483 248.173 36.2822 248.216 37.125H245.36C245.28 36.5805 245.067 36.1425 244.721 35.8111C244.38 35.4749 243.933 35.3068 243.379 35.3068C242.91 35.3068 242.501 35.4347 242.15 35.6903C241.805 35.9413 241.535 36.3082 241.341 36.7912C241.146 37.2741 241.049 37.8589 241.049 38.5455C241.049 39.2415 241.144 39.8333 241.333 40.321C241.528 40.8087 241.8 41.1804 242.15 41.4361C242.501 41.6918 242.91 41.8196 243.379 41.8196C243.725 41.8196 244.035 41.7486 244.309 41.6065C244.589 41.4645 244.818 41.2585 244.998 40.9886C245.183 40.714 245.304 40.3849 245.36 40.0014H248.216C248.168 40.8348 247.941 41.5687 247.534 42.2031C247.131 42.8329 246.575 43.3253 245.865 43.6804C245.154 44.0355 244.314 44.2131 243.343 44.2131ZM263.576 36.7273C263.576 38.3134 263.275 39.6629 262.674 40.7756C262.077 41.8883 261.263 42.7382 260.231 43.3253C259.203 43.9077 258.048 44.1989 256.765 44.1989C255.472 44.1989 254.312 43.9053 253.285 43.3182C252.257 42.7311 251.445 41.8812 250.849 40.7685C250.252 39.6558 249.954 38.3087 249.954 36.7273C249.954 35.1411 250.252 33.7917 250.849 32.679C251.445 31.5663 252.257 30.7187 253.285 30.1364C254.312 29.5492 255.472 29.2557 256.765 29.2557C258.048 29.2557 259.203 29.5492 260.231 30.1364C261.263 30.7187 262.077 31.5663 262.674 32.679C263.275 33.7917 263.576 35.1411 263.576 36.7273ZM260.458 36.7273C260.458 35.6998 260.304 34.8333 259.996 34.1278C259.693 33.4223 259.265 32.8873 258.711 32.5227C258.157 32.1581 257.508 31.9759 256.765 31.9759C256.022 31.9759 255.373 32.1581 254.819 32.5227C254.265 32.8873 253.834 33.4223 253.526 34.1278C253.223 34.8333 253.072 35.6998 253.072 36.7273C253.072 37.7547 253.223 38.6212 253.526 39.3267C253.834 40.0322 254.265 40.5672 254.819 40.9318C255.373 41.2964 256.022 41.4787 256.765 41.4787C257.508 41.4787 258.157 41.2964 258.711 40.9318C259.265 40.5672 259.693 40.0322 259.996 39.3267C260.304 38.6212 260.458 37.7547 260.458 36.7273ZM273.745 33.6378C273.688 33.0649 273.444 32.6198 273.013 32.3026C272.582 31.9853 271.998 31.8267 271.259 31.8267C270.757 31.8267 270.333 31.8977 269.988 32.0398C269.642 32.1771 269.377 32.3688 269.192 32.6151C269.012 32.8613 268.922 33.1406 268.922 33.4531C268.913 33.7135 268.967 33.9408 269.086 34.1349C269.209 34.3291 269.377 34.4972 269.59 34.6392C269.803 34.7765 270.049 34.8973 270.328 35.0014C270.608 35.1009 270.906 35.1861 271.223 35.2571L272.53 35.5696C273.165 35.7116 273.747 35.901 274.277 36.1378C274.808 36.3745 275.267 36.6657 275.655 37.0114C276.043 37.357 276.344 37.7642 276.557 38.233C276.775 38.7017 276.886 39.2391 276.891 39.8452C276.886 40.7353 276.659 41.5071 276.209 42.1605C275.764 42.8092 275.12 43.3134 274.277 43.6733C273.439 44.0284 272.428 44.206 271.245 44.206C270.07 44.206 269.048 44.026 268.176 43.6662C267.31 43.3063 266.633 42.7737 266.145 42.0682C265.662 41.358 265.409 40.4796 265.385 39.4332H268.361C268.394 39.9209 268.534 40.3281 268.78 40.6548C269.031 40.9768 269.365 41.2206 269.782 41.3864C270.203 41.5473 270.679 41.6278 271.209 41.6278C271.73 41.6278 272.182 41.5521 272.566 41.4006C272.954 41.2491 273.255 41.0384 273.468 40.7685C273.681 40.4986 273.787 40.1884 273.787 39.8381C273.787 39.5114 273.69 39.2367 273.496 39.0142C273.307 38.7917 273.027 38.6023 272.658 38.446C272.293 38.2898 271.846 38.1477 271.316 38.0199L269.732 37.6222C268.506 37.3239 267.537 36.8575 266.827 36.223C266.117 35.5885 265.764 34.7339 265.769 33.6591C265.764 32.7784 265.998 32.009 266.472 31.3509C266.95 30.6927 267.606 30.179 268.439 29.8097C269.273 29.4403 270.22 29.2557 271.28 29.2557C272.36 29.2557 273.302 29.4403 274.107 29.8097C274.917 30.179 275.546 30.6927 275.996 31.3509C276.446 32.009 276.678 32.7713 276.692 33.6378H273.745Z" fill="white"/>
<rect x="286" y="24" width="43" height="26" rx="8" fill="white" fill-opacity="0.16"/>
<path d="M295.363 41V32.2727H298.559C299.178 32.2727 299.691 32.375 300.097 32.5795C300.504 32.7812 300.808 33.0554 301.009 33.402C301.211 33.7457 301.312 34.1335 301.312 34.5653C301.312 34.929 301.245 35.2358 301.112 35.4858C300.978 35.733 300.799 35.9318 300.575 36.0824C300.353 36.2301 300.109 36.3381 299.842 36.4062V36.4915C300.132 36.5057 300.414 36.5994 300.69 36.7727C300.968 36.9432 301.198 37.1861 301.38 37.5014C301.562 37.8168 301.653 38.2003 301.653 38.652C301.653 39.098 301.548 39.4986 301.338 39.8537C301.13 40.206 300.809 40.4858 300.374 40.6932C299.94 40.8977 299.384 41 298.708 41H295.363ZM296.68 39.8707H298.58C299.211 39.8707 299.663 39.7486 299.936 39.5043C300.208 39.2599 300.345 38.9545 300.345 38.5881C300.345 38.3125 300.275 38.0597 300.136 37.8295C299.997 37.5994 299.798 37.4162 299.539 37.2798C299.284 37.1435 298.98 37.0753 298.627 37.0753H296.68V39.8707ZM296.68 36.0483H298.444C298.74 36.0483 299.005 35.9915 299.241 35.8778C299.48 35.7642 299.669 35.6051 299.808 35.4006C299.95 35.1932 300.021 34.9489 300.021 34.6676C300.021 34.3068 299.894 34.0043 299.642 33.7599C299.389 33.5156 299.001 33.3935 298.478 33.3935H296.68V36.0483ZM305.933 41.1321C305.289 41.1321 304.733 40.9943 304.267 40.7188C303.804 40.4403 303.446 40.0497 303.193 39.5469C302.943 39.0412 302.818 38.4489 302.818 37.7699C302.818 37.0994 302.943 36.5085 303.193 35.9972C303.446 35.4858 303.798 35.0866 304.25 34.7997C304.705 34.5128 305.236 34.3693 305.844 34.3693C306.213 34.3693 306.571 34.4304 306.918 34.5526C307.264 34.6747 307.575 34.8665 307.851 35.1278C308.127 35.3892 308.344 35.7287 308.503 36.1463C308.662 36.5611 308.742 37.0653 308.742 37.6591V38.1108H303.539V37.1562H307.493C307.493 36.821 307.425 36.5241 307.289 36.2656C307.152 36.0043 306.96 35.7983 306.713 35.6477C306.469 35.4972 306.182 35.4219 305.852 35.4219C305.494 35.4219 305.182 35.5099 304.915 35.6861C304.651 35.8594 304.446 36.0866 304.301 36.3679C304.159 36.6463 304.088 36.9489 304.088 37.2756V38.0213C304.088 38.4588 304.165 38.831 304.318 39.1378C304.475 39.4446 304.692 39.679 304.97 39.8409C305.249 40 305.574 40.0795 305.946 40.0795C306.188 40.0795 306.408 40.0455 306.607 39.9773C306.806 39.9062 306.977 39.8011 307.122 39.6619C307.267 39.5227 307.378 39.3509 307.455 39.1463L308.661 39.3636C308.564 39.7187 308.391 40.0298 308.141 40.2969C307.894 40.5611 307.583 40.767 307.208 40.9148C306.835 41.0597 306.411 41.1321 305.933 41.1321ZM313.211 34.4545V35.4773H309.635V34.4545H313.211ZM310.594 32.8864H311.868V39.0781C311.868 39.3253 311.905 39.5114 311.979 39.6364C312.053 39.7585 312.148 39.8423 312.265 39.8878C312.384 39.9304 312.513 39.9517 312.653 39.9517C312.755 39.9517 312.844 39.9446 312.921 39.9304C312.998 39.9162 313.057 39.9048 313.1 39.8963L313.33 40.9489C313.256 40.9773 313.151 41.0057 313.015 41.0341C312.878 41.0653 312.708 41.0824 312.503 41.0852C312.168 41.0909 311.856 41.0312 311.566 40.9062C311.276 40.7812 311.042 40.5881 310.863 40.3267C310.684 40.0653 310.594 39.7372 310.594 39.3423V32.8864ZM316.525 41.1449C316.11 41.1449 315.735 41.0682 315.4 40.9148C315.065 40.7585 314.799 40.5327 314.603 40.2372C314.41 39.9418 314.313 39.5795 314.313 39.1506C314.313 38.7812 314.384 38.4773 314.526 38.2386C314.669 38 314.86 37.8111 315.102 37.6719C315.343 37.5327 315.613 37.4276 315.911 37.3565C316.21 37.2855 316.514 37.2315 316.823 37.1946C317.215 37.1491 317.534 37.1122 317.778 37.0838C318.022 37.0526 318.2 37.0028 318.311 36.9347C318.421 36.8665 318.477 36.7557 318.477 36.6023V36.5724C318.477 36.2003 318.372 35.9119 318.161 35.7074C317.954 35.5028 317.644 35.4006 317.232 35.4006C316.803 35.4006 316.465 35.4957 316.218 35.6861C315.974 35.8736 315.805 36.0824 315.711 36.3125L314.514 36.0398C314.656 35.642 314.863 35.321 315.136 35.0767C315.411 34.8295 315.728 34.6506 316.086 34.5398C316.444 34.4261 316.82 34.3693 317.215 34.3693C317.477 34.3693 317.754 34.4006 318.046 34.4631C318.342 34.5227 318.617 34.6335 318.873 34.7955C319.132 34.9574 319.343 35.1889 319.508 35.4901C319.673 35.7884 319.755 36.1761 319.755 36.6534V41H318.511V40.1051H318.46C318.377 40.2699 318.254 40.4318 318.089 40.5909C317.924 40.75 317.713 40.8821 317.454 40.9872C317.195 41.0923 316.886 41.1449 316.525 41.1449ZM316.802 40.1222C317.154 40.1222 317.455 40.0526 317.705 39.9134C317.958 39.7741 318.15 39.5923 318.281 39.3679C318.414 39.1406 318.481 38.8977 318.481 38.6392V37.7955C318.436 37.8409 318.347 37.8835 318.217 37.9233C318.089 37.9602 317.943 37.9929 317.778 38.0213C317.613 38.0469 317.453 38.071 317.296 38.0938C317.14 38.1136 317.009 38.1307 316.904 38.1449C316.657 38.1761 316.431 38.2287 316.227 38.3026C316.025 38.3764 315.863 38.483 315.741 38.6222C315.622 38.7585 315.562 38.9403 315.562 39.1676C315.562 39.483 315.678 39.7216 315.911 39.8835C316.144 40.0426 316.441 40.1222 316.802 40.1222Z" fill="white"/>
</svg>
