<svg width="41" height="50" viewBox="0 0 41 50" fill="none"
  xmlns="http://www.w3.org/2000/svg">
  <path d="M33.6561 26.5872C33.5999 20.345 38.7672 17.3081 39.0035 17.1668C36.077 12.9001 31.5411 12.3171 29.9471 12.2706C26.1375 11.8697 22.4422 14.5502 20.5015 14.5502C18.5222 14.5502 15.5337 12.3093 12.3129 12.3752C8.1682 12.4391 4.2908 14.8388 2.16422 18.5651C-2.22449 26.163 1.04865 37.3285 5.25337 43.47C7.3567 46.4778 9.81446 49.8361 13.0314 49.718C16.1787 49.5882 17.3543 47.7115 21.1523 47.7115C24.9154 47.7115 26.0194 49.718 29.3003 49.6425C32.678 49.5882 34.8046 46.6211 36.8343 43.5862C39.2649 40.1388 40.2411 36.7436 40.2798 36.5693C40.2004 36.5422 33.72 34.0689 33.6561 26.5872Z" fill="white"/>
  <path d="M27.4582 8.23054C29.1509 6.11365 30.3091 3.23368 29.9876 0.311096C27.5376 0.419555 24.4736 2.00577 22.7092 4.07617C21.1482 5.90061 19.7537 8.89097 20.114 11.7032C22.8661 11.9085 25.6918 10.3145 27.4582 8.23054Z" fill="white"/>
</svg>
