<svg width="60" height="36" viewBox="0 0 60 36" fill="none" xmlns="http://www.w3.org/2000/svg">
<path d="M47.431 33.3135C46.7071 33.4513 46.19 33.4341 45.8798 33.2617C45.604 33.0894 45.2765 32.8309 44.8973 32.4861C44.3458 32.2104 43.8459 31.8484 43.3978 31.4003C42.9842 30.9177 42.6739 30.4179 42.4671 29.9008C42.2603 29.3837 42.1741 28.9701 42.2086 28.6598C42.312 27.4533 42.5877 26.1434 43.0359 24.7301C43.5185 23.3168 44.1217 21.9552 44.8456 20.6452C45.5695 19.3353 46.3796 18.1805 47.2758 17.1809C48.2066 16.1467 49.1545 15.4228 50.1197 15.0092C50.8092 14.7334 51.5158 14.63 52.2397 14.6989C52.9981 14.7679 53.5152 15.0954 53.7909 15.6814C54.308 16.681 54.1873 17.3188 53.429 17.5945C53.3256 17.5945 53.2049 17.6462 53.067 17.7496C52.9291 17.8186 52.8602 17.922 52.8602 18.0599C52.9981 18.1288 53.3773 18.1461 53.9978 18.1116C54.6182 18.0427 55.2387 17.9392 55.8592 17.8014C56.5142 17.629 56.9451 17.4566 57.1519 17.2843C57.3587 17.1809 57.5138 17.1292 57.6172 17.1292C57.7207 17.1292 57.9792 17.1636 58.3928 17.2326C58.9789 17.4049 59.2719 17.6118 59.2719 17.8531C59.2719 17.9909 59.3236 18.1805 59.427 18.4218C59.5304 18.6631 59.6511 18.7838 59.7889 18.7838C60.0302 18.8183 60.0647 19.0423 59.8924 19.456C59.72 19.8352 59.2891 20.2661 58.5997 20.7487C57.9447 21.1623 57.5311 21.4381 57.3587 21.576C57.2208 21.6794 57.2036 21.9207 57.307 22.2999C57.5828 22.9548 57.5655 23.7304 57.2553 24.6267C56.9795 25.5229 56.4969 26.4537 55.8075 27.4189C55.1181 28.3841 54.2908 29.2975 53.3256 30.1593C52.3948 30.9866 51.4124 31.6933 50.3783 32.2793C49.3441 32.8653 48.3617 33.21 47.431 33.3135ZM47.2758 29.6423C47.4137 29.6423 47.655 29.5733 47.9997 29.4354C48.3445 29.2631 48.6202 29.1252 48.8271 29.0218C48.9649 28.8839 49.1373 28.7288 49.3441 28.5564C49.5854 28.3496 49.775 28.2289 49.9129 28.1945C50.0508 28.1945 50.1542 28.1428 50.2231 28.0393C50.3266 27.9015 50.4989 27.6429 50.7402 27.2637C51.016 26.8501 51.4641 26.2468 52.0846 25.454C52.774 24.6956 53.2566 24.0579 53.5324 23.5408C53.8082 23.0238 53.8599 22.4895 53.6875 21.9379C53.653 21.8 53.5496 21.7139 53.3773 21.6794C53.2394 21.6449 53.0498 21.5587 52.8085 21.4208C52.4638 21.4208 52.188 21.4381 51.9812 21.4726C51.8088 21.507 51.5331 21.3691 51.1539 21.0589L50.3266 20.0248L49.4475 20.9038C48.896 21.4553 48.3789 22.1965 47.8963 23.1272C47.4137 24.0234 47.0173 24.9542 46.7071 25.9194C46.4313 26.8501 46.2589 27.6429 46.19 28.2979C46.1555 28.8149 46.2417 29.1597 46.4485 29.332C46.6554 29.5044 46.9311 29.6078 47.2758 29.6423Z" fill="black"/>
<path d="M36.0614 34.6061C35.4065 34.7784 34.8377 34.6233 34.3551 34.1407C33.8725 33.6236 33.545 32.8653 33.3727 31.8656C33.2348 30.8659 33.3037 29.7284 33.5795 28.4529C33.7518 28.0393 33.8897 27.6428 33.9931 27.2637C34.0966 26.85 34.1483 26.5225 34.1483 26.2812C34.2172 25.9365 34.3551 25.4367 34.5619 24.7817C34.7687 24.0923 34.9928 23.3856 35.2341 22.6617C35.4754 21.9378 35.6995 21.3001 35.9063 20.7486C36.1476 20.1626 36.3027 19.8006 36.3717 19.6627C36.5095 19.6627 36.6302 19.5421 36.7336 19.3008C36.837 19.0595 36.8887 18.8182 36.8887 18.5769C36.8887 18.3011 36.9404 17.9909 37.0439 17.6462C37.1817 17.3014 37.3196 17.0601 37.4575 16.9223C37.4575 16.7499 37.492 16.5603 37.5609 16.3535C37.6643 16.1122 37.716 15.9226 37.716 15.7847C37.716 15.6468 37.7505 15.5089 37.8195 15.3711C37.9229 15.2332 37.9746 15.0953 37.9746 14.9574C38.2159 14.5093 38.5261 13.8026 38.9053 12.8374C39.319 11.8377 39.7498 10.7347 40.198 9.52816C40.6806 8.32167 41.1287 7.13241 41.5424 5.96038C41.956 4.78835 42.2835 3.80592 42.5248 3.01308C42.8006 2.18577 42.9384 1.68594 42.9384 1.51358C42.9384 1.23781 43.0246 0.99651 43.197 0.789682C43.4038 0.582853 43.6451 0.479438 43.9209 0.479438C44.0243 0.376025 44.2139 0.307084 44.4897 0.272613C44.7999 0.203669 45.024 0.169197 45.1618 0.169197C45.1618 0.169197 45.2308 0.23814 45.3687 0.376025C45.5066 0.513911 45.7134 0.72074 45.9892 0.996511C46.2649 1.23781 46.489 1.51358 46.6614 1.82382C46.8682 2.13406 46.9716 2.49601 46.9716 2.90967C46.9716 3.3578 46.9199 3.78869 46.8165 4.20234C46.7131 4.58153 46.5062 5.11583 46.196 5.80526C45.8857 6.49469 45.4031 7.52883 44.7482 8.90768C44.4724 9.59711 44.1794 10.2521 43.8692 10.8725C43.5589 11.4586 43.4038 11.8205 43.4038 11.9584C43.4038 12.0963 43.3349 12.3031 43.197 12.5789C43.0936 12.8546 42.9729 13.1994 42.835 13.613C42.6971 13.8888 42.5076 14.3024 42.2663 14.854C42.025 15.3711 41.7664 15.9398 41.4907 16.5603C41.2494 17.1463 41.0425 17.6634 40.8702 18.1115C40.6978 18.5252 40.6116 18.7665 40.6116 18.8354C40.6116 18.9733 40.5944 19.1112 40.5599 19.2491C40.5599 19.387 40.491 19.5248 40.3531 19.6627C40.2152 19.6627 40.129 19.7661 40.0946 19.973C40.0946 20.1453 40.0946 20.2315 40.0946 20.2315C40.0946 20.5762 39.8188 21.4897 39.2673 22.972C38.7157 24.8679 38.1986 26.6087 37.716 28.1944C37.2679 29.7801 37.0439 31.0555 37.0439 32.0207C37.0439 32.848 36.9404 33.4513 36.7336 33.8305C36.5613 34.2096 36.3372 34.4682 36.0614 34.6061Z" fill="black"/>
<path d="M25.1802 33.1067C24.9044 32.8309 24.6976 32.4517 24.5597 31.9691C24.4563 31.452 24.4218 30.9522 24.4563 30.4696C24.4908 29.9525 24.5769 29.5561 24.7148 29.2803C24.7148 29.0046 24.7493 28.7977 24.8182 28.6599C24.9216 28.4875 24.9561 28.3324 24.9216 28.1945C24.8872 28.0566 24.9216 27.8153 25.0251 27.4706C25.1285 27.1259 25.2319 26.7984 25.3353 26.4882C25.5766 25.9366 25.8351 25.2472 26.1109 24.4199C26.4211 23.5581 26.7142 22.6963 26.9899 21.8345C27.3002 20.9728 27.5415 20.2316 27.7138 19.6111C27.9207 18.9562 28.0413 18.5598 28.0758 18.4219C28.0758 18.0082 28.3515 17.7842 28.9031 17.7497C29.3167 17.6118 29.7476 17.7325 30.1958 18.1116C30.6784 18.4563 31.092 18.9045 31.4367 19.456C31.7125 19.7318 31.8159 20.111 31.747 20.5936C31.678 21.0762 31.454 21.7311 31.0748 22.5584C30.9369 22.8342 30.7645 23.2823 30.5577 23.9028C30.3854 24.4888 30.2647 24.9887 30.1958 25.4023C30.0579 25.6781 29.8855 26.0745 29.6787 26.5916C29.5063 27.0742 29.3512 27.5395 29.2133 27.9877C29.1444 28.16 29.0754 28.453 29.0065 28.8667C28.9376 29.2803 28.8514 29.7112 28.748 30.1594C28.6446 30.6075 28.5067 30.9694 28.3343 31.2452C28.0241 32.6585 27.5587 33.4858 26.9382 33.7271C26.3522 33.9684 25.7662 33.7616 25.1802 33.1067ZM30.5577 12.2687C30.2475 12.0274 30.0062 11.7344 29.8338 11.3897C29.6615 11.0105 29.558 10.6658 29.5236 10.3556C29.5236 10.0453 29.558 9.87299 29.627 9.83852C29.9372 9.56275 30.2475 9.13186 30.5577 8.54584C30.868 7.92536 31.1093 7.37382 31.2816 6.89122C31.3161 6.78781 31.385 6.64992 31.4884 6.47757C31.6263 6.30521 31.7642 6.20179 31.9021 6.16732C32.3157 5.89155 32.8328 5.89155 33.4533 6.16732C34.0738 6.44309 34.5564 6.85675 34.9011 7.40829C35.2113 8.06325 35.2975 8.70097 35.1596 9.32145C35.0562 9.90746 34.6943 10.5797 34.0738 11.338C33.5567 12.0274 32.9535 12.4583 32.264 12.6307C31.6091 12.7686 31.0403 12.6479 30.5577 12.2687Z" fill="black"/>
<path d="M22.6518 18.4658C22.4795 18.6382 22.0658 18.8105 21.4109 18.9829C20.7559 19.1552 19.6701 19.3276 18.1533 19.5C17.7052 19.5344 17.0503 19.5689 16.1885 19.6034C15.3612 19.6378 14.4649 19.6723 13.4997 19.7068C12.5345 19.7413 11.6555 19.7585 10.8626 19.7585C10.0698 19.724 9.51826 19.6723 9.20802 19.6034C9.20802 19.6034 9.12184 19.6895 8.94949 19.8619C8.8116 20.0343 8.74266 20.2583 8.74266 20.5341C8.50136 20.9477 8.20835 21.5682 7.86364 22.3955C7.51893 23.2229 7.13974 24.1363 6.72609 25.136C6.31243 26.1012 5.91601 27.0836 5.53682 28.0833C5.19211 29.0485 4.89911 29.8931 4.65781 30.617C4.45098 31.3409 4.34756 31.8407 4.34756 32.1165C4.03732 32.9438 3.84773 33.6504 3.77879 34.2364C3.70984 34.8225 3.5892 35.1672 3.41684 35.2706C3.3479 35.6498 3.05489 35.8221 2.53782 35.7877C2.05522 35.7877 1.67604 35.6325 1.40027 35.3223C0.74531 34.9776 0.314418 34.5639 0.10759 34.0813C-0.0647662 33.5643 -0.0302948 32.9265 0.211004 32.1682C0.314418 31.72 0.486775 31.0651 0.728074 30.2033C1.00384 29.307 1.29685 28.3246 1.60709 27.256C1.95181 26.1874 2.29652 25.1532 2.64123 24.1536C3.02042 23.1194 3.38237 22.2749 3.72708 21.6199C4.10626 20.965 4.34756 20.379 4.45098 19.8619C4.55439 19.3104 4.5333 18.8715 4.70565 18.4234C4.67118 18.0442 4.89413 17.7991 4.9286 17.6957C4.96308 17.5578 5.03699 17.2938 5.27829 17.018C5.45065 16.8457 5.65747 16.5871 5.89877 16.2424C6.17454 15.8632 6.48479 15.2944 6.8295 14.5361C6.93291 14.1914 7.08804 13.726 7.29486 13.14C7.53616 12.5195 7.76023 11.899 7.96705 11.2785C8.17388 10.6236 8.36347 10.072 8.53583 9.62391C8.70819 9.17579 8.79437 8.93449 8.79437 8.90002C8.86331 8.76213 8.96672 8.5036 9.10461 8.12441C9.24249 7.71076 9.34591 7.38328 9.41485 7.14198C9.55274 6.65938 9.65615 6.26296 9.72509 5.95272C9.82851 5.64248 9.81127 5.48735 9.67338 5.48735C9.39761 5.5563 8.84607 5.60801 8.01876 5.64248C7.60511 5.71142 7.29486 5.76313 7.08803 5.7976C6.91568 5.7976 6.76056 5.81483 6.62267 5.84931C6.27796 5.88378 5.96772 5.8493 5.69195 5.74589C5.41618 5.64248 5.27829 5.43565 5.27829 5.12541C5.34723 4.57386 5.53683 4.05679 5.84707 3.5742C6.19178 3.05713 6.62267 2.78136 7.13974 2.74689C7.38104 2.67794 7.63958 2.62623 7.91535 2.59176C8.22559 2.52282 8.63925 2.41941 9.15631 2.28152C9.81127 2.14364 10.3628 2.07469 10.8109 2.07469C11.2591 2.07469 11.5865 2.10917 11.7934 2.17811C11.9657 2.07469 12.1036 1.97128 12.207 1.86787C12.3449 1.72998 12.4311 1.59209 12.4656 1.45421C12.569 0.971611 12.793 0.609662 13.1378 0.368363C13.5169 0.127063 13.8961 0.00641313 14.2753 0.00641313C14.689 -0.0280578 15.0337 0.0753573 15.3094 0.316658C15.5852 0.523485 15.7059 0.868198 15.6714 1.3508C15.7059 1.45421 15.7748 1.54039 15.8782 1.60933C16.0161 1.67827 16.3436 1.67827 16.8607 1.60933C17.3777 1.50592 18.2223 1.33356 19.3943 1.09226C20.0148 1.02332 20.7904 0.954375 21.7211 0.885433C22.6863 0.816492 23.4447 0.868199 23.9962 1.04056C24.5822 0.937141 25.0993 0.902668 25.5474 0.937139C26.03 0.937139 26.3575 0.868196 26.5299 0.730311C27.2538 0.868196 27.7708 0.971611 28.0811 1.04056C28.4258 1.07503 28.7016 1.17844 28.9084 1.3508C29.0463 1.48868 29.098 1.62657 29.0635 1.76445C29.029 1.86787 29.0118 1.91957 29.0118 1.91957C28.8739 1.85063 28.8567 1.85063 28.9601 1.91957C29.098 1.98852 29.2359 2.07469 29.3737 2.17811C29.615 2.28152 29.7529 2.47111 29.7874 2.74689C29.8219 3.02265 29.8219 3.29842 29.7874 3.5742C29.7529 3.8155 29.7185 3.98785 29.684 4.09127C29.6495 4.40151 29.4772 4.5911 29.1669 4.66004C28.8567 4.69452 28.0811 4.69452 26.8401 4.66004C25.3578 4.45322 23.9618 4.38427 22.6518 4.45322C21.3419 4.48769 19.739 4.64281 17.8431 4.91858C17.0847 4.95305 16.4298 5.05646 15.8782 5.22882C15.3612 5.36671 15.1026 5.43565 15.1026 5.43565C14.9647 5.43565 14.7234 5.67695 14.3787 6.15955C14.034 6.60767 13.7065 7.27987 13.3963 8.17612C13.2584 8.41742 13.0171 8.93449 12.6724 9.72733C12.3277 10.5202 11.9657 11.382 11.5865 12.3127C11.2418 13.2089 10.9316 14.019 10.6558 14.7429C10.38 15.4323 10.2077 15.8115 10.1387 15.8805C10.6213 16.0183 11.3797 16.0873 12.4139 16.0873C13.448 16.0873 14.6028 16.0528 15.8782 15.9839C17.1537 15.8805 18.3429 15.777 19.446 15.6736C19.9631 15.5702 20.4974 15.484 21.0489 15.4151C21.6005 15.3462 21.9796 15.3289 22.1865 15.3634C22.5312 15.4323 22.7897 15.6909 22.9621 16.139C23.1344 16.5527 23.2034 16.9835 23.1689 17.4317C23.1689 17.8798 22.9966 18.2245 22.6518 18.4658Z" fill="black"/>
</svg>
