<svg width="16" height="16" viewBox="0 0 16 16" fill="none" xmlns="http://www.w3.org/2000/svg">
<mask id="mask0_12701_67846" style="mask-type:luminance" maskUnits="userSpaceOnUse" x="0" y="0" width="16" height="16">
<path fill-rule="evenodd" clip-rule="evenodd" d="M16 4.98305C16 4.79311 16.0001 4.60315 15.9989 4.41319C15.998 4.25317 15.9961 4.09319 15.9918 3.93325C15.9824 3.58465 15.9618 3.23306 15.8998 2.88834C15.8369 2.53865 15.7343 2.2132 15.5724 1.89547C15.4134 1.58318 15.2056 1.29741 14.9577 1.04967C14.7098 0.801919 14.424 0.59427 14.1116 0.435299C13.7935 0.273455 13.4677 0.170815 13.1176 0.107961C12.7729 0.0460581 12.4212 0.0255339 12.0726 0.0161164C11.9125 0.0117864 11.7525 0.00996113 11.5924 0.00897084C11.4023 0.0078058 11.2123 0.00790288 11.0222 0.00790288L8.81547 0H7.165L4.9973 0.00790288C4.80688 0.00790288 4.61645 0.0078058 4.42603 0.00897084C4.2656 0.00996113 4.10525 0.0117864 3.94488 0.0161164C3.59547 0.0255339 3.24299 0.0460775 2.89742 0.108058C2.54687 0.170893 2.22059 0.273494 1.9021 0.435222C1.58904 0.594211 1.30257 0.801881 1.05419 1.04967C0.805839 1.29739 0.597665 1.5831 0.438307 1.89533C0.276056 2.21322 0.173183 2.53886 0.110155 2.88875C0.0480967 3.23333 0.0275338 3.5848 0.0180775 3.93325C0.0137669 4.09321 0.0119028 4.25319 0.010932 4.41319C0.00976692 4.60317 0 4.83915 0 5.02911L5.8252e-05 7.16677L0 8.83492L0.00986401 11.018C0.00986401 11.2082 0.00978634 11.3984 0.010932 11.5886C0.0119028 11.7489 0.0137669 11.9091 0.018097 12.0692C0.0275338 12.4183 0.0481356 12.7704 0.110252 13.1156C0.173261 13.4657 0.276114 13.7916 0.43823 14.1098C0.597607 14.4225 0.805819 14.7086 1.05419 14.9567C1.30255 15.2048 1.58894 15.4128 1.90195 15.572C2.22062 15.734 2.54707 15.8368 2.89782 15.8997C3.24324 15.9617 3.5956 15.9823 3.94488 15.9917C4.10525 15.996 4.26562 15.9979 4.42605 15.9989C4.61647 16 4.80688 15.9999 4.9973 15.9999L7.18459 16H8.83916L11.0222 15.9999C11.2123 15.9999 11.4023 16 11.5924 15.9989C11.7525 15.9979 11.9125 15.996 12.0726 15.9917C12.4213 15.9823 12.7731 15.9617 13.118 15.8997C13.4679 15.8367 13.7935 15.734 14.1114 15.572C14.4239 15.4128 14.7098 15.2049 14.9577 14.9567C15.2056 14.7087 15.4133 14.4226 15.5724 14.1099C15.7343 13.7916 15.837 13.4655 15.8999 13.1152C15.9618 12.7701 15.9824 12.4181 15.9918 12.0692C15.9961 11.909 15.998 11.7489 15.9989 11.5886C16.0001 11.3984 16 11.2082 16 11.018C16 11.018 15.9999 8.87346 15.9999 8.83492V7.16502C15.9999 7.13656 16 4.98305 16 4.98305" fill="white"/>
</mask>
<g mask="url(#mask0_12701_67846)">
<rect x="0.000488281" width="16" height="16" fill="url(#paint0_linear_12701_67846)"/>
<g filter="url(#filter0_f_12701_67846)">
<path d="M2.53174 5.5C2.53174 4.63705 3.23129 3.9375 4.09424 3.9375H11.9067C12.7697 3.9375 13.4692 4.63706 13.4692 5.5V14.4375C13.4692 15.3004 12.7697 16 11.9067 16H4.09424C3.23129 16 2.53174 15.3004 2.53174 14.4375V5.5Z" fill="#148BE0"/>
</g>
<path d="M2.53174 6.06738C2.53174 4.85926 3.51112 3.87988 4.71924 3.87988H11.2817C12.4899 3.87988 13.4692 4.85926 13.4692 6.06738V13.7549C13.4692 14.963 12.4899 15.9424 11.2817 15.9424H4.71924C3.51112 15.9424 2.53174 14.963 2.53174 13.7549V6.06738Z" fill="white"/>
<g filter="url(#filter1_f_12701_67846)">
<path d="M5.04736 17.9062L19.1099 17.5234L17.8524 7.85939C17.6815 6.5463 16.0571 6.02769 15.157 6.99886L5.04736 17.9062Z" fill="#148BE0"/>
</g>
<path d="M15.4575 6.43066C16.1822 5.71494 17.4121 6.12138 17.5679 7.12793L19.1069 17.0762L4.47314 17.2783L15.4575 6.43066Z" fill="url(#paint1_linear_12701_67846)" stroke="#CCE7FB" stroke-width="0.003125"/>
<g filter="url(#filter2_f_12701_67846)">
<path d="M10.7505 17.9844L-1.43701 17.5625L-1.21549 10.4474C-1.1738 9.10846 0.423049 8.43932 1.40679 9.34853L10.7505 17.9844Z" fill="#148BE0"/>
</g>
<path d="M0.61084 8.27832C-0.204505 7.5514 -1.49451 8.14821 -1.46826 9.24023L-1.27881 17.084H10.4888L0.61084 8.27832Z" fill="url(#paint2_linear_12701_67846)" stroke="#CCE7FB" stroke-width="0.003125"/>
<g filter="url(#filter3_d_12701_67846)">
<mask id="path-9-inside-1_12701_67846" fill="white">
<path d="M9.4692 6.52828C9.65226 6.34523 9.94923 6.34523 10.1323 6.52828L10.6733 7.0693C10.8564 7.25236 10.8564 7.54933 10.6733 7.73239L7.72604 10.6797C7.54298 10.8627 7.24601 10.8627 7.06295 10.6797L5.59615 9.21286C5.34229 8.959 5.21518 8.83179 5.19283 8.6777C5.18638 8.63311 5.18637 8.58752 5.19283 8.54293C5.21529 8.389 5.34254 8.26237 5.59615 8.00875C5.85001 7.75489 5.97722 7.62778 6.13131 7.60543C6.1757 7.59903 6.22071 7.59902 6.2651 7.60543C6.41919 7.62778 6.5464 7.75489 6.80026 8.00875L7.39401 8.60153L8.59713 7.39938L9.4692 6.52828Z"/>
</mask>
<path d="M9.4692 6.52828C9.65226 6.34523 9.94923 6.34523 10.1323 6.52828L10.6733 7.0693C10.8564 7.25236 10.8564 7.54933 10.6733 7.73239L7.72604 10.6797C7.54298 10.8627 7.24601 10.8627 7.06295 10.6797L5.59615 9.21286C5.34229 8.959 5.21518 8.83179 5.19283 8.6777C5.18638 8.63311 5.18637 8.58752 5.19283 8.54293C5.21529 8.389 5.34254 8.26237 5.59615 8.00875C5.85001 7.75489 5.97722 7.62778 6.13131 7.60543C6.1757 7.59903 6.22071 7.59902 6.2651 7.60543C6.41919 7.62778 6.5464 7.75489 6.80026 8.00875L7.39401 8.60153L8.59713 7.39938L9.4692 6.52828Z" fill="url(#paint3_linear_12701_67846)"/>
<path d="M9.4692 6.52828L9.47141 6.5305L9.47141 6.53049L9.4692 6.52828ZM10.6733 7.0693L10.6711 7.07151L10.6733 7.0693ZM10.6733 7.73239L10.6711 7.73018L10.6733 7.73239ZM5.59615 9.21286L5.59394 9.21506L5.59615 9.21286ZM5.19283 8.6777L5.18974 8.67815L5.18974 8.67815L5.19283 8.6777ZM5.19283 8.54293L5.18974 8.54248L5.18974 8.54248L5.19283 8.54293ZM5.59615 8.00875L5.59394 8.00654L5.59615 8.00875ZM6.13131 7.60543L6.13087 7.60234L6.13086 7.60234L6.13131 7.60543ZM6.2651 7.60543L6.26555 7.60234L6.26555 7.60234L6.2651 7.60543ZM6.80026 8.00875L6.79805 8.01096L6.79805 8.01097L6.80026 8.00875ZM7.39401 8.60153L5.59759 10.4009L7.39622 8.60374L7.39401 8.60153ZM8.59713 7.39938L8.59492 7.39717L8.59492 7.39717L8.59713 7.39938ZM9.4692 6.52828L9.47141 6.53049C9.65325 6.34866 9.94824 6.34866 10.1301 6.53049L10.1323 6.52828L10.1345 6.52608C9.95022 6.3418 9.65127 6.3418 9.46699 6.52608L9.4692 6.52828ZM10.1323 6.52828L10.1301 6.53049L10.6711 7.07151L10.6733 7.0693L10.6755 7.06709L10.1345 6.52608L10.1323 6.52828ZM10.6733 7.0693L10.6711 7.07151C10.8529 7.25335 10.8529 7.54834 10.6711 7.73018L10.6733 7.73239L10.6755 7.7346C10.8598 7.55032 10.8598 7.25137 10.6755 7.06709L10.6733 7.0693ZM10.6733 7.73239L10.6711 7.73018L7.72383 10.6774L7.72604 10.6797L7.72825 10.6819L10.6755 7.7346L10.6733 7.73239ZM7.72604 10.6797L7.72383 10.6774C7.54199 10.8593 7.247 10.8593 7.06516 10.6774L7.06295 10.6797L7.06074 10.6819C7.24502 10.8661 7.54397 10.8661 7.72825 10.6819L7.72604 10.6797ZM7.06295 10.6797L7.06516 10.6774L5.59836 9.21065L5.59615 9.21286L5.59394 9.21506L7.06074 10.6819L7.06295 10.6797ZM5.59615 9.21286L5.59836 9.21065C5.47138 9.08367 5.37629 8.98854 5.31011 8.90591C5.24398 8.82333 5.20699 8.75352 5.19593 8.67725L5.19283 8.6777L5.18974 8.67815C5.20103 8.75597 5.23876 8.82681 5.30524 8.90982C5.37167 8.99278 5.46707 9.08819 5.59394 9.21506L5.59615 9.21286ZM5.19283 8.6777L5.19593 8.67725C5.18951 8.63296 5.18951 8.58767 5.19593 8.54338L5.19283 8.54293L5.18974 8.54248C5.18323 8.58737 5.18324 8.63326 5.18974 8.67815L5.19283 8.6777ZM5.19283 8.54293L5.19593 8.54338C5.20704 8.46719 5.2441 8.39757 5.31025 8.31518C5.37644 8.23274 5.4715 8.13782 5.59836 8.01096L5.59615 8.00875L5.59394 8.00654C5.46719 8.1333 5.37183 8.2285 5.30537 8.31127C5.23888 8.39408 5.20108 8.46474 5.18974 8.54248L5.19283 8.54293ZM5.59615 8.00875L5.59836 8.01096C5.72534 7.88398 5.82047 7.78889 5.9031 7.72271C5.98568 7.65658 6.05549 7.61958 6.13176 7.60853L6.13131 7.60543L6.13086 7.60234C6.05304 7.61362 5.9822 7.65136 5.89919 7.71784C5.81623 7.78427 5.72082 7.87966 5.59394 8.00654L5.59615 8.00875ZM6.13131 7.60543L6.13176 7.60853C6.17585 7.60217 6.22056 7.60216 6.26465 7.60853L6.2651 7.60543L6.26555 7.60234C6.22086 7.59589 6.17555 7.5959 6.13087 7.60234L6.13131 7.60543ZM6.2651 7.60543L6.26465 7.60853C6.34092 7.61958 6.41073 7.65658 6.49331 7.72271C6.57594 7.78889 6.67107 7.88398 6.79805 8.01096L6.80026 8.00875L6.80247 8.00654C6.67559 7.87966 6.58018 7.78427 6.49722 7.71784C6.41421 7.65136 6.34337 7.61362 6.26555 7.60234L6.2651 7.60543ZM6.80026 8.00875L6.79805 8.01097L7.3918 8.60374L7.39401 8.60153L7.39621 8.59932L6.80246 8.00654L6.80026 8.00875ZM7.39401 8.60153L7.39622 8.60374L8.59934 7.40159L8.59713 7.39938L8.59492 7.39717L7.3918 8.59932L7.39401 8.60153ZM8.59713 7.39938L8.59934 7.40159L9.47141 6.5305L9.4692 6.52828L9.46699 6.52607L8.59492 7.39717L8.59713 7.39938Z" fill="#C1E5FF" mask="url(#path-9-inside-1_12701_67846)"/>
</g>
</g>
<defs>
<filter id="filter0_f_12701_67846" x="-0.593262" y="0.8125" width="17.1875" height="18.3125" filterUnits="userSpaceOnUse" color-interpolation-filters="sRGB">
<feFlood flood-opacity="0" result="BackgroundImageFix"/>
<feBlend mode="normal" in="SourceGraphic" in2="BackgroundImageFix" result="shape"/>
<feGaussianBlur stdDeviation="1.5625" result="effect1_foregroundBlur_12701_67846"/>
</filter>
<filter id="filter1_f_12701_67846" x="3.48486" y="4.9342" width="17.1875" height="14.5345" filterUnits="userSpaceOnUse" color-interpolation-filters="sRGB">
<feFlood flood-opacity="0" result="BackgroundImageFix"/>
<feBlend mode="normal" in="SourceGraphic" in2="BackgroundImageFix" result="shape"/>
<feGaussianBlur stdDeviation="0.78125" result="effect1_foregroundBlur_12701_67846"/>
</filter>
<filter id="filter2_f_12701_67846" x="-2.99951" y="7.36829" width="15.3125" height="12.1786" filterUnits="userSpaceOnUse" color-interpolation-filters="sRGB">
<feFlood flood-opacity="0" result="BackgroundImageFix"/>
<feBlend mode="normal" in="SourceGraphic" in2="BackgroundImageFix" result="shape"/>
<feGaussianBlur stdDeviation="0.78125" result="effect1_foregroundBlur_12701_67846"/>
</filter>
<filter id="filter3_d_12701_67846" x="4.56299" y="5.79724" width="6.87256" height="5.6759" filterUnits="userSpaceOnUse" color-interpolation-filters="sRGB">
<feFlood flood-opacity="0" result="BackgroundImageFix"/>
<feColorMatrix in="SourceAlpha" type="matrix" values="0 0 0 0 0 0 0 0 0 0 0 0 0 0 0 0 0 0 127 0" result="hardAlpha"/>
<feOffset dy="0.03125"/>
<feGaussianBlur stdDeviation="0.3125"/>
<feComposite in2="hardAlpha" operator="out"/>
<feColorMatrix type="matrix" values="0 0 0 0 0 0 0 0 0 0 0 0 0 0 0 0 0 0 0.1 0"/>
<feBlend mode="normal" in2="BackgroundImageFix" result="effect1_dropShadow_12701_67846"/>
<feBlend mode="normal" in="SourceGraphic" in2="effect1_dropShadow_12701_67846" result="shape"/>
</filter>
<linearGradient id="paint0_linear_12701_67846" x1="8.00049" y1="0" x2="8.00049" y2="6.52344" gradientUnits="userSpaceOnUse">
<stop stop-color="#6FC2FF"/>
<stop offset="1" stop-color="#1493F4"/>
</linearGradient>
<linearGradient id="paint1_linear_12701_67846" x1="1.54736" y1="17.0859" x2="17.4145" y2="17.0859" gradientUnits="userSpaceOnUse">
<stop stop-color="#ACDCFF"/>
<stop offset="1" stop-color="#81CAFF"/>
</linearGradient>
<linearGradient id="paint2_linear_12701_67846" x1="0.602049" y1="17.0937" x2="16.6411" y2="17.0937" gradientUnits="userSpaceOnUse">
<stop stop-color="#ACDCFF"/>
<stop offset="1" stop-color="#91D1FF"/>
</linearGradient>
<linearGradient id="paint3_linear_12701_67846" x1="5.61765" y1="9.57809" x2="11" y2="6.75868" gradientUnits="userSpaceOnUse">
<stop stop-color="#6FC2FF"/>
<stop offset="0.491803" stop-color="#49B1FD"/>
<stop offset="1" stop-color="#22A0FB"/>
</linearGradient>
</defs>
</svg>
