<svg width="202" height="78" viewBox="0 0 202 78" fill="none" xmlns="http://www.w3.org/2000/svg">
<rect y="0.25" width="201.75" height="77.5" rx="16.5" fill="black"/>
<path fill-rule="evenodd" clip-rule="evenodd" d="M17.0378 25.6564C17.9858 25.7484 19.2162 25.75 21 25.75C22.7838 25.75 24.0142 25.7484 24.9622 25.6564C25.887 25.5667 26.3837 25.4023 26.7451 25.1752C27.2221 24.8755 27.6255 24.4721 27.9252 23.9951C28.1523 23.6337 28.3167 23.137 28.4064 22.2122C28.4984 21.2642 28.5 20.0338 28.5 18.25C28.5 16.4662 28.4984 15.2358 28.4064 14.2878C28.3167 13.363 28.1523 12.8663 27.9252 12.5049C27.6255 12.0279 27.2221 11.6245 26.7451 11.3248C26.3837 11.0977 25.887 10.9333 24.9622 10.8436C24.0142 10.7516 22.7838 10.75 21 10.75C19.2162 10.75 17.9858 10.7516 17.0378 10.8436C16.113 10.9333 15.6163 11.0977 15.2549 11.3248C14.7779 11.6245 14.3745 12.0279 14.0748 12.5049C13.8477 12.8663 13.6833 13.363 13.5936 14.2878C13.5016 15.2358 13.5 16.4662 13.5 18.25C13.5 20.0338 13.5016 21.2642 13.5936 22.2122C13.6833 23.137 13.8477 23.6337 14.0748 23.9951C14.3745 24.4721 14.7779 24.8755 15.2549 25.1752C15.6163 25.4023 16.113 25.5667 17.0378 25.6564ZM12.8047 11.7068C12 12.9875 12 14.7417 12 18.25C12 21.7583 12 23.5125 12.8047 24.7932C13.2243 25.461 13.789 26.0257 14.4568 26.4453C15.7375 27.25 17.4917 27.25 21 27.25C24.5083 27.25 26.2625 27.25 27.5432 26.4453C28.211 26.0257 28.7757 25.461 29.1953 24.7932C30 23.5125 30 21.7583 30 18.25C30 14.7417 30 12.9875 29.1953 11.7068C28.7757 11.039 28.211 10.4743 27.5432 10.0547C26.2625 9.25 24.5083 9.25 21 9.25C17.4917 9.25 15.7375 9.25 14.4568 10.0547C13.789 10.4743 13.2243 11.039 12.8047 11.7068Z" fill="#22A0FB"/>
<path d="M36.9482 24.25V13.3409H41.3161C42.1186 13.3409 42.788 13.4599 43.3242 13.6978C43.8604 13.9357 44.2635 14.266 44.5334 14.6886C44.8033 15.1076 44.9382 15.5906 44.9382 16.1374C44.9382 16.5636 44.853 16.9382 44.6825 17.2614C44.5121 17.581 44.2777 17.8437 43.9794 18.0497C43.6847 18.2521 43.3473 18.396 42.9673 18.4812V18.5877C43.3828 18.6055 43.7717 18.7227 44.1339 18.9393C44.4996 19.1559 44.7962 19.4595 45.0234 19.8501C45.2507 20.2372 45.3643 20.6989 45.3643 21.2351C45.3643 21.8139 45.2205 22.3306 44.9329 22.7852C44.6488 23.2362 44.228 23.593 43.6705 23.8558C43.1129 24.1186 42.4258 24.25 41.609 24.25H36.9482ZM39.2546 22.3643H41.1349C41.7777 22.3643 42.2464 22.2418 42.5412 21.9968C42.8359 21.7482 42.9833 21.418 42.9833 21.006C42.9833 20.7042 42.9105 20.4379 42.7649 20.207C42.6193 19.9762 42.4116 19.7951 42.1417 19.6637C41.8754 19.5323 41.5575 19.4666 41.1882 19.4666H39.2546V22.3643ZM39.2546 17.9059H40.9645C41.2805 17.9059 41.5611 17.8509 41.8061 17.7408C42.0547 17.6271 42.25 17.4673 42.392 17.2614C42.5376 17.0554 42.6104 16.8086 42.6104 16.521C42.6104 16.1268 42.4702 15.8089 42.1896 15.5675C41.9126 15.326 41.5185 15.2053 41.0071 15.2053H39.2546V17.9059ZM50.5193 24.4098C49.6919 24.4098 48.9763 24.234 48.3726 23.8825C47.7725 23.5273 47.309 23.0337 46.9823 22.4016C46.6556 21.766 46.4923 21.0291 46.4923 20.1911C46.4923 19.3459 46.6556 18.6072 46.9823 17.9751C47.309 17.3395 47.7725 16.8459 48.3726 16.4943C48.9763 16.1392 49.6919 15.9616 50.5193 15.9616C51.3467 15.9616 52.0605 16.1392 52.6606 16.4943C53.2643 16.8459 53.7295 17.3395 54.0562 17.9751C54.3829 18.6072 54.5463 19.3459 54.5463 20.1911C54.5463 21.0291 54.3829 21.766 54.0562 22.4016C53.7295 23.0337 53.2643 23.5273 52.6606 23.8825C52.0605 24.234 51.3467 24.4098 50.5193 24.4098ZM50.5299 22.652C50.9063 22.652 51.2206 22.5455 51.4727 22.3324C51.7249 22.1158 51.9149 21.821 52.0427 21.4482C52.1741 21.0753 52.2398 20.6509 52.2398 20.1751C52.2398 19.6992 52.1741 19.2749 52.0427 18.902C51.9149 18.5291 51.7249 18.2344 51.4727 18.0178C51.2206 17.8011 50.9063 17.6928 50.5299 17.6928C50.1499 17.6928 49.8303 17.8011 49.5711 18.0178C49.3154 18.2344 49.1219 18.5291 48.9905 18.902C48.8627 19.2749 48.7987 19.6992 48.7987 20.1751C48.7987 20.6509 48.8627 21.0753 48.9905 21.4482C49.1219 21.821 49.3154 22.1158 49.5711 22.3324C49.8303 22.5455 50.1499 22.652 50.5299 22.652ZM59.7185 24.4098C58.8911 24.4098 58.1755 24.234 57.5718 23.8825C56.9717 23.5273 56.5083 23.0337 56.1816 22.4016C55.8548 21.766 55.6915 21.0291 55.6915 20.1911C55.6915 19.3459 55.8548 18.6072 56.1816 17.9751C56.5083 17.3395 56.9717 16.8459 57.5718 16.4943C58.1755 16.1392 58.8911 15.9616 59.7185 15.9616C60.5459 15.9616 61.2597 16.1392 61.8598 16.4943C62.4635 16.8459 62.9287 17.3395 63.2554 17.9751C63.5821 18.6072 63.7455 19.3459 63.7455 20.1911C63.7455 21.0291 63.5821 21.766 63.2554 22.4016C62.9287 23.0337 62.4635 23.5273 61.8598 23.8825C61.2597 24.234 60.5459 24.4098 59.7185 24.4098ZM59.7291 22.652C60.1056 22.652 60.4198 22.5455 60.672 22.3324C60.9241 22.1158 61.1141 21.821 61.2419 21.4482C61.3733 21.0753 61.439 20.6509 61.439 20.1751C61.439 19.6992 61.3733 19.2749 61.2419 18.902C61.1141 18.5291 60.9241 18.2344 60.672 18.0178C60.4198 17.8011 60.1056 17.6928 59.7291 17.6928C59.3492 17.6928 59.0296 17.8011 58.7703 18.0178C58.5146 18.2344 58.3211 18.5291 58.1897 18.902C58.0619 19.2749 57.998 19.6992 57.998 20.1751C57.998 20.6509 58.0619 21.0753 58.1897 21.4482C58.3211 21.821 58.5146 22.1158 58.7703 22.3324C59.0296 22.5455 59.3492 22.652 59.7291 22.652ZM67.2771 21.8956L67.2824 19.1737H67.6127L70.2334 16.0682H72.8382L69.3172 20.1804H68.7792L67.2771 21.8956ZM65.221 24.25V13.3409H67.4901V24.25H65.221ZM70.3346 24.25L67.9269 20.6864L69.4397 19.0831L72.9926 24.25H70.3346ZM79.3461 24.25H76.8745L80.6404 13.3409H83.6127L87.3734 24.25H84.9018L82.1692 15.8338H82.084L79.3461 24.25ZM79.1916 19.962H85.0297V21.7624H79.1916V19.962ZM88.6878 24.25V16.0682H90.9569V24.25H88.6878ZM89.8277 15.0135C89.4903 15.0135 89.2009 14.9016 88.9594 14.6779C88.7215 14.4506 88.6025 14.179 88.6025 13.8629C88.6025 13.5504 88.7215 13.2823 88.9594 13.0586C89.2009 12.8313 89.4903 12.7177 89.8277 12.7177C90.165 12.7177 90.4527 12.8313 90.6906 13.0586C90.9321 13.2823 91.0528 13.5504 91.0528 13.8629C91.0528 14.179 90.9321 14.4506 90.6906 14.6779C90.4527 14.9016 90.165 15.0135 89.8277 15.0135ZM92.7747 24.25V16.0682H94.9746V17.4957H95.0598C95.209 16.9879 95.4593 16.6044 95.8109 16.3452C96.1625 16.0824 96.5673 15.951 97.0254 15.951C97.139 15.951 97.2615 15.9581 97.3929 15.9723C97.5243 15.9865 97.6397 16.006 97.7392 16.0309V18.0444C97.6326 18.0124 97.4853 17.984 97.2971 17.9592C97.1088 17.9343 96.9366 17.9219 96.7804 17.9219C96.4466 17.9219 96.1483 17.9947 95.8855 18.1403C95.6262 18.2823 95.4203 18.4812 95.2676 18.7369C95.1184 18.9925 95.0439 19.2873 95.0439 19.6211V24.25H92.7747ZM98.955 24.25V13.3409H101.224V17.4425H101.293C101.393 17.2223 101.537 16.9986 101.725 16.7713C101.917 16.5405 102.165 16.3487 102.471 16.196C102.78 16.0398 103.163 15.9616 103.621 15.9616C104.218 15.9616 104.768 16.1179 105.272 16.4304C105.777 16.7393 106.18 17.2063 106.482 17.8313C106.783 18.4528 106.934 19.2322 106.934 20.1697C106.934 21.0824 106.787 21.853 106.492 22.4815C106.201 23.1065 105.803 23.5806 105.299 23.9038C104.798 24.2234 104.237 24.3832 103.616 24.3832C103.176 24.3832 102.801 24.3104 102.492 24.1648C102.187 24.0192 101.936 23.8363 101.741 23.6161C101.546 23.3924 101.396 23.1669 101.293 22.9396H101.192V24.25H98.955ZM101.176 20.1591C101.176 20.6456 101.244 21.07 101.379 21.4322C101.514 21.7944 101.709 22.0767 101.965 22.2791C102.22 22.478 102.531 22.5774 102.897 22.5774C103.266 22.5774 103.579 22.4762 103.834 22.2738C104.09 22.0678 104.283 21.7837 104.415 21.4215C104.55 21.0558 104.617 20.6349 104.617 20.1591C104.617 19.6868 104.552 19.2713 104.42 18.9126C104.289 18.554 104.095 18.2734 103.84 18.071C103.584 17.8686 103.27 17.7674 102.897 17.7674C102.527 17.7674 102.215 17.8651 101.959 18.0604C101.707 18.2557 101.514 18.5327 101.379 18.8913C101.244 19.25 101.176 19.6726 101.176 20.1591ZM110.718 19.5199V24.25H108.449V16.0682H110.611V17.5117H110.707C110.888 17.0359 111.192 16.6594 111.618 16.3825C112.044 16.1019 112.561 15.9616 113.168 15.9616C113.736 15.9616 114.232 16.0859 114.654 16.3345C115.077 16.5831 115.405 16.9382 115.64 17.3999C115.874 17.858 115.991 18.4048 115.991 19.0405V24.25H113.722V19.4453C113.725 18.9446 113.598 18.554 113.338 18.2734C113.079 17.9893 112.722 17.8473 112.268 17.8473C111.962 17.8473 111.692 17.913 111.458 18.0444C111.227 18.1758 111.046 18.3675 110.915 18.6197C110.787 18.8683 110.721 19.1683 110.718 19.5199ZM117.822 24.25V13.3409H120.091V17.4425H120.161C120.26 17.2223 120.404 16.9986 120.592 16.7713C120.784 16.5405 121.032 16.3487 121.338 16.196C121.647 16.0398 122.03 15.9616 122.488 15.9616C123.085 15.9616 123.635 16.1179 124.14 16.4304C124.644 16.7393 125.047 17.2063 125.349 17.8313C125.651 18.4528 125.802 19.2322 125.802 20.1697C125.802 21.0824 125.654 21.853 125.359 22.4815C125.068 23.1065 124.671 23.5806 124.166 23.9038C123.666 24.2234 123.104 24.3832 122.483 24.3832C122.043 24.3832 121.668 24.3104 121.359 24.1648C121.054 24.0192 120.803 23.8363 120.608 23.6161C120.413 23.3924 120.264 23.1669 120.161 22.9396H120.059V24.25H117.822ZM120.043 20.1591C120.043 20.6456 120.111 21.07 120.246 21.4322C120.381 21.7944 120.576 22.0767 120.832 22.2791C121.087 22.478 121.398 22.5774 121.764 22.5774C122.133 22.5774 122.446 22.4762 122.701 22.2738C122.957 22.0678 123.151 21.7837 123.282 21.4215C123.417 21.0558 123.484 20.6349 123.484 20.1591C123.484 19.6868 123.419 19.2713 123.287 18.9126C123.156 18.554 122.962 18.2734 122.707 18.071C122.451 17.8686 122.137 17.7674 121.764 17.7674C121.395 17.7674 121.082 17.8651 120.826 18.0604C120.574 18.2557 120.381 18.5327 120.246 18.8913C120.111 19.25 120.043 19.6726 120.043 20.1591ZM135.187 16.0682V17.7727H130.138V16.0682H135.187ZM131.293 24.25V15.4769C131.293 14.8839 131.409 14.392 131.64 14.0014C131.874 13.6108 132.194 13.3178 132.598 13.1225C133.003 12.9272 133.463 12.8295 133.978 12.8295C134.326 12.8295 134.644 12.8562 134.932 12.9094C135.223 12.9627 135.439 13.0107 135.581 13.0533L135.177 14.7578C135.088 14.7294 134.978 14.7028 134.846 14.6779C134.718 14.6531 134.587 14.6406 134.452 14.6406C134.118 14.6406 133.886 14.7188 133.754 14.875C133.623 15.0277 133.557 15.2425 133.557 15.5195V24.25H131.293ZM139.977 24.4098C139.15 24.4098 138.434 24.234 137.831 23.8825C137.23 23.5273 136.767 23.0337 136.44 22.4016C136.114 21.766 135.95 21.0291 135.95 20.1911C135.95 19.3459 136.114 18.6072 136.44 17.9751C136.767 17.3395 137.23 16.8459 137.831 16.4943C138.434 16.1392 139.15 15.9616 139.977 15.9616C140.805 15.9616 141.518 16.1392 142.119 16.4943C142.722 16.8459 143.188 17.3395 143.514 17.9751C143.841 18.6072 144.004 19.3459 144.004 20.1911C144.004 21.0291 143.841 21.766 143.514 22.4016C143.188 23.0337 142.722 23.5273 142.119 23.8825C141.518 24.234 140.805 24.4098 139.977 24.4098ZM139.988 22.652C140.364 22.652 140.679 22.5455 140.931 22.3324C141.183 22.1158 141.373 21.821 141.501 21.4482C141.632 21.0753 141.698 20.6509 141.698 20.1751C141.698 19.6992 141.632 19.2749 141.501 18.902C141.373 18.5291 141.183 18.2344 140.931 18.0178C140.679 17.8011 140.364 17.6928 139.988 17.6928C139.608 17.6928 139.288 17.8011 139.029 18.0178C138.773 18.2344 138.58 18.5291 138.449 18.902C138.321 19.2749 138.257 19.6992 138.257 20.1751C138.257 20.6509 138.321 21.0753 138.449 21.4482C138.58 21.821 138.773 22.1158 139.029 22.3324C139.288 22.5455 139.608 22.652 139.988 22.652ZM145.48 24.25V16.0682H147.68V17.4957H147.765C147.914 16.9879 148.164 16.6044 148.516 16.3452C148.868 16.0824 149.272 15.951 149.73 15.951C149.844 15.951 149.967 15.9581 150.098 15.9723C150.229 15.9865 150.345 16.006 150.444 16.0309V18.0444C150.338 18.0124 150.19 17.984 150.002 17.9592C149.814 17.9343 149.642 17.9219 149.485 17.9219C149.152 17.9219 148.853 17.9947 148.591 18.1403C148.331 18.2823 148.125 18.4812 147.973 18.7369C147.824 18.9925 147.749 19.2873 147.749 19.6211V24.25H145.48ZM155.132 24.25V13.3409H157.438V22.3484H162.115V24.25H155.132ZM165.933 24.4045C165.411 24.4045 164.946 24.3139 164.537 24.1328C164.129 23.9482 163.806 23.6765 163.568 23.3178C163.334 22.9556 163.216 22.5046 163.216 21.9648C163.216 21.5103 163.3 21.1286 163.467 20.8196C163.634 20.5107 163.861 20.2621 164.149 20.0739C164.436 19.8857 164.763 19.7436 165.129 19.6477C165.498 19.5518 165.885 19.4844 166.29 19.4453C166.766 19.3956 167.149 19.3494 167.44 19.3068C167.732 19.2607 167.943 19.1932 168.074 19.1044C168.206 19.0156 168.271 18.8842 168.271 18.7102V18.6783C168.271 18.3409 168.165 18.0799 167.952 17.8952C167.742 17.7106 167.444 17.6183 167.057 17.6183C166.649 17.6183 166.324 17.7088 166.082 17.8899C165.841 18.0675 165.681 18.2912 165.603 18.5611L163.504 18.3906C163.611 17.8935 163.82 17.4638 164.133 17.1016C164.445 16.7358 164.848 16.4553 165.342 16.2599C165.839 16.0611 166.414 15.9616 167.068 15.9616C167.522 15.9616 167.957 16.0149 168.373 16.1214C168.792 16.228 169.163 16.3931 169.486 16.6168C169.813 16.8406 170.07 17.1282 170.258 17.4798C170.446 17.8278 170.541 18.245 170.541 18.7315V24.25H168.389V23.1154H168.325C168.193 23.3711 168.017 23.5966 167.797 23.7919C167.577 23.9837 167.313 24.1346 167.004 24.2447C166.695 24.3512 166.338 24.4045 165.933 24.4045ZM166.583 22.8384C166.917 22.8384 167.211 22.7727 167.467 22.6413C167.723 22.5064 167.923 22.3253 168.069 22.098C168.215 21.8707 168.287 21.6133 168.287 21.3256V20.4574C168.216 20.5036 168.119 20.5462 167.994 20.5852C167.874 20.6207 167.737 20.6545 167.584 20.6864C167.432 20.7148 167.279 20.7415 167.126 20.7663C166.973 20.7876 166.835 20.8072 166.711 20.8249C166.444 20.864 166.212 20.9261 166.013 21.0114C165.814 21.0966 165.66 21.212 165.549 21.3576C165.439 21.4996 165.384 21.6772 165.384 21.8903C165.384 22.1992 165.496 22.4354 165.72 22.5987C165.947 22.7585 166.235 22.8384 166.583 22.8384ZM174.357 21.8956L174.362 19.1737H174.693L177.313 16.0682H179.918L176.397 20.1804H175.859L174.357 21.8956ZM172.301 24.25V13.3409H174.57V24.25H172.301ZM177.415 24.25L175.007 20.6864L176.52 19.0831L180.073 24.25H177.415ZM184.423 24.4098C183.582 24.4098 182.857 24.2393 182.25 23.8984C181.646 23.554 181.181 23.0675 180.854 22.4389C180.528 21.8068 180.364 21.0593 180.364 20.1964C180.364 19.3548 180.528 18.6161 180.854 17.9805C181.181 17.3448 181.641 16.8494 182.234 16.4943C182.831 16.1392 183.53 15.9616 184.333 15.9616C184.873 15.9616 185.375 16.0487 185.84 16.2227C186.309 16.3931 186.717 16.6506 187.065 16.995C187.417 17.3395 187.69 17.7727 187.886 18.2947C188.081 18.8132 188.179 19.4205 188.179 20.1165V20.7397H181.27V19.3335H186.043C186.043 19.0067 185.972 18.7173 185.83 18.4652C185.688 18.2131 185.49 18.016 185.238 17.8739C184.99 17.7283 184.7 17.6555 184.37 17.6555C184.026 17.6555 183.72 17.7354 183.454 17.8952C183.191 18.0515 182.985 18.2628 182.836 18.5291C182.687 18.7919 182.61 19.0849 182.607 19.408V20.745C182.607 21.1499 182.681 21.4996 182.831 21.7944C182.983 22.0891 183.198 22.3164 183.475 22.4762C183.752 22.636 184.081 22.7159 184.461 22.7159C184.713 22.7159 184.944 22.6804 185.153 22.6094C185.363 22.5384 185.542 22.4318 185.691 22.2898C185.84 22.1477 185.954 21.9737 186.032 21.7678L188.131 21.9062C188.024 22.4105 187.806 22.8509 187.475 23.2273C187.149 23.6001 186.726 23.8913 186.208 24.1009C185.693 24.3068 185.098 24.4098 184.423 24.4098ZM36.5327 35.2425V33.3409H45.4922V35.2425H42.1523V44.25H39.8725V35.2425H36.5327ZM48.1449 44.4045C47.6229 44.4045 47.1577 44.3139 46.7493 44.1328C46.3409 43.9482 46.0178 43.6765 45.7798 43.3178C45.5455 42.9556 45.4283 42.5046 45.4283 41.9648C45.4283 41.5103 45.5117 41.1286 45.6786 40.8196C45.8455 40.5107 46.0728 40.2621 46.3604 40.0739C46.6481 39.8857 46.9748 39.7436 47.3406 39.6477C47.7099 39.5518 48.0969 39.4844 48.5018 39.4453C48.9776 39.3956 49.3612 39.3494 49.6523 39.3068C49.9435 39.2607 50.1548 39.1932 50.2862 39.1044C50.4176 39.0156 50.4833 38.8842 50.4833 38.7102V38.6783C50.4833 38.3409 50.3768 38.0799 50.1637 37.8952C49.9542 37.7106 49.6559 37.6183 49.2688 37.6183C48.8604 37.6183 48.5355 37.7088 48.294 37.8899C48.0526 38.0675 47.8928 38.2912 47.8146 38.5611L45.7159 38.3906C45.8224 37.8935 46.032 37.4638 46.3445 37.1016C46.657 36.7358 47.06 36.4553 47.5536 36.2599C48.0508 36.0611 48.6261 35.9616 49.2795 35.9616C49.734 35.9616 50.169 36.0149 50.5845 36.1214C51.0036 36.228 51.3746 36.3931 51.6978 36.6168C52.0245 36.8406 52.282 37.1282 52.4702 37.4798C52.6584 37.8278 52.7525 38.245 52.7525 38.7315V44.25H50.6005V43.1154H50.5366C50.4052 43.3711 50.2294 43.5966 50.0092 43.7919C49.7891 43.9837 49.5245 44.1346 49.2156 44.2447C48.9066 44.3512 48.5497 44.4045 48.1449 44.4045ZM48.7947 42.8384C49.1286 42.8384 49.4233 42.7727 49.679 42.6413C49.9347 42.5064 50.1353 42.3253 50.2809 42.098C50.4265 41.8707 50.4993 41.6133 50.4993 41.3256V40.4574C50.4283 40.5036 50.3306 40.5462 50.2063 40.5852C50.0856 40.6207 49.9489 40.6545 49.7962 40.6864C49.6435 40.7148 49.4908 40.7415 49.3381 40.7663C49.1854 40.7876 49.0469 40.8072 48.9226 40.8249C48.6563 40.864 48.4237 40.9261 48.2248 41.0114C48.0259 41.0966 47.8714 41.212 47.7614 41.3576C47.6513 41.4996 47.5962 41.6772 47.5962 41.8903C47.5962 42.1992 47.7081 42.4354 47.9318 42.5987C48.1591 42.7585 48.4467 42.8384 48.7947 42.8384ZM56.7821 39.5199V44.25H54.513V33.3409H56.7182V37.5117H56.8141C56.9988 37.0288 57.2971 36.6506 57.709 36.3771C58.1209 36.1001 58.6376 35.9616 59.2591 35.9616C59.8272 35.9616 60.3226 36.0859 60.7452 36.3345C61.1713 36.5795 61.5016 36.9329 61.736 37.3945C61.9739 37.8526 62.0911 38.4013 62.0875 39.0405V44.25H59.8184V39.4453C59.8219 38.9411 59.6941 38.5487 59.4348 38.2681C59.1792 37.9876 58.8205 37.8473 58.3588 37.8473C58.0499 37.8473 57.7765 37.913 57.5385 38.0444C57.3042 38.1758 57.1195 38.3675 56.9846 38.6197C56.8532 38.8683 56.7857 39.1683 56.7821 39.5199ZM67.57 44.4098C66.7426 44.4098 66.0271 44.234 65.4234 43.8825C64.8232 43.5273 64.3598 43.0337 64.0331 42.4016C63.7064 41.766 63.5431 41.0291 63.5431 40.1911C63.5431 39.3459 63.7064 38.6072 64.0331 37.9751C64.3598 37.3395 64.8232 36.8459 65.4234 36.4943C66.0271 36.1392 66.7426 35.9616 67.57 35.9616C68.3975 35.9616 69.1112 36.1392 69.7114 36.4943C70.3151 36.8459 70.7803 37.3395 71.107 37.9751C71.4337 38.6072 71.597 39.3459 71.597 40.1911C71.597 41.0291 71.4337 41.766 71.107 42.4016C70.7803 43.0337 70.3151 43.5273 69.7114 43.8825C69.1112 44.234 68.3975 44.4098 67.57 44.4098ZM67.5807 42.652C67.9571 42.652 68.2714 42.5455 68.5235 42.3324C68.7757 42.1158 68.9656 41.821 69.0935 41.4482C69.2249 41.0753 69.2906 40.6509 69.2906 40.1751C69.2906 39.6992 69.2249 39.2749 69.0935 38.902C68.9656 38.5291 68.7757 38.2344 68.5235 38.0178C68.2714 37.8011 67.9571 37.6928 67.5807 37.6928C67.2007 37.6928 66.8811 37.8011 66.6219 38.0178C66.3662 38.2344 66.1727 38.5291 66.0413 38.902C65.9134 39.2749 65.8495 39.6992 65.8495 40.1751C65.8495 40.6509 65.9134 41.0753 66.0413 41.4482C66.1727 41.821 66.3662 42.1158 66.6219 42.3324C66.8811 42.5455 67.2007 42.652 67.5807 42.652ZM76.8012 44.4098C75.9596 44.4098 75.2352 44.2393 74.6279 43.8984C74.0242 43.554 73.559 43.0675 73.2323 42.4389C72.9056 41.8068 72.7423 41.0593 72.7423 40.1964C72.7423 39.3548 72.9056 38.6161 73.2323 37.9805C73.559 37.3448 74.0189 36.8494 74.6119 36.4943C75.2085 36.1392 75.9081 35.9616 76.7107 35.9616C77.2504 35.9616 77.7529 36.0487 78.2181 36.2227C78.6869 36.3931 79.0953 36.6506 79.4433 36.995C79.7948 37.3395 80.0683 37.7727 80.2636 38.2947C80.4589 38.8132 80.5566 39.4205 80.5566 40.1165V40.7397H73.6478V39.3335H78.4205C78.4205 39.0067 78.3495 38.7173 78.2075 38.4652C78.0654 38.2131 77.8683 38.016 77.6162 37.8739C77.3676 37.7283 77.0782 37.6555 76.748 37.6555C76.4035 37.6555 76.0981 37.7354 75.8318 37.8952C75.569 38.0515 75.363 38.2628 75.2139 38.5291C75.0647 38.7919 74.9884 39.0849 74.9848 39.408V40.745C74.9848 41.1499 75.0594 41.4996 75.2085 41.7944C75.3612 42.0891 75.5761 42.3164 75.8531 42.4762C76.1301 42.636 76.4585 42.7159 76.8385 42.7159C77.0906 42.7159 77.3215 42.6804 77.531 42.6094C77.7405 42.5384 77.9198 42.4318 78.069 42.2898C78.2181 42.1477 78.3318 41.9737 78.4099 41.7678L80.5086 41.9062C80.4021 42.4105 80.1837 42.8509 79.8534 43.2273C79.5267 43.6001 79.1041 43.8913 78.5857 44.1009C78.0708 44.3068 77.4759 44.4098 76.8012 44.4098ZM89.861 36.0682V37.7727H84.9338V36.0682H89.861ZM86.0524 34.108H88.3216V41.7358C88.3216 41.9453 88.3535 42.1087 88.4174 42.2259C88.4814 42.3395 88.5701 42.4194 88.6838 42.4656C88.801 42.5117 88.9359 42.5348 89.0886 42.5348C89.1951 42.5348 89.3017 42.5259 89.4082 42.5082C89.5147 42.4869 89.5964 42.4709 89.6532 42.4602L90.0101 44.1488C89.8965 44.1843 89.7367 44.2251 89.5307 44.2713C89.3248 44.321 89.0744 44.3512 88.7797 44.3619C88.2328 44.3832 87.7534 44.3104 87.3414 44.1435C86.9331 43.9766 86.6152 43.7173 86.388 43.3658C86.1607 43.0142 86.0488 42.5703 86.0524 42.0341V34.108ZM91.3391 44.25V36.0682H93.5391V37.4957H93.6243C93.7734 36.9879 94.0238 36.6044 94.3754 36.3452C94.7269 36.0824 95.1317 35.951 95.5898 35.951C95.7035 35.951 95.826 35.9581 95.9574 35.9723C96.0888 35.9865 96.2042 36.006 96.3036 36.0309V38.0444C96.1971 38.0124 96.0497 37.984 95.8615 37.9592C95.6733 37.9343 95.5011 37.9219 95.3448 37.9219C95.011 37.9219 94.7127 37.9947 94.4499 38.1403C94.1907 38.2823 93.9847 38.4812 93.832 38.7369C93.6829 38.9925 93.6083 39.2873 93.6083 39.6211V44.25H91.3391ZM97.4768 44.25V36.0682H99.746V44.25H97.4768ZM98.6167 35.0135C98.2794 35.0135 97.99 34.9016 97.7485 34.6779C97.5106 34.4506 97.3916 34.179 97.3916 33.8629C97.3916 33.5504 97.5106 33.2823 97.7485 33.0586C97.99 32.8313 98.2794 32.7177 98.6167 32.7177C98.9541 32.7177 99.2417 32.8313 99.4797 33.0586C99.7211 33.2823 99.8419 33.5504 99.8419 33.8629C99.8419 34.179 99.7211 34.4506 99.4797 34.6779C99.2417 34.9016 98.9541 35.0135 98.6167 35.0135ZM101.564 47.3182V36.0682H103.801V37.4425H103.902C104.002 37.2223 104.145 36.9986 104.334 36.7713C104.525 36.5405 104.774 36.3487 105.079 36.196C105.388 36.0398 105.772 35.9616 106.23 35.9616C106.827 35.9616 107.377 36.1179 107.881 36.4304C108.385 36.7393 108.789 37.2063 109.09 37.8313C109.392 38.4528 109.543 39.2322 109.543 40.1697C109.543 41.0824 109.396 41.853 109.101 42.4815C108.81 43.1065 108.412 43.5806 107.908 43.9038C107.407 44.2234 106.846 44.3832 106.225 44.3832C105.784 44.3832 105.41 44.3104 105.101 44.1648C104.795 44.0192 104.545 43.8363 104.35 43.6161C104.154 43.3924 104.005 43.1669 103.902 42.9396H103.833V47.3182H101.564ZM103.785 40.1591C103.785 40.6456 103.852 41.07 103.987 41.4322C104.122 41.7944 104.318 42.0767 104.573 42.2791C104.829 42.478 105.14 42.5774 105.506 42.5774C105.875 42.5774 106.187 42.4762 106.443 42.2738C106.699 42.0678 106.892 41.7837 107.024 41.4215C107.159 41.0558 107.226 40.6349 107.226 40.1591C107.226 39.6868 107.16 39.2713 107.029 38.9126C106.898 38.554 106.704 38.2734 106.448 38.071C106.193 37.8686 105.878 37.7674 105.506 37.7674C105.136 37.7674 104.824 37.8651 104.568 38.0604C104.316 38.2557 104.122 38.5327 103.987 38.8913C103.852 39.25 103.785 39.6726 103.785 40.1591Z" fill="white"/>
<path d="M40.8947 54.9318H42.3713V61.8928C42.3713 62.5224 42.2466 63.0609 41.9973 63.5083C41.7512 63.9558 41.4045 64.2978 40.957 64.5343C40.5096 64.7676 39.9854 64.8842 39.3846 64.8842C38.8317 64.8842 38.3347 64.7836 37.8936 64.5822C37.4558 64.3809 37.109 64.0884 36.8533 63.7049C36.6009 63.3182 36.4746 62.8484 36.4746 62.2955H37.9464C37.9464 62.5671 38.0087 62.802 38.1333 63.0002C38.2612 63.1983 38.4354 63.3533 38.6559 63.4652C38.8796 63.5739 39.1353 63.6282 39.4229 63.6282C39.7362 63.6282 40.0014 63.5627 40.2188 63.4316C40.4393 63.2974 40.6071 63.1009 40.7221 62.842C40.8372 62.5831 40.8947 62.2667 40.8947 61.8928V54.9318ZM48.9269 61.6962V57.3864H50.3651V64.75H48.9557V63.4748H48.879C48.7096 63.8679 48.4379 64.1955 48.064 64.4576C47.6933 64.7164 47.2314 64.8459 46.6785 64.8459C46.2055 64.8459 45.7868 64.742 45.4225 64.5343C45.0613 64.3233 44.7769 64.0117 44.5691 63.5994C44.3646 63.1871 44.2623 62.6774 44.2623 62.0701V57.3864H45.6957V61.8975C45.6957 62.3993 45.8348 62.7988 46.1128 63.0961C46.3909 63.3933 46.752 63.5419 47.1963 63.5419C47.4647 63.5419 47.7316 63.4748 47.9969 63.3406C48.2653 63.2063 48.4875 63.0034 48.6633 62.7317C48.8422 62.46 48.9301 62.1149 48.9269 61.6962ZM53.5746 60.3778V64.75H52.1411V57.3864H53.517V58.5849H53.6081C53.7775 58.195 54.0428 57.8817 54.4039 57.6452C54.7683 57.4087 55.2269 57.2905 55.7798 57.2905C56.2816 57.2905 56.721 57.396 57.0982 57.6069C57.4753 57.8146 57.7677 58.1246 57.9755 58.5369C58.1832 58.9492 58.2871 59.459 58.2871 60.0662V64.75H56.8537V60.2388C56.8537 59.7051 56.7146 59.288 56.4366 58.9876C56.1585 58.6839 55.7766 58.5321 55.2908 58.5321C54.9584 58.5321 54.6628 58.604 54.4039 58.7479C54.1482 58.8917 53.9453 59.1026 53.7951 59.3807C53.6481 59.6555 53.5746 59.9879 53.5746 60.3778ZM63.2331 64.8986C62.5077 64.8986 61.8828 64.7436 61.3587 64.4336C60.8377 64.1204 60.435 63.6809 60.1506 63.1152C59.8693 62.5463 59.7287 61.88 59.7287 61.1161C59.7287 60.3619 59.8693 59.6971 60.1506 59.1218C60.435 58.5465 60.8313 58.0975 61.3395 57.7747C61.8509 57.4519 62.4485 57.2905 63.1325 57.2905C63.548 57.2905 63.9507 57.3592 64.3406 57.4966C64.7305 57.6341 65.0805 57.8498 65.3905 58.1438C65.7005 58.4379 65.945 58.8198 66.124 59.2896C66.3029 59.7562 66.3924 60.3235 66.3924 60.9915V61.4996H60.5389V60.4258H64.9878C64.9878 60.0487 64.9111 59.7147 64.7577 59.4238C64.6042 59.1298 64.3885 58.8981 64.1105 58.7287C63.8356 58.5593 63.5128 58.4746 63.1421 58.4746C62.7394 58.4746 62.3878 58.5737 62.0874 58.7718C61.7901 58.9668 61.56 59.2225 61.397 59.5389C61.2372 59.8521 61.1573 60.1925 61.1573 60.56V61.399C61.1573 61.8912 61.2436 62.3098 61.4162 62.655C61.592 63.0002 61.8365 63.2638 62.1497 63.446C62.4629 63.625 62.8289 63.7145 63.2475 63.7145C63.5192 63.7145 63.7669 63.6761 63.9906 63.5994C64.2143 63.5195 64.4077 63.4013 64.5707 63.2447C64.7337 63.0881 64.8583 62.8947 64.9446 62.6646L66.3013 62.9091C66.1927 63.3086 65.9977 63.6586 65.7165 63.959C65.4384 64.2562 65.0884 64.4879 64.6666 64.6541C64.2479 64.8171 63.7701 64.8986 63.2331 64.8986ZM71.2364 64.75V63.6761L74.5587 60.234C74.9134 59.8601 75.2059 59.5325 75.436 59.2512C75.6693 58.9668 75.8435 58.6967 75.9585 58.4411C76.0736 58.1854 76.1311 57.9137 76.1311 57.6261C76.1311 57.3001 76.0544 57.0188 75.901 56.7823C75.7476 56.5426 75.5383 56.3588 75.273 56.231C75.0077 56.1 74.7089 56.0344 74.3765 56.0344C74.0249 56.0344 73.7181 56.1064 73.4561 56.2502C73.194 56.394 72.9926 56.5969 72.852 56.859C72.7114 57.1211 72.6411 57.4279 72.6411 57.7795H71.2268C71.2268 57.1818 71.3643 56.6593 71.6391 56.2118C71.914 55.7644 72.2911 55.4176 72.7705 55.1715C73.2499 54.9222 73.7948 54.7976 74.4053 54.7976C75.0221 54.7976 75.5654 54.9206 76.0352 55.1667C76.5083 55.4096 76.8774 55.742 77.1427 56.1639C77.4079 56.5826 77.5406 57.0556 77.5406 57.5829C77.5406 57.9473 77.4719 58.3036 77.3344 58.652C77.2002 59.0004 76.9653 59.3887 76.6297 59.8169C76.2941 60.242 75.8275 60.7582 75.2298 61.3654L73.2787 63.4077V63.4796H77.6988V64.75H71.2364ZM78.9486 62.8324V61.6339L83.1914 54.9318H84.1358V56.696H83.5365L80.5019 61.4996V61.5763H86.3171V62.8324H78.9486ZM83.6036 64.75V62.468L83.6132 61.9215V54.9318H85.0179V64.75H83.6036ZM89.3527 63.4077L89.2808 63.9302C89.2328 64.3137 89.1514 64.7132 89.0363 65.1287C88.9244 65.5474 88.8078 65.9357 88.6863 66.2937C88.5681 66.6516 88.4706 66.9361 88.3939 67.147H87.3776C87.4191 66.9489 87.4766 66.6804 87.5501 66.3416C87.6237 66.006 87.6956 65.6305 87.7659 65.215C87.8362 64.7995 87.8889 64.3761 87.9241 63.9446L87.972 63.4077H89.3527ZM97.8905 64.8842C97.2321 64.8842 96.6441 64.7708 96.1263 64.5439C95.6117 64.3169 95.2042 64.0021 94.9038 63.5994C94.6066 63.1935 94.4468 62.7237 94.4244 62.19H95.9297C95.9489 62.4808 96.0464 62.7333 96.2222 62.9474C96.4012 63.1584 96.6345 63.3214 96.9221 63.4364C97.2097 63.5515 97.5294 63.609 97.8809 63.609C98.2676 63.609 98.6096 63.5419 98.9068 63.4077C99.2073 63.2734 99.4422 63.0865 99.6116 62.8468C99.7809 62.6039 99.8656 62.3242 99.8656 62.0078C99.8656 61.6786 99.7809 61.3894 99.6116 61.1401C99.4454 60.8876 99.2009 60.6895 98.8781 60.5456C98.5585 60.4018 98.1718 60.3299 97.7179 60.3299H96.8885V59.1218H97.7179C98.0823 59.1218 98.4019 59.0563 98.6767 58.9252C98.9548 58.7942 99.1721 58.612 99.3287 58.3787C99.4853 58.1422 99.5636 57.8658 99.5636 57.5494C99.5636 57.2457 99.4949 56.9821 99.3575 56.7583C99.2232 56.5314 99.0315 56.354 98.7822 56.2262C98.5361 56.0984 98.2453 56.0344 97.9097 56.0344C97.5901 56.0344 97.2912 56.0936 97.0132 56.2118C96.7383 56.3269 96.5146 56.4931 96.342 56.7104C96.1694 56.9245 96.0768 57.1818 96.064 57.4822H94.6306C94.6465 56.9517 94.8031 56.4851 95.1004 56.0824C95.4008 55.6797 95.7971 55.3649 96.2893 55.138C96.7815 54.911 97.328 54.7976 97.9289 54.7976C98.5585 54.7976 99.1018 54.9206 99.5588 55.1667C100.019 55.4096 100.374 55.734 100.623 56.1399C100.876 56.5458 101 56.9901 100.997 57.4727C101 58.0224 100.847 58.489 100.537 58.8725C100.23 59.256 99.8209 59.5133 99.3095 59.6444V59.7211C99.9615 59.8201 100.466 60.079 100.824 60.4977C101.186 60.9164 101.365 61.4357 101.361 62.0558C101.365 62.5959 101.214 63.0801 100.911 63.5083C100.61 63.9366 100.2 64.2738 99.6787 64.5199C99.1577 64.7628 98.5617 64.8842 97.8905 64.8842ZM103.987 63.5323C103.725 63.5323 103.5 63.4396 103.311 63.2543C103.123 63.0657 103.028 62.8388 103.028 62.5735C103.028 62.3114 103.123 62.0877 103.311 61.9023C103.5 61.7138 103.725 61.6195 103.987 61.6195C104.249 61.6195 104.475 61.7138 104.663 61.9023C104.852 62.0877 104.946 62.3114 104.946 62.5735C104.946 62.7493 104.901 62.9107 104.812 63.0577C104.725 63.2015 104.61 63.3166 104.467 63.4029C104.323 63.4892 104.163 63.5323 103.987 63.5323ZM103.987 58.6136C103.725 58.6136 103.5 58.521 103.311 58.3356C103.123 58.147 103.028 57.9201 103.028 57.6548C103.028 57.3928 103.123 57.169 103.311 56.9837C103.5 56.7951 103.725 56.7008 103.987 56.7008C104.249 56.7008 104.475 56.7951 104.663 56.9837C104.852 57.169 104.946 57.3928 104.946 57.6548C104.946 57.8306 104.901 57.992 104.812 58.139C104.725 58.2828 104.61 58.3979 104.467 58.4842C104.323 58.5705 104.163 58.6136 103.987 58.6136ZM110.115 64.913C109.357 64.9098 108.71 64.71 108.173 64.3137C107.636 63.9174 107.226 63.3406 106.941 62.5831C106.657 61.8256 106.515 60.9132 106.515 59.8457C106.515 58.7814 106.657 57.8722 106.941 57.1179C107.229 56.3636 107.641 55.7884 108.178 55.392C108.718 54.9957 109.364 54.7976 110.115 54.7976C110.866 54.7976 111.51 54.9973 112.047 55.3968C112.584 55.7931 112.995 56.3684 113.279 57.1227C113.567 57.8738 113.71 58.7814 113.71 59.8457C113.71 60.9164 113.568 61.8304 113.284 62.5879C112.999 63.3422 112.589 63.919 112.052 64.3185C111.515 64.7148 110.869 64.913 110.115 64.913ZM110.115 63.633C110.78 63.633 111.299 63.3086 111.673 62.6598C112.05 62.011 112.239 61.073 112.239 59.8457C112.239 59.0307 112.152 58.342 111.98 57.7795C111.81 57.2138 111.566 56.7855 111.246 56.4947C110.93 56.2006 110.553 56.0536 110.115 56.0536C109.453 56.0536 108.934 56.3796 108.557 57.0316C108.18 57.6836 107.99 58.6216 107.986 59.8457C107.986 60.6639 108.071 61.3558 108.24 61.9215C108.413 62.484 108.658 62.9107 108.974 63.2015C109.29 63.4892 109.671 63.633 110.115 63.633ZM118.679 64.913C117.922 64.9098 117.275 64.71 116.738 64.3137C116.201 63.9174 115.79 63.3406 115.506 62.5831C115.221 61.8256 115.079 60.9132 115.079 59.8457C115.079 58.7814 115.221 57.8722 115.506 57.1179C115.793 56.3636 116.206 55.7884 116.742 55.392C117.283 54.9957 117.928 54.7976 118.679 54.7976C119.43 54.7976 120.074 54.9973 120.611 55.3968C121.148 55.7931 121.559 56.3684 121.843 57.1227C122.131 57.8738 122.275 58.7814 122.275 59.8457C122.275 60.9164 122.133 61.8304 121.848 62.5879C121.564 63.3422 121.153 63.919 120.616 64.3185C120.079 64.7148 119.434 64.913 118.679 64.913ZM118.679 63.633C119.344 63.633 119.863 63.3086 120.237 62.6598C120.614 62.011 120.803 61.073 120.803 59.8457C120.803 59.0307 120.717 58.342 120.544 57.7795C120.375 57.2138 120.13 56.7855 119.811 56.4947C119.494 56.2006 119.117 56.0536 118.679 56.0536C118.018 56.0536 117.498 56.3796 117.121 57.0316C116.744 57.6836 116.554 58.6216 116.551 59.8457C116.551 60.6639 116.635 61.3558 116.805 61.9215C116.977 62.484 117.222 62.9107 117.538 63.2015C117.855 63.4892 118.235 63.633 118.679 63.633ZM127.382 64.75V54.9318H130.882C131.646 54.9318 132.279 55.0708 132.781 55.3489C133.282 55.627 133.658 56.0073 133.907 56.4899C134.156 56.9693 134.281 57.5094 134.281 58.1103C134.281 58.7143 134.155 59.2576 133.902 59.7402C133.653 60.2196 133.276 60.6 132.771 60.8812C132.269 61.1593 131.638 61.2983 130.877 61.2983H128.471V60.0423H130.743C131.226 60.0423 131.617 59.9592 131.918 59.793C132.218 59.6236 132.439 59.3935 132.579 59.1026C132.72 58.8118 132.79 58.481 132.79 58.1103C132.79 57.7395 132.72 57.4103 132.579 57.1227C132.439 56.835 132.216 56.6097 131.913 56.4467C131.612 56.2837 131.216 56.2022 130.724 56.2022H128.864V64.75H127.382ZM135.868 54.9318H137.665L140.791 62.5639H140.906L144.032 54.9318H145.83V64.75H144.42V57.6452H144.329L141.434 64.7356H140.264L137.368 57.6404H137.277V64.75H135.868V54.9318Z" fill="#707070"/>
</svg>
