<svg width="252" height="58" viewBox="0 0 252 58" fill="none" xmlns="http://www.w3.org/2000/svg">
<rect width="251.25" height="57.5" rx="16.5" fill="black"/>
<path fill-rule="evenodd" clip-rule="evenodd" d="M17.0378 25.4064C17.9858 25.4984 19.2162 25.5 21 25.5C22.7838 25.5 24.0142 25.4984 24.9622 25.4064C25.887 25.3167 26.3837 25.1523 26.7451 24.9252C27.2221 24.6255 27.6255 24.2221 27.9252 23.7451C28.1523 23.3837 28.3167 22.887 28.4064 21.9622C28.4984 21.0142 28.5 19.7838 28.5 18C28.5 16.2162 28.4984 14.9858 28.4064 14.0378C28.3167 13.113 28.1523 12.6163 27.9252 12.2549C27.6255 11.7779 27.2221 11.3745 26.7451 11.0748C26.3837 10.8477 25.887 10.6833 24.9622 10.5936C24.0142 10.5016 22.7838 10.5 21 10.5C19.2162 10.5 17.9858 10.5016 17.0378 10.5936C16.113 10.6833 15.6163 10.8477 15.2549 11.0748C14.7779 11.3745 14.3745 11.7779 14.0748 12.2549C13.8477 12.6163 13.6833 13.113 13.5936 14.0378C13.5016 14.9858 13.5 16.2162 13.5 18C13.5 19.7838 13.5016 21.0142 13.5936 21.9622C13.6833 22.887 13.8477 23.3837 14.0748 23.7451C14.3745 24.2221 14.7779 24.6255 15.2549 24.9252C15.6163 25.1523 16.113 25.3167 17.0378 25.4064ZM12.8047 11.4568C12 12.7375 12 14.4917 12 18C12 21.5083 12 23.2625 12.8047 24.5432C13.2243 25.211 13.789 25.7757 14.4568 26.1953C15.7375 27 17.4917 27 21 27C24.5083 27 26.2625 27 27.5432 26.1953C28.211 25.7757 28.7757 25.211 29.1953 24.5432C30 23.2625 30 21.5083 30 18C30 14.4917 30 12.7375 29.1953 11.4568C28.7757 10.789 28.211 10.2243 27.5432 9.8047C26.2625 9 24.5083 9 21 9C17.4917 9 15.7375 9 14.4568 9.8047C13.789 10.2243 13.2243 10.789 12.8047 11.4568Z" fill="#22A0FB"/>
<path d="M46.5735 16.9102H44.2404C44.1978 16.6083 44.1108 16.3402 43.9794 16.1058C43.848 15.8679 43.6793 15.6655 43.4734 15.4986C43.2674 15.3317 43.0295 15.2038 42.7596 15.1151C42.4933 15.0263 42.2038 14.9819 41.8913 14.9819C41.3267 14.9819 40.8349 15.1222 40.4158 15.4027C39.9968 15.6797 39.6719 16.0845 39.4411 16.6172C39.2102 17.1463 39.0948 17.7891 39.0948 18.5455C39.0948 19.3232 39.2102 19.9766 39.4411 20.5057C39.6754 21.0348 40.0021 21.4343 40.4212 21.7042C40.8402 21.9741 41.3249 22.109 41.8754 22.109C42.1843 22.109 42.4702 22.0682 42.733 21.9865C42.9993 21.9048 43.2354 21.7859 43.4414 21.6296C43.6474 21.4698 43.8178 21.2763 43.9528 21.049C44.0913 20.8217 44.1871 20.5625 44.2404 20.2713L46.5735 20.282C46.5131 20.7827 46.3622 21.2656 46.1207 21.7308C45.8828 22.1925 45.5614 22.6062 45.1566 22.9719C44.7553 23.3342 44.2759 23.6218 43.7184 23.8349C43.1644 24.0444 42.5376 24.1491 41.8381 24.1491C40.8651 24.1491 39.995 23.929 39.228 23.4886C38.4645 23.0483 37.8608 22.4109 37.4169 21.5763C36.9766 20.7418 36.7564 19.7315 36.7564 18.5455C36.7564 17.3558 36.9801 16.3438 37.4276 15.5092C37.875 14.6747 38.4822 14.0391 39.2493 13.6023C40.0163 13.1619 40.8793 12.9418 41.8381 12.9418C42.4702 12.9418 43.0561 13.0305 43.5959 13.2081C44.1392 13.3857 44.6204 13.6449 45.0394 13.9858C45.4585 14.3232 45.7994 14.7369 46.0621 15.2269C46.3285 15.717 46.4989 16.2781 46.5735 16.9102ZM51.8816 24.1598C51.0542 24.1598 50.3386 23.984 49.7349 23.6325C49.1348 23.2773 48.6713 22.7837 48.3446 22.1516C48.0179 21.516 47.8546 20.7791 47.8546 19.9411C47.8546 19.0959 48.0179 18.3572 48.3446 17.7251C48.6713 17.0895 49.1348 16.5959 49.7349 16.2443C50.3386 15.8892 51.0542 15.7116 51.8816 15.7116C52.709 15.7116 53.4228 15.8892 54.0229 16.2443C54.6266 16.5959 55.0918 17.0895 55.4185 17.7251C55.7452 18.3572 55.9086 19.0959 55.9086 19.9411C55.9086 20.7791 55.7452 21.516 55.4185 22.1516C55.0918 22.7837 54.6266 23.2773 54.0229 23.6325C53.4228 23.984 52.709 24.1598 51.8816 24.1598ZM51.8922 22.402C52.2686 22.402 52.5829 22.2955 52.835 22.0824C53.0872 21.8658 53.2772 21.571 53.405 21.1982C53.5364 20.8253 53.6021 20.4009 53.6021 19.9251C53.6021 19.4492 53.5364 19.0249 53.405 18.652C53.2772 18.2791 53.0872 17.9844 52.835 17.7678C52.5829 17.5511 52.2686 17.4428 51.8922 17.4428C51.5123 17.4428 51.1926 17.5511 50.9334 17.7678C50.6777 17.9844 50.4842 18.2791 50.3528 18.652C50.225 19.0249 50.161 19.4492 50.161 19.9251C50.161 20.4009 50.225 20.8253 50.3528 21.1982C50.4842 21.571 50.6777 21.8658 50.9334 22.0824C51.1926 22.2955 51.5123 22.402 51.8922 22.402ZM59.6532 19.2699V24H57.3841V15.8182H59.5467V17.2617H59.6426C59.8237 16.7859 60.1273 16.4094 60.5534 16.1325C60.9796 15.8519 61.4963 15.7116 62.1035 15.7116C62.6717 15.7116 63.1671 15.8359 63.5897 16.0845C64.0123 16.3331 64.3407 16.6882 64.5751 17.1499C64.8095 17.608 64.9267 18.1548 64.9267 18.7905V24H62.6575V19.1953C62.661 18.6946 62.5332 18.304 62.274 18.0234C62.0147 17.7393 61.6578 17.5973 61.2033 17.5973C60.8979 17.5973 60.628 17.663 60.3936 17.7944C60.1628 17.9258 59.9817 18.1175 59.8503 18.3697C59.7225 18.6183 59.6568 18.9183 59.6532 19.2699ZM71.115 15.8182V17.5227H66.0653V15.8182H71.115ZM67.2211 24V15.2269C67.2211 14.6339 67.3366 14.142 67.5674 13.7514C67.8018 13.3608 68.1214 13.0678 68.5262 12.8725C68.931 12.6772 69.3909 12.5795 69.9058 12.5795C70.2538 12.5795 70.5716 12.6062 70.8593 12.6594C71.1505 12.7127 71.3671 12.7607 71.5091 12.8033L71.1043 14.5078C71.0155 14.4794 70.9055 14.4528 70.7741 14.4279C70.6462 14.4031 70.5148 14.3906 70.3799 14.3906C70.0461 14.3906 69.8135 14.4688 69.6821 14.625C69.5507 14.7777 69.485 14.9925 69.485 15.2695V24H67.2211ZM72.5012 24V15.8182H74.7704V24H72.5012ZM73.6412 14.7635C73.3038 14.7635 73.0144 14.6516 72.7729 14.4279C72.535 14.2006 72.416 13.929 72.416 13.6129C72.416 13.3004 72.535 13.0323 72.7729 12.8086C73.0144 12.5813 73.3038 12.4677 73.6412 12.4677C73.9785 12.4677 74.2662 12.5813 74.5041 12.8086C74.7456 13.0323 74.8663 13.3004 74.8663 13.6129C74.8663 13.929 74.7456 14.2006 74.5041 14.4279C74.2662 14.6516 73.9785 14.7635 73.6412 14.7635ZM76.5882 24V15.8182H78.7881V17.2457H78.8733C79.0225 16.7379 79.2728 16.3544 79.6244 16.0952C79.9759 15.8324 80.3808 15.701 80.8389 15.701C80.9525 15.701 81.075 15.7081 81.2064 15.7223C81.3378 15.7365 81.4532 15.756 81.5526 15.7809V17.7944C81.4461 17.7624 81.2987 17.734 81.1105 17.7092C80.9223 17.6843 80.7501 17.6719 80.5938 17.6719C80.26 17.6719 79.9617 17.7447 79.699 17.8903C79.4397 18.0323 79.2338 18.2312 79.0811 18.4869C78.9319 18.7425 78.8573 19.0373 78.8573 19.3711V24H76.5882ZM82.7259 24V15.8182H84.8885V17.2617H84.9844C85.1548 16.7823 85.4389 16.4041 85.8366 16.1271C86.2344 15.8501 86.7102 15.7116 87.2642 15.7116C87.8253 15.7116 88.3029 15.8519 88.6971 16.1325C89.0913 16.4094 89.354 16.7859 89.4854 17.2617H89.5707C89.7376 16.793 90.0394 16.4183 90.4762 16.1378C90.9165 15.8537 91.4368 15.7116 92.0369 15.7116C92.8004 15.7116 93.4201 15.9549 93.896 16.4414C94.3754 16.9244 94.6151 17.6097 94.6151 18.4975V24H92.3512V18.945C92.3512 18.4904 92.2305 18.1495 91.989 17.9222C91.7475 17.695 91.4457 17.5813 91.0835 17.5813C90.6715 17.5813 90.3501 17.7127 90.1193 17.9755C89.8885 18.2347 89.7731 18.5774 89.7731 19.0036V24H87.5732V18.897C87.5732 18.4957 87.4577 18.1761 87.2269 17.9382C86.9996 17.7003 86.6996 17.5813 86.3267 17.5813C86.0746 17.5813 85.8473 17.6452 85.6449 17.7731C85.446 17.8974 85.288 18.0732 85.1708 18.3004C85.0536 18.5241 84.995 18.7869 84.995 19.0888V24H82.7259ZM99.9218 24V13.0909H104.226C105.053 13.0909 105.758 13.2489 106.34 13.565C106.923 13.8775 107.367 14.3125 107.672 14.87C107.981 15.424 108.136 16.0632 108.136 16.7876C108.136 17.5121 107.979 18.1513 107.667 18.7053C107.354 19.2592 106.902 19.6907 106.309 19.9996C105.719 20.3086 105.005 20.4631 104.167 20.4631H101.424V18.6147H103.794C104.238 18.6147 104.604 18.5384 104.892 18.3857C105.183 18.2294 105.399 18.0146 105.541 17.7411C105.687 17.4641 105.76 17.1463 105.76 16.7876C105.76 16.4254 105.687 16.1094 105.541 15.8395C105.399 15.5661 105.183 15.3548 104.892 15.2056C104.6 15.0529 104.231 14.9766 103.784 14.9766H102.228V24H99.9218ZM113.188 24.1598C112.346 24.1598 111.622 23.9893 111.015 23.6484C110.411 23.304 109.946 22.8175 109.619 22.1889C109.292 21.5568 109.129 20.8093 109.129 19.9464C109.129 19.1048 109.292 18.3661 109.619 17.7305C109.946 17.0948 110.406 16.5994 110.999 16.2443C111.595 15.8892 112.295 15.7116 113.097 15.7116C113.637 15.7116 114.14 15.7987 114.605 15.9727C115.074 16.1431 115.482 16.4006 115.83 16.745C116.182 17.0895 116.455 17.5227 116.65 18.0447C116.846 18.5632 116.943 19.1705 116.943 19.8665V20.4897H110.035V19.0835H114.807C114.807 18.7567 114.736 18.4673 114.594 18.2152C114.452 17.9631 114.255 17.766 114.003 17.6239C113.754 17.4783 113.465 17.4055 113.135 17.4055C112.79 17.4055 112.485 17.4854 112.218 17.6452C111.956 17.8015 111.75 18.0128 111.601 18.2791C111.451 18.5419 111.375 18.8349 111.372 19.158V20.495C111.372 20.8999 111.446 21.2496 111.595 21.5444C111.748 21.8391 111.963 22.0664 112.24 22.2262C112.517 22.386 112.845 22.4659 113.225 22.4659C113.477 22.4659 113.708 22.4304 113.918 22.3594C114.127 22.2884 114.307 22.1818 114.456 22.0398C114.605 21.8977 114.718 21.7237 114.797 21.5178L116.895 21.6562C116.789 22.1605 116.57 22.6009 116.24 22.9773C115.913 23.3501 115.491 23.6413 114.972 23.8509C114.457 24.0568 113.863 24.1598 113.188 24.1598ZM120.757 24.1545C120.235 24.1545 119.77 24.0639 119.362 23.8828C118.953 23.6982 118.63 23.4265 118.392 23.0678C118.158 22.7056 118.041 22.2546 118.041 21.7148C118.041 21.2603 118.124 20.8786 118.291 20.5696C118.458 20.2607 118.685 20.0121 118.973 19.8239C119.26 19.6357 119.587 19.4936 119.953 19.3977C120.322 19.3018 120.709 19.2344 121.114 19.1953C121.59 19.1456 121.973 19.0994 122.265 19.0568C122.556 19.0107 122.767 18.9432 122.899 18.8544C123.03 18.7656 123.096 18.6342 123.096 18.4602V18.4283C123.096 18.0909 122.989 17.8299 122.776 17.6452C122.566 17.4606 122.268 17.3683 121.881 17.3683C121.473 17.3683 121.148 17.4588 120.906 17.6399C120.665 17.8175 120.505 18.0412 120.427 18.3111L118.328 18.1406C118.435 17.6435 118.644 17.2138 118.957 16.8516C119.269 16.4858 119.672 16.2053 120.166 16.0099C120.663 15.8111 121.238 15.7116 121.892 15.7116C122.346 15.7116 122.781 15.7649 123.197 15.8714C123.616 15.978 123.987 16.1431 124.31 16.3668C124.637 16.5906 124.894 16.8782 125.082 17.2298C125.271 17.5778 125.365 17.995 125.365 18.4815V24H123.213V22.8654H123.149C123.017 23.1211 122.842 23.3466 122.622 23.5419C122.401 23.7337 122.137 23.8846 121.828 23.9947C121.519 24.1012 121.162 24.1545 120.757 24.1545ZM121.407 22.5884C121.741 22.5884 122.036 22.5227 122.291 22.3913C122.547 22.2564 122.748 22.0753 122.893 21.848C123.039 21.6207 123.112 21.3633 123.112 21.0756V20.2074C123.041 20.2536 122.943 20.2962 122.819 20.3352C122.698 20.3707 122.561 20.4045 122.408 20.4364C122.256 20.4648 122.103 20.4915 121.95 20.5163C121.798 20.5376 121.659 20.5572 121.535 20.5749C121.269 20.614 121.036 20.6761 120.837 20.7614C120.638 20.8466 120.484 20.962 120.374 21.1076C120.264 21.2496 120.209 21.4272 120.209 21.6403C120.209 21.9492 120.32 22.1854 120.544 22.3487C120.771 22.5085 121.059 22.5884 121.407 22.5884ZM129.394 19.2699V24H127.125V15.8182H129.288V17.2617H129.384C129.565 16.7859 129.869 16.4094 130.295 16.1325C130.721 15.8519 131.237 15.7116 131.845 15.7116C132.413 15.7116 132.908 15.8359 133.331 16.0845C133.753 16.3331 134.082 16.6882 134.316 17.1499C134.551 17.608 134.668 18.1548 134.668 18.7905V24H132.399V19.1953C132.402 18.6946 132.274 18.304 132.015 18.0234C131.756 17.7393 131.399 17.5973 130.945 17.5973C130.639 17.5973 130.369 17.663 130.135 17.7944C129.904 17.9258 129.723 18.1175 129.592 18.3697C129.464 18.6183 129.398 18.9183 129.394 19.2699ZM141.703 20.5163V15.8182H143.972V24H141.794V22.5138H141.708C141.524 22.9933 141.217 23.3786 140.787 23.6697C140.361 23.9609 139.841 24.1065 139.226 24.1065C138.679 24.1065 138.198 23.9822 137.783 23.7337C137.367 23.4851 137.042 23.1317 136.808 22.6737C136.577 22.2156 136.46 21.6669 136.456 21.0277V15.8182H138.725V20.6229C138.729 21.1058 138.859 21.4876 139.114 21.7681C139.37 22.0487 139.713 22.1889 140.142 22.1889C140.416 22.1889 140.672 22.1268 140.909 22.0025C141.147 21.8746 141.339 21.6864 141.485 21.4379C141.634 21.1893 141.707 20.8821 141.703 20.5163ZM150.139 15.8182V17.5227H145.212V15.8182H150.139ZM146.331 13.858H148.6V21.4858C148.6 21.6953 148.632 21.8587 148.696 21.9759C148.76 22.0895 148.848 22.1694 148.962 22.2156C149.079 22.2617 149.214 22.2848 149.367 22.2848C149.473 22.2848 149.58 22.2759 149.687 22.2582C149.793 22.2369 149.875 22.2209 149.932 22.2102L150.288 23.8988C150.175 23.9343 150.015 23.9751 149.809 24.0213C149.603 24.071 149.353 24.1012 149.058 24.1119C148.511 24.1332 148.032 24.0604 147.62 23.8935C147.211 23.7266 146.894 23.4673 146.666 23.1158C146.439 22.7642 146.327 22.3203 146.331 21.7841V13.858ZM153.885 13.0909V14.2415C153.885 14.5682 153.821 14.902 153.694 15.2429C153.569 15.5803 153.402 15.8999 153.193 16.2017C152.983 16.5 152.754 16.7539 152.506 16.9634L151.504 16.3722C151.682 16.0916 151.838 15.7809 151.973 15.44C152.112 15.0991 152.181 14.7031 152.181 14.2521V13.0909H153.885ZM161.179 18.1513L159.101 18.2791C159.066 18.1016 158.99 17.9418 158.872 17.7997C158.755 17.6541 158.601 17.5387 158.409 17.4535C158.221 17.3647 157.995 17.3203 157.733 17.3203C157.381 17.3203 157.084 17.3949 156.843 17.544C156.601 17.6896 156.481 17.8849 156.481 18.13C156.481 18.3253 156.559 18.4904 156.715 18.6254C156.871 18.7603 157.139 18.8686 157.519 18.9503L159 19.2486C159.796 19.4119 160.389 19.6747 160.779 20.0369C161.17 20.3991 161.365 20.875 161.365 21.4645C161.365 22.0007 161.207 22.4712 160.891 22.8761C160.579 23.2809 160.149 23.5969 159.602 23.8242C159.059 24.0479 158.432 24.1598 157.722 24.1598C156.639 24.1598 155.776 23.9343 155.133 23.4833C154.494 23.0288 154.119 22.4109 154.009 21.6296L156.241 21.5124C156.309 21.8427 156.472 22.0948 156.731 22.2688C156.99 22.4393 157.322 22.5245 157.727 22.5245C158.125 22.5245 158.445 22.4482 158.686 22.2955C158.931 22.1392 159.055 21.9386 159.059 21.6935C159.055 21.4876 158.968 21.3189 158.798 21.1875C158.627 21.0526 158.365 20.9496 158.009 20.8786L156.593 20.5962C155.794 20.4364 155.199 20.1594 154.808 19.7653C154.421 19.3711 154.228 18.8686 154.228 18.2578C154.228 17.7322 154.37 17.2795 154.654 16.8995C154.941 16.5195 155.344 16.2266 155.863 16.0206C156.385 15.8146 156.996 15.7116 157.695 15.7116C158.729 15.7116 159.542 15.93 160.135 16.3668C160.731 16.8036 161.079 17.3984 161.179 18.1513ZM169.963 24.1598C169.125 24.1598 168.404 23.9822 167.8 23.6271C167.2 23.2685 166.738 22.7713 166.415 22.1357C166.095 21.5 165.936 20.7685 165.936 19.9411C165.936 19.103 166.097 18.3679 166.42 17.7358C166.747 17.1001 167.21 16.6048 167.811 16.2496C168.411 15.891 169.125 15.7116 169.952 15.7116C170.666 15.7116 171.291 15.8413 171.827 16.1005C172.363 16.3597 172.788 16.7237 173.1 17.1925C173.413 17.6612 173.585 18.2116 173.617 18.8438H171.475C171.415 18.4354 171.255 18.1069 170.996 17.8583C170.74 17.6062 170.405 17.4801 169.989 17.4801C169.638 17.4801 169.331 17.576 169.068 17.7678C168.809 17.956 168.606 18.2312 168.46 18.5934C168.315 18.9556 168.242 19.3942 168.242 19.9091C168.242 20.4311 168.313 20.875 168.455 21.2408C168.601 21.6065 168.805 21.8853 169.068 22.0771C169.331 22.2688 169.638 22.3647 169.989 22.3647C170.248 22.3647 170.481 22.3114 170.687 22.2049C170.897 22.0984 171.069 21.9439 171.204 21.7415C171.342 21.5355 171.433 21.2887 171.475 21.0011H173.617C173.581 21.6261 173.411 22.1765 173.105 22.6523C172.804 23.1246 172.386 23.494 171.854 23.7603C171.321 24.0266 170.691 24.1598 169.963 24.1598ZM177.339 19.2699V24H175.07V13.0909H177.275V17.2617H177.371C177.555 16.7788 177.854 16.4006 178.266 16.1271C178.678 15.8501 179.194 15.7116 179.816 15.7116C180.384 15.7116 180.879 15.8359 181.302 16.0845C181.728 16.3295 182.058 16.6829 182.293 17.1445C182.531 17.6026 182.648 18.1513 182.644 18.7905V24H180.375V19.1953C180.379 18.6911 180.251 18.2987 179.991 18.0181C179.736 17.7376 179.377 17.5973 178.915 17.5973C178.607 17.5973 178.333 17.663 178.095 17.7944C177.861 17.9258 177.676 18.1175 177.541 18.3697C177.41 18.6183 177.342 18.9183 177.339 19.2699ZM188.159 24.1598C187.317 24.1598 186.593 23.9893 185.985 23.6484C185.382 23.304 184.916 22.8175 184.59 22.1889C184.263 21.5568 184.1 20.8093 184.1 19.9464C184.1 19.1048 184.263 18.3661 184.59 17.7305C184.916 17.0948 185.376 16.5994 185.969 16.2443C186.566 15.8892 187.266 15.7116 188.068 15.7116C188.608 15.7116 189.11 15.7987 189.576 15.9727C190.044 16.1431 190.453 16.4006 190.801 16.745C191.152 17.0895 191.426 17.5227 191.621 18.0447C191.816 18.5632 191.914 19.1705 191.914 19.8665V20.4897H185.005V19.0835H189.778C189.778 18.7567 189.707 18.4673 189.565 18.2152C189.423 17.9631 189.226 17.766 188.974 17.6239C188.725 17.4783 188.436 17.4055 188.105 17.4055C187.761 17.4055 187.456 17.4854 187.189 17.6452C186.926 17.8015 186.72 18.0128 186.571 18.2791C186.422 18.5419 186.346 18.8349 186.342 19.158V20.495C186.342 20.8999 186.417 21.2496 186.566 21.5444C186.719 21.8391 186.934 22.0664 187.21 22.2262C187.487 22.386 187.816 22.4659 188.196 22.4659C188.448 22.4659 188.679 22.4304 188.888 22.3594C189.098 22.2884 189.277 22.1818 189.426 22.0398C189.576 21.8977 189.689 21.7237 189.767 21.5178L191.866 21.6562C191.759 22.1605 191.541 22.6009 191.211 22.9773C190.884 23.3501 190.462 23.6413 189.943 23.8509C189.428 24.0568 188.833 24.1598 188.159 24.1598ZM197.092 24.1598C196.253 24.1598 195.533 23.9822 194.929 23.6271C194.329 23.2685 193.867 22.7713 193.544 22.1357C193.224 21.5 193.065 20.7685 193.065 19.9411C193.065 19.103 193.226 18.3679 193.549 17.7358C193.876 17.1001 194.339 16.6048 194.94 16.2496C195.54 15.891 196.253 15.7116 197.081 15.7116C197.795 15.7116 198.42 15.8413 198.956 16.1005C199.492 16.3597 199.916 16.7237 200.229 17.1925C200.541 17.6612 200.714 18.2116 200.746 18.8438H198.604C198.544 18.4354 198.384 18.1069 198.125 17.8583C197.869 17.6062 197.534 17.4801 197.118 17.4801C196.767 17.4801 196.459 17.576 196.197 17.7678C195.937 17.956 195.735 18.2312 195.589 18.5934C195.444 18.9556 195.371 19.3942 195.371 19.9091C195.371 20.4311 195.442 20.875 195.584 21.2408C195.73 21.6065 195.934 21.8853 196.197 22.0771C196.459 22.2688 196.767 22.3647 197.118 22.3647C197.377 22.3647 197.61 22.3114 197.816 22.2049C198.025 22.0984 198.198 21.9439 198.333 21.7415C198.471 21.5355 198.562 21.2887 198.604 21.0011H200.746C200.71 21.6261 200.54 22.1765 200.234 22.6523C199.932 23.1246 199.515 23.494 198.983 23.7603C198.45 24.0266 197.82 24.1598 197.092 24.1598ZM204.255 21.6456L204.26 18.9237H204.59L207.211 15.8182H209.816L206.295 19.9304H205.757L204.255 21.6456ZM202.199 24V13.0909H204.468V24H202.199ZM207.312 24L204.904 20.4364L206.417 18.8331L209.97 24H207.312ZM215.748 18.62V20.4205H210.773V18.62H215.748ZM222.929 20.5163V15.8182H225.198V24H223.019V22.5138H222.934C222.749 22.9933 222.442 23.3786 222.013 23.6697C221.586 23.9609 221.066 24.1065 220.452 24.1065C219.905 24.1065 219.424 23.9822 219.008 23.7337C218.593 23.4851 218.268 23.1317 218.033 22.6737C217.803 22.2156 217.685 21.6669 217.682 21.0277V15.8182H219.951V20.6229C219.955 21.1058 220.084 21.4876 220.34 21.7681C220.596 22.0487 220.938 22.1889 221.368 22.1889C221.641 22.1889 221.897 22.1268 222.135 22.0025C222.373 21.8746 222.565 21.6864 222.71 21.4379C222.859 21.1893 222.932 20.8821 222.929 20.5163ZM227.013 27.0682V15.8182H229.25V17.1925H229.351C229.451 16.9723 229.595 16.7486 229.783 16.5213C229.975 16.2905 230.223 16.0987 230.529 15.946C230.838 15.7898 231.221 15.7116 231.679 15.7116C232.276 15.7116 232.826 15.8679 233.33 16.1804C233.835 16.4893 234.238 16.9563 234.54 17.5813C234.841 18.2028 234.992 18.9822 234.992 19.9197C234.992 20.8324 234.845 21.603 234.55 22.2315C234.259 22.8565 233.861 23.3306 233.357 23.6538C232.856 23.9734 232.295 24.1332 231.674 24.1332C231.233 24.1332 230.859 24.0604 230.55 23.9148C230.244 23.7692 229.994 23.5863 229.799 23.3661C229.604 23.1424 229.454 22.9169 229.351 22.6896H229.282V27.0682H227.013ZM229.234 19.9091C229.234 20.3956 229.302 20.82 229.437 21.1822C229.572 21.5444 229.767 21.8267 230.023 22.0291C230.278 22.228 230.589 22.3274 230.955 22.3274C231.324 22.3274 231.637 22.2262 231.892 22.0238C232.148 21.8178 232.341 21.5337 232.473 21.1715C232.608 20.8058 232.675 20.3849 232.675 19.9091C232.675 19.4368 232.61 19.0213 232.478 18.6626C232.347 18.304 232.153 18.0234 231.898 17.821C231.642 17.6186 231.328 17.5174 230.955 17.5174C230.585 17.5174 230.273 17.6151 230.017 17.8104C229.765 18.0057 229.572 18.2827 229.437 18.6413C229.302 19 229.234 19.4226 229.234 19.9091Z" fill="white"/>
<path d="M36.5945 35.957V34.6818H44.193V35.957H41.1296V44.5H39.6531V35.957H36.5945ZM47.6409 44.6486C46.9506 44.6486 46.3481 44.4904 45.8336 44.174C45.319 43.8576 44.9195 43.415 44.6351 42.8461C44.3506 42.2772 44.2084 41.6124 44.2084 40.8517C44.2084 40.0879 44.3506 39.4199 44.6351 38.8478C44.9195 38.2757 45.319 37.8315 45.8336 37.5151C46.3481 37.1987 46.9506 37.0405 47.6409 37.0405C48.3313 37.0405 48.9337 37.1987 49.4483 37.5151C49.9628 37.8315 50.3623 38.2757 50.6468 38.8478C50.9312 39.4199 51.0735 40.0879 51.0735 40.8517C51.0735 41.6124 50.9312 42.2772 50.6468 42.8461C50.3623 43.415 49.9628 43.8576 49.4483 44.174C48.9337 44.4904 48.3313 44.6486 47.6409 44.6486ZM47.6457 43.4453C48.0932 43.4453 48.4639 43.3271 48.7579 43.0906C49.052 42.854 49.2693 42.5392 49.4099 42.1461C49.5537 41.753 49.6257 41.32 49.6257 40.8469C49.6257 40.3771 49.5537 39.9457 49.4099 39.5526C49.2693 39.1562 49.052 38.8382 48.7579 38.5985C48.4639 38.3588 48.0932 38.239 47.6457 38.239C47.1951 38.239 46.8211 38.3588 46.5239 38.5985C46.2299 38.8382 46.011 39.1562 45.8671 39.5526C45.7265 39.9457 45.6562 40.3771 45.6562 40.8469C45.6562 41.32 45.7265 41.753 45.8671 42.1461C46.011 42.5392 46.2299 42.854 46.5239 43.0906C46.8211 43.3271 47.1951 43.4453 47.6457 43.4453ZM52.5235 44.5V37.1364H53.8994V38.3349H53.9904C54.1438 37.929 54.3947 37.6126 54.7431 37.3857C55.0915 37.1555 55.5085 37.0405 55.9943 37.0405C56.4865 37.0405 56.8988 37.1555 57.2312 37.3857C57.5668 37.6158 57.8145 37.9322 57.9743 38.3349H58.051C58.2268 37.9418 58.5064 37.6286 58.8899 37.3952C59.2735 37.1587 59.7305 37.0405 60.261 37.0405C60.929 37.0405 61.4739 37.2498 61.8958 37.6685C62.3209 38.0872 62.5334 38.7184 62.5334 39.5621V44.5H61.1V39.6964C61.1 39.1978 60.9642 38.8366 60.6925 38.6129C60.4208 38.3892 60.0964 38.2773 59.7193 38.2773C59.2527 38.2773 58.8899 38.4212 58.6311 38.7088C58.3722 38.9933 58.2427 39.3592 58.2427 39.8066V44.5H56.8141V39.6053C56.8141 39.2058 56.6895 38.8846 56.4402 38.6417C56.1909 38.3988 55.8665 38.2773 55.467 38.2773C55.1953 38.2773 54.9445 38.3493 54.7143 38.4931C54.4874 38.6337 54.3036 38.8303 54.163 39.0827C54.0256 39.3352 53.9569 39.6277 53.9569 39.96V44.5H52.5235ZM67.4064 44.6486C66.716 44.6486 66.1136 44.4904 65.599 44.174C65.0844 43.8576 64.6849 43.415 64.4005 42.8461C64.1161 42.2772 63.9738 41.6124 63.9738 40.8517C63.9738 40.0879 64.1161 39.4199 64.4005 38.8478C64.6849 38.2757 65.0844 37.8315 65.599 37.5151C66.1136 37.1987 66.716 37.0405 67.4064 37.0405C68.0967 37.0405 68.6991 37.1987 69.2137 37.5151C69.7283 37.8315 70.1278 38.2757 70.4122 38.8478C70.6967 39.4199 70.8389 40.0879 70.8389 40.8517C70.8389 41.6124 70.6967 42.2772 70.4122 42.8461C70.1278 43.415 69.7283 43.8576 69.2137 44.174C68.6991 44.4904 68.0967 44.6486 67.4064 44.6486ZM67.4112 43.4453C67.8586 43.4453 68.2293 43.3271 68.5234 43.0906C68.8174 42.854 69.0347 42.5392 69.1754 42.1461C69.3192 41.753 69.3911 41.32 69.3911 40.8469C69.3911 40.3771 69.3192 39.9457 69.1754 39.5526C69.0347 39.1562 68.8174 38.8382 68.5234 38.5985C68.2293 38.3588 67.8586 38.239 67.4112 38.239C66.9605 38.239 66.5866 38.3588 66.2893 38.5985C65.9953 38.8382 65.7764 39.1562 65.6326 39.5526C65.4919 39.9457 65.4216 40.3771 65.4216 40.8469C65.4216 41.32 65.4919 41.753 65.6326 42.1461C65.7764 42.5392 65.9953 42.854 66.2893 43.0906C66.5866 43.3271 66.9605 43.4453 67.4112 43.4453ZM72.2889 44.5V37.1364H73.6744V38.3061H73.7511C73.8853 37.9098 74.1218 37.5982 74.4606 37.3713C74.8026 37.1412 75.1893 37.0261 75.6207 37.0261C75.7102 37.0261 75.8157 37.0293 75.9372 37.0357C76.0618 37.0421 76.1593 37.0501 76.2296 37.0597V38.4308C76.1721 38.4148 76.0698 38.3972 75.9228 38.378C75.7758 38.3556 75.6287 38.3445 75.4817 38.3445C75.1429 38.3445 74.8409 38.4164 74.5756 38.5602C74.3136 38.7008 74.1058 38.8974 73.9524 39.1499C73.799 39.3991 73.7223 39.6836 73.7223 40.0032V44.5H72.2889ZM77.32 44.5V37.1364H78.7055V38.3061H78.7822C78.9165 37.9098 79.153 37.5982 79.4917 37.3713C79.8337 37.1412 80.2204 37.0261 80.6519 37.0261C80.7414 37.0261 80.8469 37.0293 80.9683 37.0357C81.093 37.0421 81.1904 37.0501 81.2607 37.0597V38.4308C81.2032 38.4148 81.1009 38.3972 80.9539 38.378C80.8069 38.3556 80.6599 38.3445 80.5129 38.3445C80.1741 38.3445 79.8721 38.4164 79.6068 38.5602C79.3447 38.7008 79.137 38.8974 78.9836 39.1499C78.8302 39.3991 78.7535 39.6836 78.7535 40.0032V44.5H77.32ZM85.1893 44.6486C84.4989 44.6486 83.8965 44.4904 83.3819 44.174C82.8674 43.8576 82.4679 43.415 82.1834 42.8461C81.899 42.2772 81.7567 41.6124 81.7567 40.8517C81.7567 40.0879 81.899 39.4199 82.1834 38.8478C82.4679 38.2757 82.8674 37.8315 83.3819 37.5151C83.8965 37.1987 84.4989 37.0405 85.1893 37.0405C85.8796 37.0405 86.4821 37.1987 86.9966 37.5151C87.5112 37.8315 87.9107 38.2757 88.1951 38.8478C88.4796 39.4199 88.6218 40.0879 88.6218 40.8517C88.6218 41.6124 88.4796 42.2772 88.1951 42.8461C87.9107 43.415 87.5112 43.8576 86.9966 44.174C86.4821 44.4904 85.8796 44.6486 85.1893 44.6486ZM85.1941 43.4453C85.6415 43.4453 86.0122 43.3271 86.3063 43.0906C86.6003 42.854 86.8176 42.5392 86.9583 42.1461C87.1021 41.753 87.174 41.32 87.174 40.8469C87.174 40.3771 87.1021 39.9457 86.9583 39.5526C86.8176 39.1562 86.6003 38.8382 86.3063 38.5985C86.0122 38.3588 85.6415 38.239 85.1941 38.239C84.7434 38.239 84.3695 38.3588 84.0723 38.5985C83.7782 38.8382 83.5593 39.1562 83.4155 39.5526C83.2748 39.9457 83.2045 40.3771 83.2045 40.8469C83.2045 41.32 83.2748 41.753 83.4155 42.1461C83.5593 42.5392 83.7782 42.854 84.0723 43.0906C84.3695 43.3271 84.7434 43.4453 85.1941 43.4453ZM91.4441 44.5L89.2772 37.1364H90.7586L92.2016 42.544H92.2735L93.7213 37.1364H95.2026L96.6408 42.5201H96.7127L98.1462 37.1364H99.6275L97.4654 44.5H96.0032L94.5075 39.1834H94.3972L92.9015 44.5H91.4441ZM101.701 43.1577L101.629 43.6802C101.581 44.0637 101.499 44.4632 101.384 44.8787C101.272 45.2974 101.156 45.6857 101.034 46.0437C100.916 46.4016 100.819 46.6861 100.742 46.897H99.7256C99.7672 46.6989 99.8247 46.4304 99.8982 46.0916C99.9717 45.756 100.044 45.3805 100.114 44.965C100.184 44.5495 100.237 44.1261 100.272 43.6946L100.32 43.1577H101.701ZM106.614 42.5824V41.3839L110.857 34.6818H111.801V36.446H111.202L108.168 41.2496V41.3263H113.983V42.5824H106.614ZM111.269 44.5V42.218L111.279 41.6715V34.6818H112.684V44.5H111.269ZM116.467 43.2823C116.205 43.2823 115.98 43.1896 115.791 43.0043C115.602 42.8157 115.508 42.5888 115.508 42.3235C115.508 42.0614 115.602 41.8377 115.791 41.6523C115.98 41.4638 116.205 41.3695 116.467 41.3695C116.729 41.3695 116.954 41.4638 117.143 41.6523C117.332 41.8377 117.426 42.0614 117.426 42.3235C117.426 42.4993 117.381 42.6607 117.292 42.8077C117.205 42.9515 117.09 43.0666 116.946 43.1529C116.803 43.2392 116.643 43.2823 116.467 43.2823ZM116.467 38.3636C116.205 38.3636 115.98 38.271 115.791 38.0856C115.602 37.897 115.508 37.6701 115.508 37.4048C115.508 37.1428 115.602 36.919 115.791 36.7337C115.98 36.5451 116.205 36.4508 116.467 36.4508C116.729 36.4508 116.954 36.5451 117.143 36.7337C117.332 36.919 117.426 37.1428 117.426 37.4048C117.426 37.5806 117.381 37.742 117.292 37.889C117.205 38.0328 117.09 38.1479 116.946 38.2342C116.803 38.3205 116.643 38.3636 116.467 38.3636ZM122.595 44.6342C121.936 44.6342 121.348 44.5208 120.831 44.2939C120.316 44.0669 119.909 43.7521 119.608 43.3494C119.311 42.9435 119.151 42.4737 119.129 41.94H120.634C120.653 42.2308 120.751 42.4833 120.926 42.6974C121.105 42.9084 121.339 43.0714 121.626 43.1864C121.914 43.3015 122.234 43.359 122.585 43.359C122.972 43.359 123.314 43.2919 123.611 43.1577C123.912 43.0234 124.146 42.8365 124.316 42.5968C124.485 42.3539 124.57 42.0742 124.57 41.7578C124.57 41.4286 124.485 41.1394 124.316 40.8901C124.15 40.6376 123.905 40.4395 123.582 40.2956C123.263 40.1518 122.876 40.0799 122.422 40.0799H121.593V38.8718H122.422C122.787 38.8718 123.106 38.8063 123.381 38.6752C123.659 38.5442 123.876 38.362 124.033 38.1287C124.19 37.8922 124.268 37.6158 124.268 37.2994C124.268 36.9957 124.199 36.7321 124.062 36.5083C123.928 36.2814 123.736 36.104 123.486 35.9762C123.24 35.8484 122.95 35.7844 122.614 35.7844C122.294 35.7844 121.996 35.8436 121.717 35.9618C121.443 36.0769 121.219 36.2431 121.046 36.4604C120.874 36.6745 120.781 36.9318 120.768 37.2322H119.335C119.351 36.7017 119.507 36.2351 119.805 35.8324C120.105 35.4297 120.501 35.1149 120.994 34.888C121.486 34.661 122.032 34.5476 122.633 34.5476C123.263 34.5476 123.806 34.6706 124.263 34.9167C124.723 35.1596 125.078 35.484 125.327 35.8899C125.58 36.2958 125.705 36.7401 125.701 37.2227C125.705 37.7724 125.551 38.239 125.241 38.6225C124.934 39.006 124.525 39.2633 124.014 39.3944V39.4711C124.666 39.5701 125.171 39.829 125.529 40.2477C125.89 40.6664 126.069 41.1857 126.066 41.8058C126.069 42.3459 125.919 42.8301 125.615 43.2583C125.315 43.6866 124.904 44.0238 124.383 44.2699C123.862 44.5128 123.266 44.6342 122.595 44.6342ZM131.146 44.663C130.389 44.6598 129.741 44.46 129.204 44.0637C128.667 43.6674 128.257 43.0906 127.972 42.3331C127.688 41.5756 127.546 40.6632 127.546 39.5957C127.546 38.5314 127.688 37.6222 127.972 36.8679C128.26 36.1136 128.672 35.5384 129.209 35.142C129.749 34.7457 130.395 34.5476 131.146 34.5476C131.897 34.5476 132.541 34.7473 133.078 35.1468C133.615 35.5431 134.026 36.1184 134.31 36.8727C134.598 37.6238 134.741 38.5314 134.741 39.5957C134.741 40.6664 134.599 41.5804 134.315 42.3379C134.03 43.0922 133.62 43.669 133.083 44.0685C132.546 44.4648 131.9 44.663 131.146 44.663ZM131.146 43.383C131.811 43.383 132.33 43.0586 132.704 42.4098C133.081 41.761 133.27 40.823 133.27 39.5957C133.27 38.7807 133.183 38.092 133.011 37.5295C132.841 36.9638 132.597 36.5355 132.277 36.2447C131.961 35.9506 131.584 35.8036 131.146 35.8036C130.484 35.8036 129.965 36.1296 129.588 36.7816C129.211 37.4336 129.021 38.3716 129.017 39.5957C129.017 40.4139 129.102 41.1058 129.272 41.6715C129.444 42.234 129.689 42.6607 130.005 42.9515C130.321 43.2392 130.702 43.383 131.146 43.383ZM139.849 44.5V34.6818H143.349C144.113 34.6818 144.745 34.8208 145.247 35.0989C145.749 35.377 146.125 35.7573 146.374 36.2399C146.623 36.7193 146.748 37.2594 146.748 37.8603C146.748 38.4643 146.622 39.0076 146.369 39.4902C146.12 39.9696 145.743 40.35 145.238 40.6312C144.736 40.9093 144.105 41.0483 143.344 41.0483H140.937V39.7923H143.21C143.692 39.7923 144.084 39.7092 144.384 39.543C144.685 39.3736 144.905 39.1435 145.046 38.8526C145.187 38.5618 145.257 38.231 145.257 37.8603C145.257 37.4895 145.187 37.1603 145.046 36.8727C144.905 36.585 144.683 36.3597 144.38 36.1967C144.079 36.0337 143.683 35.9522 143.191 35.9522H141.331V44.5H139.849ZM148.334 34.6818H150.132L153.258 42.3139H153.373L156.499 34.6818H158.296V44.5H156.887V37.3952H156.796L153.9 44.4856H152.731L149.835 37.3904H149.744V44.5H148.334V34.6818Z" fill="#EF4A68"/>
</svg>
