<svg width="297" height="78" viewBox="0 0 297 78" fill="none" xmlns="http://www.w3.org/2000/svg">
<rect x="0.5" y="0.25" width="296.25" height="77.5" rx="16.5" fill="black"/>
<path fill-rule="evenodd" clip-rule="evenodd" d="M17.5378 25.6564C18.4858 25.7484 19.7162 25.75 21.5 25.75C23.2838 25.75 24.5142 25.7484 25.4622 25.6564C26.387 25.5667 26.8837 25.4023 27.2451 25.1752C27.7221 24.8755 28.1255 24.4721 28.4252 23.9951C28.6523 23.6337 28.8167 23.137 28.9064 22.2122C28.9984 21.2642 29 20.0338 29 18.25C29 16.4662 28.9984 15.2358 28.9064 14.2878C28.8167 13.363 28.6523 12.8663 28.4252 12.5049C28.1255 12.0279 27.7221 11.6245 27.2451 11.3248C26.8837 11.0977 26.387 10.9333 25.4622 10.8436C24.5142 10.7516 23.2838 10.75 21.5 10.75C19.7162 10.75 18.4858 10.7516 17.5378 10.8436C16.613 10.9333 16.1163 11.0977 15.7549 11.3248C15.2779 11.6245 14.8745 12.0279 14.5748 12.5049C14.3477 12.8663 14.1833 13.363 14.0936 14.2878C14.0016 15.2358 14 16.4662 14 18.25C14 20.0338 14.0016 21.2642 14.0936 22.2122C14.1833 23.137 14.3477 23.6337 14.5748 23.9951C14.8745 24.4721 15.2779 24.8755 15.7549 25.1752C16.1163 25.4023 16.613 25.5667 17.5378 25.6564ZM13.3047 11.7068C12.5 12.9875 12.5 14.7417 12.5 18.25C12.5 21.7583 12.5 23.5125 13.3047 24.7932C13.7243 25.461 14.289 26.0257 14.9568 26.4453C16.2375 27.25 17.9917 27.25 21.5 27.25C25.0083 27.25 26.7625 27.25 28.0432 26.4453C28.711 26.0257 29.2757 25.461 29.6953 24.7932C30.5 23.5125 30.5 21.7583 30.5 18.25C30.5 14.7417 30.5 12.9875 29.6953 11.7068C29.2757 11.039 28.711 10.4743 28.0432 10.0547C26.7625 9.25 25.0083 9.25 21.5 9.25C17.9917 9.25 16.2375 9.25 14.9568 10.0547C14.289 10.4743 13.7243 11.039 13.3047 11.7068Z" fill="#22A0FB"/>
<path d="M37.4482 24.25V13.3409H41.7521C42.576 13.3409 43.2791 13.4883 43.8615 13.783C44.4474 14.0742 44.8931 14.4879 45.1985 15.0241C45.5075 15.5568 45.6619 16.1836 45.6619 16.9045C45.6619 17.6289 45.5057 18.2521 45.1932 18.7741C44.8807 19.2926 44.4279 19.6903 43.8349 19.9673C43.2454 20.2443 42.5316 20.3828 41.6935 20.3828H38.8118V18.5291H41.3207C41.761 18.5291 42.1268 18.4687 42.418 18.348C42.7092 18.2273 42.9258 18.0462 43.0678 17.8047C43.2134 17.5632 43.2862 17.2631 43.2862 16.9045C43.2862 16.5423 43.2134 16.2369 43.0678 15.9883C42.9258 15.7397 42.7074 15.5515 42.4126 15.4237C42.1214 15.2923 41.7539 15.2266 41.31 15.2266H39.7546V24.25H37.4482ZM43.3395 19.2855L46.0508 24.25H43.5046L40.8519 19.2855H43.3395ZM50.8461 24.4098C50.0045 24.4098 49.2801 24.2393 48.6729 23.8984C48.0692 23.554 47.604 23.0675 47.2773 22.4389C46.9506 21.8068 46.7872 21.0593 46.7872 20.1964C46.7872 19.3548 46.9506 18.6161 47.2773 17.9805C47.604 17.3448 48.0638 16.8494 48.6569 16.4943C49.2535 16.1392 49.953 15.9616 50.7556 15.9616C51.2954 15.9616 51.7979 16.0487 52.2631 16.2227C52.7318 16.3931 53.1402 16.6506 53.4882 16.995C53.8398 17.3395 54.1132 17.7727 54.3085 18.2947C54.5038 18.8132 54.6015 19.4205 54.6015 20.1165V20.7397H47.6927V19.3335H52.4655C52.4655 19.0067 52.3944 18.7173 52.2524 18.4652C52.1104 18.2131 51.9133 18.016 51.6611 17.8739C51.4126 17.7283 51.1231 17.6555 50.7929 17.6555C50.4484 17.6555 50.143 17.7354 49.8767 17.8952C49.6139 18.0515 49.4079 18.2628 49.2588 18.5291C49.1096 18.7919 49.0333 19.0849 49.0297 19.408V20.745C49.0297 21.1499 49.1043 21.4996 49.2535 21.7944C49.4062 22.0891 49.621 22.3164 49.898 22.4762C50.175 22.636 50.5035 22.7159 50.8834 22.7159C51.1356 22.7159 51.3664 22.6804 51.5759 22.6094C51.7854 22.5384 51.9648 22.4318 52.1139 22.2898C52.2631 22.1477 52.3767 21.9737 52.4548 21.7678L54.5535 21.9062C54.447 22.4105 54.2286 22.8509 53.8983 23.2273C53.5716 23.6001 53.1491 23.8913 52.6306 24.1009C52.1157 24.3068 51.5209 24.4098 50.8461 24.4098ZM63.4904 16.0682L60.63 24.25H58.0732L55.2127 16.0682H57.6097L59.3089 21.9222H59.3942L61.0881 16.0682H63.4904ZM64.6516 24.25V16.0682H66.9208V24.25H64.6516ZM65.7915 15.0135C65.4542 15.0135 65.1648 14.9016 64.9233 14.6779C64.6854 14.4506 64.5664 14.179 64.5664 13.8629C64.5664 13.5504 64.6854 13.2823 64.9233 13.0586C65.1648 12.8313 65.4542 12.7177 65.7915 12.7177C66.1289 12.7177 66.4165 12.8313 66.6545 13.0586C66.896 13.2823 67.0167 13.5504 67.0167 13.8629C67.0167 14.179 66.896 14.4506 66.6545 14.6779C66.4165 14.9016 66.1289 15.0135 65.7915 15.0135ZM72.4672 24.4098C71.6256 24.4098 70.9012 24.2393 70.2939 23.8984C69.6903 23.554 69.2251 23.0675 68.8983 22.4389C68.5716 21.8068 68.4083 21.0593 68.4083 20.1964C68.4083 19.3548 68.5716 18.6161 68.8983 17.9805C69.2251 17.3448 69.6849 16.8494 70.278 16.4943C70.8746 16.1392 71.5741 15.9616 72.3767 15.9616C72.9165 15.9616 73.4189 16.0487 73.8841 16.2227C74.3529 16.3931 74.7613 16.6506 75.1093 16.995C75.4608 17.3395 75.7343 17.7727 75.9296 18.2947C76.1249 18.8132 76.2226 19.4205 76.2226 20.1165V20.7397H69.3138V19.3335H74.0866C74.0866 19.0067 74.0155 18.7173 73.8735 18.4652C73.7314 18.2131 73.5344 18.016 73.2822 17.8739C73.0336 17.7283 72.7442 17.6555 72.414 17.6555C72.0695 17.6555 71.7641 17.7354 71.4978 17.8952C71.235 18.0515 71.029 18.2628 70.8799 18.5291C70.7307 18.7919 70.6544 19.0849 70.6508 19.408V20.745C70.6508 21.1499 70.7254 21.4996 70.8746 21.7944C71.0273 22.0891 71.2421 22.3164 71.5191 22.4762C71.7961 22.636 72.1246 22.7159 72.5045 22.7159C72.7567 22.7159 72.9875 22.6804 73.197 22.6094C73.4065 22.5384 73.5858 22.4318 73.735 22.2898C73.8841 22.1477 73.9978 21.9737 74.0759 21.7678L76.1746 21.9062C76.0681 22.4105 75.8497 22.8509 75.5194 23.2273C75.1927 23.6001 74.7702 23.8913 74.2517 24.1009C73.7368 24.3068 73.142 24.4098 72.4672 24.4098ZM79.2588 24.25L77.0322 16.0682H79.328L80.5958 21.5653H80.6704L81.9914 16.0682H84.2446L85.5869 21.5334H85.6562L86.9026 16.0682H89.1931L86.9719 24.25H84.5695L83.1633 19.1044H83.0621L81.6558 24.25H79.2588ZM93.9179 13.3409H96.7623L99.7666 20.6705H99.8944L102.899 13.3409H105.743V24.25H103.506V17.1495H103.415L100.592 24.1967H99.0688L96.2456 17.1229H96.1551V24.25H93.9179V13.3409ZM107.601 24.25V16.0682H109.87V24.25H107.601ZM108.741 15.0135C108.403 15.0135 108.114 14.9016 107.873 14.6779C107.635 14.4506 107.516 14.179 107.516 13.8629C107.516 13.5504 107.635 13.2823 107.873 13.0586C108.114 12.8313 108.403 12.7177 108.741 12.7177C109.078 12.7177 109.366 12.8313 109.604 13.0586C109.845 13.2823 109.966 13.5504 109.966 13.8629C109.966 14.179 109.845 14.4506 109.604 14.6779C109.366 14.9016 109.078 15.0135 108.741 15.0135ZM114.021 24.4045C113.499 24.4045 113.034 24.3139 112.625 24.1328C112.217 23.9482 111.894 23.6765 111.656 23.3178C111.421 22.9556 111.304 22.5046 111.304 21.9648C111.304 21.5103 111.388 21.1286 111.555 20.8196C111.722 20.5107 111.949 20.2621 112.236 20.0739C112.524 19.8857 112.851 19.7436 113.217 19.6477C113.586 19.5518 113.973 19.4844 114.378 19.4453C114.854 19.3956 115.237 19.3494 115.528 19.3068C115.82 19.2607 116.031 19.1932 116.162 19.1044C116.294 19.0156 116.359 18.8842 116.359 18.7102V18.6783C116.359 18.3409 116.253 18.0799 116.04 17.8952C115.83 17.7106 115.532 17.6183 115.145 17.6183C114.736 17.6183 114.411 17.7088 114.17 17.8899C113.929 18.0675 113.769 18.2912 113.691 18.5611L111.592 18.3906C111.698 17.8935 111.908 17.4638 112.22 17.1016C112.533 16.7358 112.936 16.4553 113.43 16.2599C113.927 16.0611 114.502 15.9616 115.155 15.9616C115.61 15.9616 116.045 16.0149 116.46 16.1214C116.88 16.228 117.251 16.3931 117.574 16.6168C117.9 16.8406 118.158 17.1282 118.346 17.4798C118.534 17.8278 118.628 18.245 118.628 18.7315V24.25H116.476V23.1154H116.413C116.281 23.3711 116.105 23.5966 115.885 23.7919C115.665 23.9837 115.4 24.1346 115.092 24.2447C114.783 24.3512 114.426 24.4045 114.021 24.4045ZM114.671 22.8384C115.005 22.8384 115.299 22.7727 115.555 22.6413C115.811 22.5064 116.011 22.3253 116.157 22.098C116.302 21.8707 116.375 21.6133 116.375 21.3256V20.4574C116.304 20.5036 116.207 20.5462 116.082 20.5852C115.962 20.6207 115.825 20.6545 115.672 20.6864C115.519 20.7148 115.367 20.7415 115.214 20.7663C115.061 20.7876 114.923 20.8072 114.799 20.8249C114.532 20.864 114.3 20.9261 114.101 21.0114C113.902 21.0966 113.747 21.212 113.637 21.3576C113.527 21.4996 113.472 21.6772 113.472 21.8903C113.472 22.1992 113.584 22.4354 113.808 22.5987C114.035 22.7585 114.323 22.8384 114.671 22.8384ZM122.291 13.3409V14.4915C122.291 14.8182 122.227 15.152 122.099 15.4929C121.975 15.8303 121.808 16.1499 121.598 16.4517C121.389 16.75 121.16 17.0039 120.911 17.2134L119.91 16.6222C120.087 16.3416 120.243 16.0309 120.378 15.69C120.517 15.3491 120.586 14.9531 120.586 14.5021V13.3409H122.291ZM129.584 18.4013L127.507 18.5291C127.471 18.3516 127.395 18.1918 127.278 18.0497C127.161 17.9041 127.006 17.7887 126.814 17.7035C126.626 17.6147 126.401 17.5703 126.138 17.5703C125.786 17.5703 125.49 17.6449 125.248 17.794C125.007 17.9396 124.886 18.1349 124.886 18.38C124.886 18.5753 124.964 18.7404 125.12 18.8754C125.277 19.0103 125.545 19.1186 125.925 19.2003L127.406 19.4986C128.201 19.6619 128.794 19.9247 129.185 20.2869C129.575 20.6491 129.771 21.125 129.771 21.7145C129.771 22.2507 129.613 22.7212 129.297 23.1261C128.984 23.5309 128.554 23.8469 128.007 24.0742C127.464 24.2979 126.837 24.4098 126.127 24.4098C125.044 24.4098 124.181 24.1843 123.538 23.7333C122.899 23.2788 122.525 22.6609 122.414 21.8796L124.646 21.7624C124.714 22.0927 124.877 22.3448 125.136 22.5188C125.396 22.6893 125.728 22.7745 126.132 22.7745C126.53 22.7745 126.85 22.6982 127.091 22.5455C127.336 22.3892 127.461 22.1886 127.464 21.9435C127.461 21.7376 127.374 21.5689 127.203 21.4375C127.033 21.3026 126.77 21.1996 126.415 21.1286L124.998 20.8462C124.199 20.6864 123.604 20.4094 123.213 20.0153C122.826 19.6211 122.633 19.1186 122.633 18.5078C122.633 17.9822 122.775 17.5295 123.059 17.1495C123.347 16.7695 123.75 16.4766 124.268 16.2706C124.79 16.0646 125.401 15.9616 126.1 15.9616C127.134 15.9616 127.947 16.18 128.54 16.6168C129.137 17.0536 129.485 17.6484 129.584 18.4013ZM134.714 24.25V13.3409H136.983V17.4425H137.052C137.152 17.2223 137.295 16.9986 137.484 16.7713C137.675 16.5405 137.924 16.3487 138.229 16.196C138.538 16.0398 138.922 15.9616 139.38 15.9616C139.977 15.9616 140.527 16.1179 141.031 16.4304C141.536 16.7393 141.939 17.2063 142.24 17.8313C142.542 18.4528 142.693 19.2322 142.693 20.1697C142.693 21.0824 142.546 21.853 142.251 22.4815C141.96 23.1065 141.562 23.5806 141.058 23.9038C140.557 24.2234 139.996 24.3832 139.375 24.3832C138.934 24.3832 138.56 24.3104 138.251 24.1648C137.945 24.0192 137.695 23.8363 137.5 23.6161C137.304 23.3924 137.155 23.1669 137.052 22.9396H136.951V24.25H134.714ZM136.935 20.1591C136.935 20.6456 137.002 21.07 137.137 21.4322C137.272 21.7944 137.468 22.0767 137.723 22.2791C137.979 22.478 138.29 22.5774 138.656 22.5774C139.025 22.5774 139.337 22.4762 139.593 22.2738C139.849 22.0678 140.042 21.7837 140.174 21.4215C140.309 21.0558 140.376 20.6349 140.376 20.1591C140.376 19.6868 140.31 19.2713 140.179 18.9126C140.048 18.554 139.854 18.2734 139.598 18.071C139.343 17.8686 139.028 17.7674 138.656 17.7674C138.286 17.7674 137.974 17.8651 137.718 18.0604C137.466 18.2557 137.272 18.5327 137.137 18.8913C137.002 19.25 136.935 19.6726 136.935 20.1591ZM144.207 24.25V16.0682H146.476V24.25H144.207ZM145.347 15.0135C145.01 15.0135 144.72 14.9016 144.479 14.6779C144.241 14.4506 144.122 14.179 144.122 13.8629C144.122 13.5504 144.241 13.2823 144.479 13.0586C144.72 12.8313 145.01 12.7177 145.347 12.7177C145.685 12.7177 145.972 12.8313 146.21 13.0586C146.452 13.2823 146.572 13.5504 146.572 13.8629C146.572 14.179 146.452 14.4506 146.21 14.6779C145.972 14.9016 145.685 15.0135 145.347 15.0135ZM148.294 24.25V16.0682H150.494V17.4957H150.579C150.729 16.9879 150.979 16.6044 151.33 16.3452C151.682 16.0824 152.087 15.951 152.545 15.951C152.659 15.951 152.781 15.9581 152.912 15.9723C153.044 15.9865 153.159 16.006 153.259 16.0309V18.0444C153.152 18.0124 153.005 17.984 152.817 17.9592C152.628 17.9343 152.456 17.9219 152.3 17.9219C151.966 17.9219 151.668 17.9947 151.405 18.1403C151.146 18.2823 150.94 18.4812 150.787 18.7369C150.638 18.9925 150.563 19.2873 150.563 19.6211V24.25H148.294ZM159.194 16.0682V17.7727H154.267V16.0682H159.194ZM155.385 14.108H157.655V21.7358C157.655 21.9453 157.687 22.1087 157.75 22.2259C157.814 22.3395 157.903 22.4194 158.017 22.4656C158.134 22.5117 158.269 22.5348 158.422 22.5348C158.528 22.5348 158.635 22.5259 158.741 22.5082C158.848 22.4869 158.929 22.4709 158.986 22.4602L159.343 24.1488C159.229 24.1843 159.07 24.2251 158.864 24.2713C158.658 24.321 158.407 24.3512 158.113 24.3619C157.566 24.3832 157.086 24.3104 156.674 24.1435C156.266 23.9766 155.948 23.7173 155.721 23.3658C155.494 23.0142 155.382 22.5703 155.385 22.0341V14.108ZM163.117 19.5199V24.25H160.848V13.3409H163.053V17.5117H163.149C163.334 17.0288 163.632 16.6506 164.044 16.3771C164.456 16.1001 164.973 15.9616 165.594 15.9616C166.162 15.9616 166.658 16.0859 167.08 16.3345C167.506 16.5795 167.837 16.9329 168.071 17.3945C168.309 17.8526 168.426 18.4013 168.422 19.0405V24.25H166.153V19.4453C166.157 18.9411 166.029 18.5487 165.77 18.2681C165.514 17.9876 165.155 17.8473 164.694 17.8473C164.385 17.8473 164.111 17.913 163.873 18.0444C163.639 18.1758 163.454 18.3675 163.32 18.6197C163.188 18.8683 163.121 19.1683 163.117 19.5199ZM173.223 24.3832C172.602 24.3832 172.039 24.2234 171.535 23.9038C171.034 23.5806 170.636 23.1065 170.341 22.4815C170.05 21.853 169.905 21.0824 169.905 20.1697C169.905 19.2322 170.056 18.4528 170.357 17.8313C170.659 17.2063 171.061 16.7393 171.561 16.4304C172.066 16.1179 172.618 15.9616 173.218 15.9616C173.676 15.9616 174.058 16.0398 174.363 16.196C174.672 16.3487 174.921 16.5405 175.109 16.7713C175.301 16.9986 175.446 17.2223 175.546 17.4425H175.615V13.3409H177.879V24.25H175.642V22.9396H175.546C175.439 23.1669 175.288 23.3924 175.093 23.6161C174.901 23.8363 174.651 24.0192 174.342 24.1648C174.036 24.3104 173.664 24.3832 173.223 24.3832ZM173.942 22.5774C174.308 22.5774 174.617 22.478 174.869 22.2791C175.125 22.0767 175.32 21.7944 175.455 21.4322C175.594 21.07 175.663 20.6456 175.663 20.1591C175.663 19.6726 175.595 19.25 175.46 18.8913C175.325 18.5327 175.13 18.2557 174.874 18.0604C174.619 17.8651 174.308 17.7674 173.942 17.7674C173.569 17.7674 173.255 17.8686 172.999 18.071C172.744 18.2734 172.55 18.554 172.419 18.9126C172.287 19.2713 172.222 19.6868 172.222 20.1591C172.222 20.6349 172.287 21.0558 172.419 21.4215C172.554 21.7837 172.747 22.0678 172.999 22.2738C173.255 22.4762 173.569 22.5774 173.942 22.5774ZM182.078 24.4045C181.555 24.4045 181.09 24.3139 180.682 24.1328C180.274 23.9482 179.95 23.6765 179.712 23.3178C179.478 22.9556 179.361 22.5046 179.361 21.9648C179.361 21.5103 179.444 21.1286 179.611 20.8196C179.778 20.5107 180.005 20.2621 180.293 20.0739C180.581 19.8857 180.907 19.7436 181.273 19.6477C181.642 19.5518 182.03 19.4844 182.434 19.4453C182.91 19.3956 183.294 19.3494 183.585 19.3068C183.876 19.2607 184.087 19.1932 184.219 19.1044C184.35 19.0156 184.416 18.8842 184.416 18.7102V18.6783C184.416 18.3409 184.309 18.0799 184.096 17.8952C183.887 17.7106 183.589 17.6183 183.201 17.6183C182.793 17.6183 182.468 17.7088 182.227 17.8899C181.985 18.0675 181.825 18.2912 181.747 18.5611L179.649 18.3906C179.755 17.8935 179.965 17.4638 180.277 17.1016C180.59 16.7358 180.993 16.4553 181.486 16.2599C181.983 16.0611 182.559 15.9616 183.212 15.9616C183.667 15.9616 184.102 16.0149 184.517 16.1214C184.936 16.228 185.307 16.3931 185.63 16.6168C185.957 16.8406 186.215 17.1282 186.403 17.4798C186.591 17.8278 186.685 18.245 186.685 18.7315V24.25H184.533V23.1154H184.469C184.338 23.3711 184.162 23.5966 183.942 23.7919C183.722 23.9837 183.457 24.1346 183.148 24.2447C182.839 24.3512 182.482 24.4045 182.078 24.4045ZM182.727 22.8384C183.061 22.8384 183.356 22.7727 183.612 22.6413C183.867 22.5064 184.068 22.3253 184.214 22.098C184.359 21.8707 184.432 21.6133 184.432 21.3256V20.4574C184.361 20.5036 184.263 20.5462 184.139 20.5852C184.018 20.6207 183.881 20.6545 183.729 20.6864C183.576 20.7148 183.423 20.7415 183.271 20.7663C183.118 20.7876 182.979 20.8072 182.855 20.8249C182.589 20.864 182.356 20.9261 182.157 21.0114C181.959 21.0966 181.804 21.212 181.694 21.3576C181.584 21.4996 181.529 21.6772 181.529 21.8903C181.529 22.1992 181.641 22.4354 181.864 22.5987C182.092 22.7585 182.379 22.8384 182.727 22.8384ZM189.554 27.3182C189.266 27.3182 188.996 27.2951 188.744 27.2489C188.495 27.2063 188.289 27.1513 188.126 27.0838L188.637 25.3899C188.904 25.4716 189.143 25.516 189.356 25.5231C189.573 25.5302 189.759 25.4805 189.916 25.3739C190.076 25.2674 190.205 25.0863 190.305 24.8306L190.438 24.4844L187.503 16.0682H189.889L191.583 22.0767H191.668L193.378 16.0682H195.78L192.6 25.1342C192.448 25.5746 192.24 25.9581 191.977 26.2848C191.718 26.6151 191.389 26.869 190.992 27.0465C190.594 27.2276 190.115 27.3182 189.554 27.3182ZM200.413 24.25V16.0682H202.683V24.25H200.413ZM201.553 15.0135C201.216 15.0135 200.926 14.9016 200.685 14.6779C200.447 14.4506 200.328 14.179 200.328 13.8629C200.328 13.5504 200.447 13.2823 200.685 13.0586C200.926 12.8313 201.216 12.7177 201.553 12.7177C201.891 12.7177 202.178 12.8313 202.416 13.0586C202.658 13.2823 202.778 13.5504 202.778 13.8629C202.778 14.179 202.658 14.4506 202.416 14.6779C202.178 14.9016 201.891 15.0135 201.553 15.0135ZM206.769 19.5199V24.25H204.5V16.0682H206.663V17.5117H206.759C206.94 17.0359 207.244 16.6594 207.67 16.3825C208.096 16.1019 208.612 15.9616 209.22 15.9616C209.788 15.9616 210.283 16.0859 210.706 16.3345C211.128 16.5831 211.457 16.9382 211.691 17.3999C211.926 17.858 212.043 18.4048 212.043 19.0405V24.25H209.774V19.4453C209.777 18.9446 209.649 18.554 209.39 18.2734C209.131 17.9893 208.774 17.8473 208.32 17.8473C208.014 17.8473 207.744 17.913 207.51 18.0444C207.279 18.1758 207.098 18.3675 206.967 18.6197C206.839 18.8683 206.773 19.1683 206.769 19.5199ZM221.166 16.0682L218.306 24.25H215.749L212.888 16.0682H215.286L216.985 21.9222H217.07L218.764 16.0682H221.166ZM222.327 24.25V16.0682H224.597V24.25H222.327ZM223.467 15.0135C223.13 15.0135 222.841 14.9016 222.599 14.6779C222.361 14.4506 222.242 14.179 222.242 13.8629C222.242 13.5504 222.361 13.2823 222.599 13.0586C222.841 12.8313 223.13 12.7177 223.467 12.7177C223.805 12.7177 224.092 12.8313 224.33 13.0586C224.572 13.2823 224.692 13.5504 224.692 13.8629C224.692 14.179 224.572 14.4506 224.33 14.6779C224.092 14.9016 223.805 15.0135 223.467 15.0135ZM230.766 16.0682V17.7727H225.839V16.0682H230.766ZM226.958 14.108H229.227V21.7358C229.227 21.9453 229.259 22.1087 229.323 22.2259C229.387 22.3395 229.475 22.4194 229.589 22.4656C229.706 22.5117 229.841 22.5348 229.994 22.5348C230.1 22.5348 230.207 22.5259 230.313 22.5082C230.42 22.4869 230.502 22.4709 230.559 22.4602L230.915 24.1488C230.802 24.1843 230.642 24.2251 230.436 24.2713C230.23 24.321 229.98 24.3512 229.685 24.3619C229.138 24.3832 228.659 24.3104 228.247 24.1435C227.838 23.9766 227.521 23.7173 227.293 23.3658C227.066 23.0142 226.954 22.5703 226.958 22.0341V14.108ZM235.885 24.4098C235.044 24.4098 234.319 24.2393 233.712 23.8984C233.108 23.554 232.643 23.0675 232.316 22.4389C231.99 21.8068 231.826 21.0593 231.826 20.1964C231.826 19.3548 231.99 18.6161 232.316 17.9805C232.643 17.3448 233.103 16.8494 233.696 16.4943C234.293 16.1392 234.992 15.9616 235.795 15.9616C236.334 15.9616 236.837 16.0487 237.302 16.2227C237.771 16.3931 238.179 16.6506 238.527 16.995C238.879 17.3395 239.152 17.7727 239.348 18.2947C239.543 18.8132 239.641 19.4205 239.641 20.1165V20.7397H232.732V19.3335H237.505C237.505 19.0067 237.434 18.7173 237.291 18.4652C237.149 18.2131 236.952 18.016 236.7 17.8739C236.452 17.7283 236.162 17.6555 235.832 17.6555C235.487 17.6555 235.182 17.7354 234.916 17.8952C234.653 18.0515 234.447 18.2628 234.298 18.5291C234.149 18.7919 234.072 19.0849 234.069 19.408V20.745C234.069 21.1499 234.143 21.4996 234.293 21.7944C234.445 22.0891 234.66 22.3164 234.937 22.4762C235.214 22.636 235.543 22.7159 235.922 22.7159C236.175 22.7159 236.405 22.6804 236.615 22.6094C236.824 22.5384 237.004 22.4318 237.153 22.2898C237.302 22.1477 237.416 21.9737 237.494 21.7678L239.593 21.9062C239.486 22.4105 239.268 22.8509 238.937 23.2273C238.611 23.6001 238.188 23.8913 237.67 24.1009C237.155 24.3068 236.56 24.4098 235.885 24.4098ZM247.608 24.3832C246.987 24.3832 246.424 24.2234 245.919 23.9038C245.419 23.5806 245.021 23.1065 244.726 22.4815C244.435 21.853 244.289 21.0824 244.289 20.1697C244.289 19.2322 244.44 18.4528 244.742 17.8313C245.044 17.2063 245.445 16.7393 245.946 16.4304C246.45 16.1179 247.002 15.9616 247.603 15.9616C248.061 15.9616 248.442 16.0398 248.748 16.196C249.057 16.3487 249.305 16.5405 249.494 16.7713C249.685 16.9986 249.831 17.2223 249.93 17.4425H250V13.3409H252.263V24.25H250.026V22.9396H249.93C249.824 23.1669 249.673 23.3924 249.478 23.6161C249.286 23.8363 249.036 24.0192 248.727 24.1648C248.421 24.3104 248.048 24.3832 247.608 24.3832ZM248.327 22.5774C248.693 22.5774 249.002 22.478 249.254 22.2791C249.51 22.0767 249.705 21.7944 249.84 21.4322C249.978 21.07 250.048 20.6456 250.048 20.1591C250.048 19.6726 249.98 19.25 249.845 18.8913C249.71 18.5327 249.515 18.2557 249.259 18.0604C249.004 17.8651 248.693 17.7674 248.327 17.7674C247.954 17.7674 247.64 17.8686 247.384 18.071C247.129 18.2734 246.935 18.554 246.804 18.9126C246.672 19.2713 246.607 19.6868 246.607 20.1591C246.607 20.6349 246.672 21.0558 246.804 21.4215C246.939 21.7837 247.132 22.0678 247.384 22.2738C247.64 22.4762 247.954 22.5774 248.327 22.5774ZM254.129 24.25V16.0682H256.329V17.4957H256.414C256.563 16.9879 256.814 16.6044 257.165 16.3452C257.517 16.0824 257.922 15.951 258.38 15.951C258.494 15.951 258.616 15.9581 258.747 15.9723C258.879 15.9865 258.994 16.006 259.094 16.0309V18.0444C258.987 18.0124 258.84 17.984 258.652 17.9592C258.463 17.9343 258.291 17.9219 258.135 17.9219C257.801 17.9219 257.503 17.9947 257.24 18.1403C256.981 18.2823 256.775 18.4812 256.622 18.7369C256.473 18.9925 256.398 19.2873 256.398 19.6211V24.25H254.129ZM262.366 24.4045C261.844 24.4045 261.378 24.3139 260.97 24.1328C260.562 23.9482 260.238 23.6765 260.001 23.3178C259.766 22.9556 259.649 22.5046 259.649 21.9648C259.649 21.5103 259.732 21.1286 259.899 20.8196C260.066 20.5107 260.294 20.2621 260.581 20.0739C260.869 19.8857 261.195 19.7436 261.561 19.6477C261.931 19.5518 262.318 19.4844 262.722 19.4453C263.198 19.3956 263.582 19.3494 263.873 19.3068C264.164 19.2607 264.376 19.1932 264.507 19.1044C264.638 19.0156 264.704 18.8842 264.704 18.7102V18.6783C264.704 18.3409 264.597 18.0799 264.384 17.8952C264.175 17.7106 263.877 17.6183 263.49 17.6183C263.081 17.6183 262.756 17.7088 262.515 17.8899C262.273 18.0675 262.113 18.2912 262.035 18.5611L259.937 18.3906C260.043 17.8935 260.253 17.4638 260.565 17.1016C260.878 16.7358 261.281 16.4553 261.774 16.2599C262.271 16.0611 262.847 15.9616 263.5 15.9616C263.955 15.9616 264.39 16.0149 264.805 16.1214C265.224 16.228 265.595 16.3931 265.919 16.6168C266.245 16.8406 266.503 17.1282 266.691 17.4798C266.879 17.8278 266.973 18.245 266.973 18.7315V24.25H264.821V23.1154H264.757C264.626 23.3711 264.45 23.5966 264.23 23.7919C264.01 23.9837 263.745 24.1346 263.436 24.2447C263.127 24.3512 262.77 24.4045 262.366 24.4045ZM263.015 22.8384C263.349 22.8384 263.644 22.7727 263.9 22.6413C264.155 22.5064 264.356 22.3253 264.502 22.098C264.647 21.8707 264.72 21.6133 264.72 21.3256V20.4574C264.649 20.5036 264.551 20.5462 264.427 20.5852C264.306 20.6207 264.17 20.6545 264.017 20.6864C263.864 20.7148 263.711 20.7415 263.559 20.7663C263.406 20.7876 263.268 20.8072 263.143 20.8249C262.877 20.864 262.644 20.9261 262.445 21.0114C262.247 21.0966 262.092 21.212 261.982 21.3576C261.872 21.4996 261.817 21.6772 261.817 21.8903C261.817 22.1992 261.929 22.4354 262.153 22.5987C262.38 22.7585 262.667 22.8384 263.015 22.8384ZM273.134 16.0682V17.7727H268.084V16.0682H273.134ZM269.24 24.25V15.4769C269.24 14.8839 269.355 14.392 269.586 14.0014C269.82 13.6108 270.14 13.3178 270.545 13.1225C270.95 12.9272 271.409 12.8295 271.924 12.8295C272.272 12.8295 272.59 12.8562 272.878 12.9094C273.169 12.9627 273.386 13.0107 273.528 13.0533L273.123 14.7578C273.034 14.7294 272.924 14.7028 272.793 14.6779C272.665 14.6531 272.533 14.6406 272.398 14.6406C272.065 14.6406 271.832 14.7188 271.701 14.875C271.569 15.0277 271.504 15.2425 271.504 15.5195V24.25H269.24ZM278.872 16.0682V17.7727H273.945V16.0682H278.872ZM275.063 14.108H277.332V21.7358C277.332 21.9453 277.364 22.1087 277.428 22.2259C277.492 22.3395 277.581 22.4194 277.695 22.4656C277.812 22.5117 277.947 22.5348 278.099 22.5348C278.206 22.5348 278.312 22.5259 278.419 22.5082C278.525 22.4869 278.607 22.4709 278.664 22.4602L279.021 24.1488C278.907 24.1843 278.747 24.2251 278.541 24.2713C278.335 24.321 278.085 24.3512 277.79 24.3619C277.244 24.3832 276.764 24.3104 276.352 24.1435C275.944 23.9766 275.626 23.7173 275.399 23.3658C275.171 23.0142 275.06 22.5703 275.063 22.0341V14.108ZM39.7386 44.4045C39.2166 44.4045 38.7514 44.3139 38.343 44.1328C37.9347 43.9482 37.6115 43.6765 37.3736 43.3178C37.1392 42.9556 37.022 42.5046 37.022 41.9648C37.022 41.5103 37.1055 41.1286 37.2724 40.8196C37.4393 40.5107 37.6665 40.2621 37.9542 40.0739C38.2418 39.8857 38.5685 39.7436 38.9343 39.6477C39.3036 39.5518 39.6907 39.4844 40.0955 39.4453C40.5714 39.3956 40.9549 39.3494 41.2461 39.3068C41.5373 39.2607 41.7486 39.1932 41.88 39.1044C42.0114 39.0156 42.0771 38.8842 42.0771 38.7102V38.6783C42.0771 38.3409 41.9705 38.0799 41.7575 37.8952C41.5479 37.7106 41.2496 37.6183 40.8626 37.6183C40.4542 37.6183 40.1293 37.7088 39.8878 37.8899C39.6463 38.0675 39.4865 38.2912 39.4084 38.5611L37.3097 38.3906C37.4162 37.8935 37.6257 37.4638 37.9382 37.1016C38.2507 36.7358 38.6538 36.4553 39.1474 36.2599C39.6445 36.0611 40.2198 35.9616 40.8732 35.9616C41.3278 35.9616 41.7628 36.0149 42.1783 36.1214C42.5973 36.228 42.9684 36.3931 43.2915 36.6168C43.6183 36.8406 43.8757 37.1282 44.0639 37.4798C44.2521 37.8278 44.3462 38.245 44.3462 38.7315V44.25H42.1942V43.1154H42.1303C41.9989 43.3711 41.8232 43.5966 41.603 43.7919C41.3828 43.9837 41.1183 44.1346 40.8093 44.2447C40.5004 44.3512 40.1435 44.4045 39.7386 44.4045ZM40.3885 42.8384C40.7223 42.8384 41.017 42.7727 41.2727 42.6413C41.5284 42.5064 41.729 42.3253 41.8746 42.098C42.0202 41.8707 42.093 41.6133 42.093 41.3256V40.4574C42.022 40.5036 41.9244 40.5462 41.8001 40.5852C41.6793 40.6207 41.5426 40.6545 41.3899 40.6864C41.2372 40.7148 41.0845 40.7415 40.9318 40.7663C40.7791 40.7876 40.6406 40.8072 40.5163 40.8249C40.25 40.864 40.0174 40.9261 39.8185 41.0114C39.6197 41.0966 39.4652 41.212 39.3551 41.3576C39.245 41.4996 39.19 41.6772 39.19 41.8903C39.19 42.1992 39.3018 42.4354 39.5256 42.5987C39.7528 42.7585 40.0405 42.8384 40.3885 42.8384ZM48.3759 39.5199V44.25H46.1067V36.0682H48.2694V37.5117H48.3652C48.5463 37.0359 48.85 36.6594 49.2761 36.3825C49.7022 36.1019 50.2189 35.9616 50.8262 35.9616C51.3944 35.9616 51.8897 36.0859 52.3123 36.3345C52.7349 36.5831 53.0634 36.9382 53.2978 37.3999C53.5321 37.858 53.6493 38.4048 53.6493 39.0405V44.25H51.3801V39.4453C51.3837 38.9446 51.2559 38.554 50.9966 38.2734C50.7374 37.9893 50.3805 37.8473 49.926 37.8473C49.6206 37.8473 49.3507 37.913 49.1163 38.0444C48.8855 38.1758 48.7044 38.3675 48.573 38.6197C48.4451 38.8683 48.3794 39.1683 48.3759 39.5199ZM58.4527 44.3832C57.8312 44.3832 57.2684 44.2234 56.7641 43.9038C56.2634 43.5806 55.8657 43.1065 55.5709 42.4815C55.2797 41.853 55.1341 41.0824 55.1341 40.1697C55.1341 39.2322 55.2851 38.4528 55.5869 37.8313C55.8888 37.2063 56.29 36.7393 56.7907 36.4304C57.295 36.1179 57.8472 35.9616 58.4474 35.9616C58.9055 35.9616 59.2872 36.0398 59.5926 36.196C59.9015 36.3487 60.1501 36.5405 60.3383 36.7713C60.5301 36.9986 60.6757 37.2223 60.7751 37.4425H60.8444V33.3409H63.1082V44.25H60.871V42.9396H60.7751C60.6686 43.1669 60.5177 43.3924 60.3224 43.6161C60.1306 43.8363 59.8802 44.0192 59.5713 44.1648C59.2659 44.3104 58.893 44.3832 58.4527 44.3832ZM59.1718 42.5774C59.5376 42.5774 59.8465 42.478 60.0986 42.2791C60.3543 42.0767 60.5496 41.7944 60.6846 41.4322C60.8231 41.07 60.8923 40.6456 60.8923 40.1591C60.8923 39.6726 60.8248 39.25 60.6899 38.8913C60.555 38.5327 60.3596 38.2557 60.104 38.0604C59.8483 37.8651 59.5376 37.7674 59.1718 37.7674C58.7989 37.7674 58.4846 37.8686 58.229 38.071C57.9733 38.2734 57.7797 38.554 57.6483 38.9126C57.517 39.2713 57.4513 39.6868 57.4513 40.1591C57.4513 40.6349 57.517 41.0558 57.6483 41.4215C57.7833 41.7837 57.9768 42.0678 58.229 42.2738C58.4846 42.4762 58.7989 42.5774 59.1718 42.5774ZM72.1423 44.4098C71.3042 44.4098 70.5834 44.2322 69.9797 43.8771C69.3795 43.5185 68.9179 43.0213 68.5947 42.3857C68.2751 41.75 68.1153 41.0185 68.1153 40.1911C68.1153 39.353 68.2769 38.6179 68.6001 37.9858C68.9268 37.3501 69.3902 36.8548 69.9903 36.4996C70.5905 36.141 71.3042 35.9616 72.1317 35.9616C72.8454 35.9616 73.4704 36.0913 74.0067 36.3505C74.5429 36.6097 74.9672 36.9737 75.2797 37.4425C75.5922 37.9112 75.7645 38.4616 75.7964 39.0938H73.6551C73.5947 38.6854 73.4349 38.3569 73.1757 38.1083C72.92 37.8562 72.5844 37.7301 72.1689 37.7301C71.8174 37.7301 71.5102 37.826 71.2474 38.0178C70.9882 38.206 70.7858 38.4812 70.6402 38.8434C70.4946 39.2056 70.4218 39.6442 70.4218 40.1591C70.4218 40.6811 70.4928 41.125 70.6349 41.4908C70.7805 41.8565 70.9846 42.1353 71.2474 42.3271C71.5102 42.5188 71.8174 42.6147 72.1689 42.6147C72.4282 42.6147 72.6608 42.5614 72.8667 42.4549C73.0763 42.3484 73.2485 42.1939 73.3834 41.9915C73.5219 41.7855 73.6125 41.5387 73.6551 41.2511H75.7964C75.7609 41.8761 75.5905 42.4265 75.2851 42.9023C74.9832 43.3746 74.566 43.744 74.0333 44.0103C73.5006 44.2766 72.8703 44.4098 72.1423 44.4098ZM80.946 44.4098C80.1186 44.4098 79.4031 44.234 78.7994 43.8825C78.1992 43.5273 77.7358 43.0337 77.4091 42.4016C77.0824 41.766 76.919 41.0291 76.919 40.1911C76.919 39.3459 77.0824 38.6072 77.4091 37.9751C77.7358 37.3395 78.1992 36.8459 78.7994 36.4943C79.4031 36.1392 80.1186 35.9616 80.946 35.9616C81.7734 35.9616 82.4872 36.1392 83.0874 36.4943C83.6911 36.8459 84.1562 37.3395 84.483 37.9751C84.8097 38.6072 84.973 39.3459 84.973 40.1911C84.973 41.0291 84.8097 41.766 84.483 42.4016C84.1562 43.0337 83.6911 43.5273 83.0874 43.8825C82.4872 44.234 81.7734 44.4098 80.946 44.4098ZM80.9567 42.652C81.3331 42.652 81.6474 42.5455 81.8995 42.3324C82.1516 42.1158 82.3416 41.821 82.4695 41.4482C82.6009 41.0753 82.6665 40.6509 82.6665 40.1751C82.6665 39.6992 82.6009 39.2749 82.4695 38.902C82.3416 38.5291 82.1516 38.2344 81.8995 38.0178C81.6474 37.8011 81.3331 37.6928 80.9567 37.6928C80.5767 37.6928 80.2571 37.8011 79.9979 38.0178C79.7422 38.2344 79.5487 38.5291 79.4173 38.902C79.2894 39.2749 79.2255 39.6992 79.2255 40.1751C79.2255 40.6509 79.2894 41.0753 79.4173 41.4482C79.5487 41.821 79.7422 42.1158 79.9979 42.3324C80.2571 42.5455 80.5767 42.652 80.9567 42.652ZM88.7177 39.5199V44.25H86.4485V36.0682H88.6112V37.5117H88.707C88.8881 37.0359 89.1918 36.6594 89.6179 36.3825C90.044 36.1019 90.5607 35.9616 91.168 35.9616C91.7362 35.9616 92.2315 36.0859 92.6541 36.3345C93.0767 36.5831 93.4052 36.9382 93.6396 37.3999C93.8739 37.858 93.9911 38.4048 93.9911 39.0405V44.25H91.7219V39.4453C91.7255 38.9446 91.5977 38.554 91.3384 38.2734C91.0792 37.9893 90.7223 37.8473 90.2678 37.8473C89.9624 37.8473 89.6925 37.913 89.4581 38.0444C89.2273 38.1758 89.0462 38.3675 88.9148 38.6197C88.7869 38.8683 88.7212 39.1683 88.7177 39.5199ZM100.179 36.0682V37.7727H95.1297V36.0682H100.179ZM96.2856 44.25V35.4769C96.2856 34.8839 96.401 34.392 96.6318 34.0014C96.8662 33.6108 97.1858 33.3178 97.5906 33.1225C97.9955 32.9272 98.4553 32.8295 98.9703 32.8295C99.3183 32.8295 99.6361 32.8562 99.9237 32.9094C100.215 32.9627 100.432 33.0107 100.574 33.0533L100.169 34.7578C100.08 34.7294 99.9699 34.7028 99.8385 34.6779C99.7107 34.6531 99.5793 34.6406 99.4443 34.6406C99.1105 34.6406 98.8779 34.7188 98.7465 34.875C98.6151 35.0277 98.5494 35.2425 98.5494 35.5195V44.25H96.2856ZM101.566 44.25V36.0682H103.835V44.25H101.566ZM102.706 35.0135C102.368 35.0135 102.079 34.9016 101.837 34.6779C101.599 34.4506 101.48 34.179 101.48 33.8629C101.48 33.5504 101.599 33.2823 101.837 33.0586C102.079 32.8313 102.368 32.7177 102.706 32.7177C103.043 32.7177 103.331 32.8313 103.569 33.0586C103.81 33.2823 103.931 33.5504 103.931 33.8629C103.931 34.179 103.81 34.4506 103.569 34.6779C103.331 34.9016 103.043 35.0135 102.706 35.0135ZM105.653 44.25V36.0682H107.853V37.4957H107.938C108.087 36.9879 108.337 36.6044 108.689 36.3452C109.04 36.0824 109.445 35.951 109.903 35.951C110.017 35.951 110.139 35.9581 110.271 35.9723C110.402 35.9865 110.518 36.006 110.617 36.0309V38.0444C110.511 38.0124 110.363 37.984 110.175 37.9592C109.987 37.9343 109.815 37.9219 109.658 37.9219C109.324 37.9219 109.026 37.9947 108.763 38.1403C108.504 38.2823 108.298 38.4812 108.146 38.7369C107.996 38.9925 107.922 39.2873 107.922 39.6211V44.25H105.653ZM111.79 44.25V36.0682H113.953V37.5117H114.049C114.219 37.0323 114.503 36.6541 114.901 36.3771C115.299 36.1001 115.775 35.9616 116.329 35.9616C116.89 35.9616 117.367 36.1019 117.762 36.3825C118.156 36.6594 118.419 37.0359 118.55 37.5117H118.635C118.802 37.043 119.104 36.6683 119.541 36.3878C119.981 36.1037 120.501 35.9616 121.101 35.9616C121.865 35.9616 122.485 36.2049 122.96 36.6914C123.44 37.1744 123.68 37.8597 123.68 38.7475V44.25H121.416V39.195C121.416 38.7404 121.295 38.3995 121.053 38.1722C120.812 37.945 120.51 37.8313 120.148 37.8313C119.736 37.8313 119.415 37.9627 119.184 38.2255C118.953 38.4847 118.838 38.8274 118.838 39.2536V44.25H116.638V39.147C116.638 38.7457 116.522 38.4261 116.291 38.1882C116.064 37.9503 115.764 37.8313 115.391 37.8313C115.139 37.8313 114.912 37.8952 114.709 38.0231C114.51 38.1474 114.352 38.3232 114.235 38.5504C114.118 38.7741 114.059 39.0369 114.059 39.3388V44.25H111.79ZM132.64 44.4098C131.802 44.4098 131.081 44.2322 130.478 43.8771C129.878 43.5185 129.416 43.0213 129.093 42.3857C128.773 41.75 128.613 41.0185 128.613 40.1911C128.613 39.353 128.775 38.6179 129.098 37.9858C129.425 37.3501 129.888 36.8548 130.488 36.4996C131.089 36.141 131.802 35.9616 132.63 35.9616C133.343 35.9616 133.968 36.0913 134.505 36.3505C135.041 36.6097 135.465 36.9737 135.778 37.4425C136.09 37.9112 136.263 38.4616 136.294 39.0938H134.153C134.093 38.6854 133.933 38.3569 133.674 38.1083C133.418 37.8562 133.082 37.7301 132.667 37.7301C132.315 37.7301 132.008 37.826 131.745 38.0178C131.486 38.206 131.284 38.4812 131.138 38.8434C130.993 39.2056 130.92 39.6442 130.92 40.1591C130.92 40.6811 130.991 41.125 131.133 41.4908C131.278 41.8565 131.483 42.1353 131.745 42.3271C132.008 42.5188 132.315 42.6147 132.667 42.6147C132.926 42.6147 133.159 42.5614 133.365 42.4549C133.574 42.3484 133.747 42.1939 133.881 41.9915C134.02 41.7855 134.111 41.5387 134.153 41.2511H136.294C136.259 41.8761 136.089 42.4265 135.783 42.9023C135.481 43.3746 135.064 43.744 134.531 44.0103C133.999 44.2766 133.368 44.4098 132.64 44.4098ZM140.017 39.5199V44.25H137.747V33.3409H139.953V37.5117H140.048C140.233 37.0288 140.531 36.6506 140.943 36.3771C141.355 36.1001 141.872 35.9616 142.493 35.9616C143.062 35.9616 143.557 36.0859 143.98 36.3345C144.406 36.5795 144.736 36.9329 144.97 37.3945C145.208 37.8526 145.325 38.4013 145.322 39.0405V44.25H143.053V39.4453C143.056 38.9411 142.928 38.5487 142.669 38.2681C142.414 37.9876 142.055 37.8473 141.593 37.8473C141.284 37.8473 141.011 37.913 140.773 38.0444C140.539 38.1758 140.354 38.3675 140.219 38.6197C140.088 38.8683 140.02 39.1683 140.017 39.5199ZM149.441 44.4045C148.919 44.4045 148.454 44.3139 148.045 44.1328C147.637 43.9482 147.314 43.6765 147.076 43.3178C146.841 42.9556 146.724 42.5046 146.724 41.9648C146.724 41.5103 146.808 41.1286 146.975 40.8196C147.141 40.5107 147.369 40.2621 147.656 40.0739C147.944 39.8857 148.271 39.7436 148.636 39.6477C149.006 39.5518 149.393 39.4844 149.798 39.4453C150.274 39.3956 150.657 39.3494 150.948 39.3068C151.239 39.2607 151.451 39.1932 151.582 39.1044C151.714 39.0156 151.779 38.8842 151.779 38.7102V38.6783C151.779 38.3409 151.673 38.0799 151.46 37.8952C151.25 37.7106 150.952 37.6183 150.565 37.6183C150.156 37.6183 149.831 37.7088 149.59 37.8899C149.348 38.0675 149.189 38.2912 149.111 38.5611L147.012 38.3906C147.118 37.8935 147.328 37.4638 147.64 37.1016C147.953 36.7358 148.356 36.4553 148.85 36.2599C149.347 36.0611 149.922 35.9616 150.575 35.9616C151.03 35.9616 151.465 36.0149 151.88 36.1214C152.299 36.228 152.671 36.3931 152.994 36.6168C153.32 36.8406 153.578 37.1282 153.766 37.4798C153.954 37.8278 154.048 38.245 154.048 38.7315V44.25H151.896V43.1154H151.832C151.701 43.3711 151.525 43.5966 151.305 43.7919C151.085 43.9837 150.82 44.1346 150.511 44.2447C150.203 44.3512 149.846 44.4045 149.441 44.4045ZM150.091 42.8384C150.424 42.8384 150.719 42.7727 150.975 42.6413C151.231 42.5064 151.431 42.3253 151.577 42.098C151.722 41.8707 151.795 41.6133 151.795 41.3256V40.4574C151.724 40.5036 151.627 40.5462 151.502 40.5852C151.381 40.6207 151.245 40.6545 151.092 40.6864C150.939 40.7148 150.787 40.7415 150.634 40.7663C150.481 40.7876 150.343 40.8072 150.218 40.8249C149.952 40.864 149.72 40.9261 149.521 41.0114C149.322 41.0966 149.167 41.212 149.057 41.3576C148.947 41.4996 148.892 41.6772 148.892 41.8903C148.892 42.1992 149.004 42.4354 149.228 42.5987C149.455 42.7585 149.743 42.8384 150.091 42.8384ZM158.078 39.5199V44.25H155.809V36.0682H157.972V37.5117H158.067C158.248 37.0359 158.552 36.6594 158.978 36.3825C159.404 36.1019 159.921 35.9616 160.528 35.9616C161.097 35.9616 161.592 36.0859 162.014 36.3345C162.437 36.5831 162.766 36.9382 163 37.3999C163.234 37.858 163.351 38.4048 163.351 39.0405V44.25H161.082V39.4453C161.086 38.9446 160.958 38.554 160.699 38.2734C160.44 37.9893 160.083 37.8473 159.628 37.8473C159.323 37.8473 159.053 37.913 158.818 38.0444C158.588 38.1758 158.407 38.3675 158.275 38.6197C158.147 38.8683 158.082 39.1683 158.078 39.5199ZM168.826 47.4886C168.091 47.4886 167.461 47.3874 166.935 47.185C166.413 46.9862 165.998 46.7145 165.689 46.37C165.38 46.0256 165.179 45.6385 165.087 45.2088L167.185 44.9265C167.249 45.0898 167.35 45.2425 167.489 45.3846C167.627 45.5266 167.81 45.6403 168.038 45.7255C168.268 45.8143 168.549 45.8587 168.879 45.8587C169.373 45.8587 169.779 45.7379 170.099 45.4964C170.422 45.2585 170.584 44.859 170.584 44.2979V42.8011H170.488C170.388 43.0284 170.239 43.2433 170.04 43.4457C169.842 43.6481 169.586 43.8132 169.273 43.9411C168.961 44.0689 168.588 44.1328 168.155 44.1328C167.54 44.1328 166.981 43.9908 166.477 43.7067C165.976 43.419 165.577 42.9805 165.278 42.391C164.984 41.7979 164.836 41.0487 164.836 40.1431C164.836 39.2163 164.987 38.4421 165.289 37.8207C165.591 37.1992 165.992 36.734 166.493 36.4251C166.997 36.1161 167.549 35.9616 168.15 35.9616C168.608 35.9616 168.991 36.0398 169.3 36.196C169.609 36.3487 169.858 36.5405 170.046 36.7713C170.238 36.9986 170.385 37.2223 170.488 37.4425H170.573V36.0682H172.826V44.3299C172.826 45.0259 172.656 45.6083 172.315 46.0771C171.974 46.5458 171.502 46.8974 170.898 47.1317C170.298 47.3697 169.607 47.4886 168.826 47.4886ZM168.874 42.4283C169.24 42.4283 169.549 42.3377 169.801 42.1566C170.056 41.9719 170.252 41.7092 170.387 41.3683C170.525 41.0238 170.594 40.6119 170.594 40.1325C170.594 39.6531 170.527 39.2376 170.392 38.886C170.257 38.5309 170.062 38.2557 169.806 38.0604C169.55 37.8651 169.24 37.7674 168.874 37.7674C168.501 37.7674 168.187 37.8686 167.931 38.071C167.675 38.2699 167.482 38.5469 167.35 38.902C167.219 39.2571 167.153 39.6673 167.153 40.1325C167.153 40.6048 167.219 41.0131 167.35 41.3576C167.485 41.6985 167.679 41.9631 167.931 42.1513C168.187 42.3359 168.501 42.4283 168.874 42.4283ZM178.361 44.4098C177.519 44.4098 176.795 44.2393 176.188 43.8984C175.584 43.554 175.119 43.0675 174.792 42.4389C174.465 41.8068 174.302 41.0593 174.302 40.1964C174.302 39.3548 174.465 38.6161 174.792 37.9805C175.119 37.3448 175.578 36.8494 176.172 36.4943C176.768 36.1392 177.468 35.9616 178.27 35.9616C178.81 35.9616 179.313 36.0487 179.778 36.2227C180.246 36.3931 180.655 36.6506 181.003 36.995C181.354 37.3395 181.628 37.7727 181.823 38.2947C182.018 38.8132 182.116 39.4205 182.116 40.1165V40.7397H175.207V39.3335H179.98C179.98 39.0067 179.909 38.7173 179.767 38.4652C179.625 38.2131 179.428 38.016 179.176 37.8739C178.927 37.7283 178.638 37.6555 178.308 37.6555C177.963 37.6555 177.658 37.7354 177.391 37.8952C177.129 38.0515 176.923 38.2628 176.773 38.5291C176.624 38.7919 176.548 39.0849 176.544 39.408V40.745C176.544 41.1499 176.619 41.4996 176.768 41.7944C176.921 42.0891 177.136 42.3164 177.413 42.4762C177.69 42.636 178.018 42.7159 178.398 42.7159C178.65 42.7159 178.881 42.6804 179.091 42.6094C179.3 42.5384 179.479 42.4318 179.629 42.2898C179.778 42.1477 179.891 41.9737 179.969 41.7678L182.068 41.9062C181.962 42.4105 181.743 42.8509 181.413 43.2273C181.086 43.6001 180.664 43.8913 180.145 44.1009C179.63 44.3068 179.036 44.4098 178.361 44.4098ZM190.404 38.4013L188.327 38.5291C188.292 38.3516 188.215 38.1918 188.098 38.0497C187.981 37.9041 187.826 37.7887 187.635 37.7035C187.446 37.6147 187.221 37.5703 186.958 37.5703C186.607 37.5703 186.31 37.6449 186.069 37.794C185.827 37.9396 185.706 38.1349 185.706 38.38C185.706 38.5753 185.784 38.7404 185.941 38.8754C186.097 39.0103 186.365 39.1186 186.745 39.2003L188.226 39.4986C189.021 39.6619 189.614 39.9247 190.005 40.2869C190.396 40.6491 190.591 41.125 190.591 41.7145C190.591 42.2507 190.433 42.7212 190.117 43.1261C189.804 43.5309 189.375 43.8469 188.828 44.0742C188.284 44.2979 187.658 44.4098 186.947 44.4098C185.864 44.4098 185.001 44.1843 184.359 43.7333C183.719 43.2788 183.345 42.6609 183.235 41.8796L185.467 41.7624C185.534 42.0927 185.697 42.3448 185.957 42.5188C186.216 42.6893 186.548 42.7745 186.953 42.7745C187.35 42.7745 187.67 42.6982 187.912 42.5455C188.157 42.3892 188.281 42.1886 188.284 41.9435C188.281 41.7376 188.194 41.5689 188.023 41.4375C187.853 41.3026 187.59 41.1996 187.235 41.1286L185.818 40.8462C185.019 40.6864 184.424 40.4094 184.034 40.0153C183.647 39.6211 183.453 39.1186 183.453 38.5078C183.453 37.9822 183.595 37.5295 183.879 37.1495C184.167 36.7695 184.57 36.4766 185.088 36.2706C185.61 36.0646 186.221 35.9616 186.921 35.9616C187.954 35.9616 188.767 36.18 189.36 36.6168C189.957 37.0536 190.305 37.6484 190.404 38.4013Z" fill="white"/>
<path d="M41.3947 54.9318H42.8713V61.8928C42.8713 62.5224 42.7466 63.0609 42.4973 63.5083C42.2512 63.9558 41.9045 64.2978 41.457 64.5343C41.0096 64.7676 40.4854 64.8842 39.8846 64.8842C39.3317 64.8842 38.8347 64.7836 38.3936 64.5822C37.9558 64.3809 37.609 64.0884 37.3533 63.7049C37.1009 63.3182 36.9746 62.8484 36.9746 62.2955H38.4464C38.4464 62.5671 38.5087 62.802 38.6333 63.0002C38.7612 63.1983 38.9354 63.3533 39.1559 63.4652C39.3796 63.5739 39.6353 63.6282 39.9229 63.6282C40.2362 63.6282 40.5014 63.5627 40.7188 63.4316C40.9393 63.2974 41.1071 63.1009 41.2221 62.842C41.3372 62.5831 41.3947 62.2667 41.3947 61.8928V54.9318ZM49.4269 61.6962V57.3864H50.8651V64.75H49.4557V63.4748H49.379C49.2096 63.8679 48.9379 64.1955 48.564 64.4576C48.1933 64.7164 47.7314 64.8459 47.1785 64.8459C46.7055 64.8459 46.2868 64.742 45.9225 64.5343C45.5613 64.3233 45.2769 64.0117 45.0691 63.5994C44.8646 63.1871 44.7623 62.6774 44.7623 62.0701V57.3864H46.1957V61.8975C46.1957 62.3993 46.3348 62.7988 46.6128 63.0961C46.8909 63.3933 47.252 63.5419 47.6963 63.5419C47.9647 63.5419 48.2316 63.4748 48.4969 63.3406C48.7653 63.2063 48.9875 63.0034 49.1633 62.7317C49.3422 62.46 49.4301 62.1149 49.4269 61.6962ZM54.0746 60.3778V64.75H52.6411V57.3864H54.017V58.5849H54.1081C54.2775 58.195 54.5428 57.8817 54.9039 57.6452C55.2683 57.4087 55.7269 57.2905 56.2798 57.2905C56.7816 57.2905 57.221 57.396 57.5982 57.6069C57.9753 57.8146 58.2677 58.1246 58.4755 58.5369C58.6832 58.9492 58.7871 59.459 58.7871 60.0662V64.75H57.3537V60.2388C57.3537 59.7051 57.2146 59.288 56.9366 58.9876C56.6585 58.6839 56.2766 58.5321 55.7908 58.5321C55.4584 58.5321 55.1628 58.604 54.9039 58.7479C54.6482 58.8917 54.4453 59.1026 54.2951 59.3807C54.1481 59.6555 54.0746 59.9879 54.0746 60.3778ZM63.7331 64.8986C63.0077 64.8986 62.3828 64.7436 61.8587 64.4336C61.3377 64.1204 60.935 63.6809 60.6506 63.1152C60.3693 62.5463 60.2287 61.88 60.2287 61.1161C60.2287 60.3619 60.3693 59.6971 60.6506 59.1218C60.935 58.5465 61.3313 58.0975 61.8395 57.7747C62.3509 57.4519 62.9485 57.2905 63.6325 57.2905C64.048 57.2905 64.4507 57.3592 64.8406 57.4966C65.2305 57.6341 65.5805 57.8498 65.8905 58.1438C66.2005 58.4379 66.445 58.8198 66.624 59.2896C66.8029 59.7562 66.8924 60.3235 66.8924 60.9915V61.4996H61.0389V60.4258H65.4878C65.4878 60.0487 65.4111 59.7147 65.2577 59.4238C65.1042 59.1298 64.8885 58.8981 64.6105 58.7287C64.3356 58.5593 64.0128 58.4746 63.6421 58.4746C63.2394 58.4746 62.8878 58.5737 62.5874 58.7718C62.2901 58.9668 62.06 59.2225 61.897 59.5389C61.7372 59.8521 61.6573 60.1925 61.6573 60.56V61.399C61.6573 61.8912 61.7436 62.3098 61.9162 62.655C62.092 63.0002 62.3365 63.2638 62.6497 63.446C62.9629 63.625 63.3289 63.7145 63.7475 63.7145C64.0192 63.7145 64.2669 63.6761 64.4906 63.5994C64.7143 63.5195 64.9077 63.4013 65.0707 63.2447C65.2337 63.0881 65.3583 62.8947 65.4446 62.6646L66.8013 62.9091C66.6927 63.3086 66.4977 63.6586 66.2165 63.959C65.9384 64.2562 65.5884 64.4879 65.1666 64.6541C64.7479 64.8171 64.2701 64.8986 63.7331 64.8986ZM71.7364 64.75V63.6761L75.0587 60.234C75.4134 59.8601 75.7059 59.5325 75.936 59.2512C76.1693 58.9668 76.3435 58.6967 76.4585 58.4411C76.5736 58.1854 76.6311 57.9137 76.6311 57.6261C76.6311 57.3001 76.5544 57.0188 76.401 56.7823C76.2476 56.5426 76.0383 56.3588 75.773 56.231C75.5077 56.1 75.2089 56.0344 74.8765 56.0344C74.5249 56.0344 74.2181 56.1064 73.9561 56.2502C73.694 56.394 73.4926 56.5969 73.352 56.859C73.2114 57.1211 73.1411 57.4279 73.1411 57.7795H71.7268C71.7268 57.1818 71.8643 56.6593 72.1391 56.2118C72.414 55.7644 72.7911 55.4176 73.2705 55.1715C73.7499 54.9222 74.2948 54.7976 74.9053 54.7976C75.5221 54.7976 76.0654 54.9206 76.5352 55.1667C77.0083 55.4096 77.3774 55.742 77.6427 56.1639C77.9079 56.5826 78.0406 57.0556 78.0406 57.5829C78.0406 57.9473 77.9719 58.3036 77.8344 58.652C77.7002 59.0004 77.4653 59.3887 77.1297 59.8169C76.7941 60.242 76.3275 60.7582 75.7298 61.3654L73.7787 63.4077V63.4796H78.1988V64.75H71.7364ZM79.4486 62.8324V61.6339L83.6914 54.9318H84.6358V56.696H84.0365L81.0019 61.4996V61.5763H86.8171V62.8324H79.4486ZM84.1036 64.75V62.468L84.1132 61.9215V54.9318H85.5179V64.75H84.1036ZM89.8527 63.4077L89.7808 63.9302C89.7328 64.3137 89.6514 64.7132 89.5363 65.1287C89.4244 65.5474 89.3078 65.9357 89.1863 66.2937C89.0681 66.6516 88.9706 66.9361 88.8939 67.147H87.8776C87.9191 66.9489 87.9766 66.6804 88.0501 66.3416C88.1237 66.006 88.1956 65.6305 88.2659 65.215C88.3362 64.7995 88.3889 64.3761 88.4241 63.9446L88.472 63.4077H89.8527ZM98.6973 54.9318V64.75H97.2112V56.418H97.1536L94.8046 57.9521V56.533L97.2543 54.9318H98.6973ZM104.621 64.913C103.864 64.9098 103.217 64.71 102.68 64.3137C102.143 63.9174 101.732 63.3406 101.448 62.5831C101.163 61.8256 101.021 60.9132 101.021 59.8457C101.021 58.7814 101.163 57.8722 101.448 57.1179C101.735 56.3636 102.148 55.7884 102.685 55.392C103.225 54.9957 103.87 54.7976 104.621 54.7976C105.372 54.7976 106.016 54.9973 106.553 55.3968C107.09 55.7931 107.501 56.3684 107.785 57.1227C108.073 57.8738 108.217 58.7814 108.217 59.8457C108.217 60.9164 108.075 61.8304 107.79 62.5879C107.506 63.3422 107.095 63.919 106.558 64.3185C106.021 64.7148 105.376 64.913 104.621 64.913ZM104.621 63.633C105.286 63.633 105.805 63.3086 106.179 62.6598C106.557 62.011 106.745 61.073 106.745 59.8457C106.745 59.0307 106.659 58.342 106.486 57.7795C106.317 57.2138 106.072 56.7855 105.753 56.4947C105.436 56.2006 105.059 56.0536 104.621 56.0536C103.96 56.0536 103.44 56.3796 103.063 57.0316C102.686 57.6836 102.496 58.6216 102.493 59.8457C102.493 60.6639 102.578 61.3558 102.747 61.9215C102.919 62.484 103.164 62.9107 103.48 63.2015C103.797 63.4892 104.177 63.633 104.621 63.633ZM110.731 63.5323C110.469 63.5323 110.244 63.4396 110.055 63.2543C109.867 63.0657 109.772 62.8388 109.772 62.5735C109.772 62.3114 109.867 62.0877 110.055 61.9023C110.244 61.7138 110.469 61.6195 110.731 61.6195C110.993 61.6195 111.219 61.7138 111.407 61.9023C111.596 62.0877 111.69 62.3114 111.69 62.5735C111.69 62.7493 111.645 62.9107 111.556 63.0577C111.469 63.2015 111.354 63.3166 111.211 63.4029C111.067 63.4892 110.907 63.5323 110.731 63.5323ZM110.731 58.6136C110.469 58.6136 110.244 58.521 110.055 58.3356C109.867 58.147 109.772 57.9201 109.772 57.6548C109.772 57.3928 109.867 57.169 110.055 56.9837C110.244 56.7951 110.469 56.7008 110.731 56.7008C110.993 56.7008 111.219 56.7951 111.407 56.9837C111.596 57.169 111.69 57.3928 111.69 57.6548C111.69 57.8306 111.645 57.992 111.556 58.139C111.469 58.2828 111.354 58.3979 111.211 58.4842C111.067 58.5705 110.907 58.6136 110.731 58.6136ZM116.859 64.913C116.101 64.9098 115.454 64.71 114.917 64.3137C114.38 63.9174 113.97 63.3406 113.685 62.5831C113.401 61.8256 113.259 60.9132 113.259 59.8457C113.259 58.7814 113.401 57.8722 113.685 57.1179C113.973 56.3636 114.385 55.7884 114.922 55.392C115.462 54.9957 116.108 54.7976 116.859 54.7976C117.61 54.7976 118.254 54.9973 118.791 55.3968C119.328 55.7931 119.739 56.3684 120.023 57.1227C120.311 57.8738 120.454 58.7814 120.454 59.8457C120.454 60.9164 120.312 61.8304 120.028 62.5879C119.743 63.3422 119.333 63.919 118.796 64.3185C118.259 64.7148 117.613 64.913 116.859 64.913ZM116.859 63.633C117.524 63.633 118.043 63.3086 118.417 62.6598C118.794 62.011 118.983 61.073 118.983 59.8457C118.983 59.0307 118.896 58.342 118.724 57.7795C118.554 57.2138 118.31 56.7855 117.99 56.4947C117.674 56.2006 117.297 56.0536 116.859 56.0536C116.197 56.0536 115.678 56.3796 115.301 57.0316C114.924 57.6836 114.734 58.6216 114.73 59.8457C114.73 60.6639 114.815 61.3558 114.984 61.9215C115.157 62.484 115.402 62.9107 115.718 63.2015C116.034 63.4892 116.415 63.633 116.859 63.633ZM125.423 64.913C124.666 64.9098 124.019 64.71 123.482 64.3137C122.945 63.9174 122.534 63.3406 122.25 62.5831C121.965 61.8256 121.823 60.9132 121.823 59.8457C121.823 58.7814 121.965 57.8722 122.25 57.1179C122.537 56.3636 122.95 55.7884 123.487 55.392C124.027 54.9957 124.672 54.7976 125.423 54.7976C126.174 54.7976 126.818 54.9973 127.355 55.3968C127.892 55.7931 128.303 56.3684 128.587 57.1227C128.875 57.8738 129.019 58.7814 129.019 59.8457C129.019 60.9164 128.877 61.8304 128.592 62.5879C128.308 63.3422 127.897 63.919 127.36 64.3185C126.823 64.7148 126.178 64.913 125.423 64.913ZM125.423 63.633C126.088 63.633 126.607 63.3086 126.981 62.6598C127.359 62.011 127.547 61.073 127.547 59.8457C127.547 59.0307 127.461 58.342 127.288 57.7795C127.119 57.2138 126.874 56.7855 126.555 56.4947C126.238 56.2006 125.861 56.0536 125.423 56.0536C124.762 56.0536 124.242 56.3796 123.865 57.0316C123.488 57.6836 123.298 58.6216 123.295 59.8457C123.295 60.6639 123.379 61.3558 123.549 61.9215C123.721 62.484 123.966 62.9107 124.282 63.2015C124.599 63.4892 124.979 63.633 125.423 63.633ZM134.956 64.75H133.383L136.917 54.9318H138.628L142.161 64.75H140.589L137.813 56.7152H137.736L134.956 64.75ZM135.22 60.9052H140.32V62.1516H135.22V60.9052ZM143.429 54.9318H145.227L148.353 62.5639H148.468L151.593 54.9318H153.391V64.75H151.982V57.6452H151.891L148.995 64.7356H147.825L144.93 57.6404H144.839V64.75H143.429V54.9318Z" fill="#707070"/>
</svg>
