<svg width="800" height="110" viewBox="0 0 800 110" fill="none" xmlns="http://www.w3.org/2000/svg">
<rect width="800" height="110" rx="30" fill="#F6F6F6"/>
<rect x="20" y="20" width="760" height="70" rx="16" fill="black" fill-opacity="0.04"/>
<path d="M40.2479 50.2231C40.63 48.6476 42.8707 48.6476 43.2527 50.2231L44.3039 54.5582C44.4403 55.1207 44.8795 55.5599 45.442 55.6963L49.777 56.7475C51.3525 57.1295 51.3525 59.3702 49.777 59.7522L45.442 60.8034C44.8795 60.9398 44.4403 61.379 44.3039 61.9415L43.2527 66.2766C42.8707 67.852 40.63 67.852 40.2479 66.2766L39.1968 61.9415C39.0604 61.379 38.6212 60.9398 38.0587 60.8034L33.7236 59.7522C32.1481 59.3702 32.1481 57.1295 33.7236 56.7475L38.0587 55.6963C38.6212 55.5599 39.0604 55.1207 39.1968 54.5582L40.2479 50.2231Z" fill="#22A0FB"/>
<path d="M51.7876 43.1671C51.9899 42.333 53.1761 42.333 53.3784 43.1671L53.9349 45.4621C54.0071 45.7599 54.2396 45.9924 54.5374 46.0646L56.8324 46.6211C57.6665 46.8234 57.6665 48.0096 56.8324 48.2119L54.5374 48.7684C54.2396 48.8406 54.0071 49.0731 53.9349 49.3709L53.3784 51.6659C53.1761 52.5 51.9899 52.5 51.7876 51.6659L51.2311 49.3709C51.1589 49.0731 50.9264 48.8406 50.6286 48.7684L48.3336 48.2119C47.4995 48.0096 47.4995 46.8234 48.3336 46.6211L50.6286 46.0646C50.9264 45.9924 51.1589 45.7599 51.2311 45.4621L51.7876 43.1671Z" fill="#22A0FB"/>
<path d="M71.6875 63.5V51.5H73.4687V53.375H73.625C73.875 52.7344 74.2786 52.237 74.8359 51.8828C75.3932 51.5234 76.0625 51.3438 76.8438 51.3438C77.6354 51.3438 78.2943 51.5234 78.8203 51.8828C79.3516 52.237 79.7656 52.7344 80.0625 53.375H80.1875C80.4948 52.7552 80.9557 52.263 81.5703 51.8984C82.1849 51.5286 82.9219 51.3438 83.7813 51.3438C84.8542 51.3438 85.7318 51.6797 86.4141 52.3516C87.0964 53.0182 87.4375 54.0573 87.4375 55.4687V63.5H85.5937V55.4687C85.5937 54.5833 85.3516 53.9505 84.8672 53.5703C84.3828 53.1901 83.8125 53 83.1563 53C82.3125 53 81.6589 53.2552 81.1953 53.7656C80.7318 54.2708 80.5 54.9115 80.5 55.6875V63.5H78.625V55.2812C78.625 54.599 78.4036 54.0495 77.9609 53.6328C77.5182 53.2109 76.9479 53 76.25 53C75.7708 53 75.3229 53.1276 74.9063 53.3828C74.4948 53.638 74.1615 53.9922 73.9063 54.4453C73.6563 54.8932 73.5313 55.4115 73.5313 56V63.5H71.6875ZM95.6836 63.75C94.6003 63.75 93.6497 63.4922 92.832 62.9766C92.0195 62.4609 91.3841 61.7396 90.9258 60.8125C90.4727 59.8854 90.2461 58.8021 90.2461 57.5625C90.2461 56.3125 90.4727 55.2214 90.9258 54.2891C91.3841 53.3568 92.0195 52.6328 92.832 52.1172C93.6497 51.6016 94.6003 51.3438 95.6836 51.3438C96.7669 51.3438 97.7148 51.6016 98.5273 52.1172C99.3451 52.6328 99.9805 53.3568 100.434 54.2891C100.892 55.2214 101.121 56.3125 101.121 57.5625C101.121 58.8021 100.892 59.8854 100.434 60.8125C99.9805 61.7396 99.3451 62.4609 98.5273 62.9766C97.7148 63.4922 96.7669 63.75 95.6836 63.75ZM95.6836 62.0938C96.5065 62.0938 97.1836 61.8828 97.7148 61.4609C98.2461 61.0391 98.6393 60.4844 98.8945 59.7969C99.1497 59.1094 99.2773 58.3646 99.2773 57.5625C99.2773 56.7604 99.1497 56.013 98.8945 55.3203C98.6393 54.6276 98.2461 54.0677 97.7148 53.6406C97.1836 53.2135 96.5065 53 95.6836 53C94.8607 53 94.1836 53.2135 93.6523 53.6406C93.1211 54.0677 92.7279 54.6276 92.4727 55.3203C92.2174 56.013 92.0898 56.7604 92.0898 57.5625C92.0898 58.3646 92.2174 59.1094 92.4727 59.7969C92.7279 60.4844 93.1211 61.0391 93.6523 61.4609C94.1836 61.8828 94.8607 62.0938 95.6836 62.0938ZM103.936 63.5V51.5H105.717V53.3125H105.842C106.061 52.7188 106.456 52.237 107.029 51.8672C107.602 51.4974 108.248 51.3125 108.967 51.3125C109.102 51.3125 109.271 51.3151 109.475 51.3203C109.678 51.3255 109.831 51.3333 109.936 51.3438V53.2187C109.873 53.2031 109.73 53.1797 109.506 53.1484C109.287 53.112 109.055 53.0937 108.811 53.0937C108.227 53.0937 107.706 53.2161 107.248 53.4609C106.795 53.7005 106.436 54.0339 106.17 54.4609C105.91 54.8828 105.779 55.3646 105.779 55.9062V63.5H103.936ZM116.787 63.75C115.631 63.75 114.633 63.4948 113.795 62.9844C112.962 62.4688 112.318 61.75 111.865 60.8281C111.417 59.901 111.193 58.8229 111.193 57.5938C111.193 56.3646 111.417 55.2812 111.865 54.3437C112.318 53.401 112.949 52.6667 113.756 52.1406C114.568 51.6094 115.516 51.3438 116.6 51.3438C117.225 51.3438 117.842 51.4479 118.451 51.6562C119.061 51.8646 119.615 52.2031 120.115 52.6719C120.615 53.1354 121.014 53.75 121.311 54.5156C121.607 55.2812 121.756 56.224 121.756 57.3437V58.125H112.506V56.5312H119.881C119.881 55.8542 119.745 55.25 119.475 54.7187C119.209 54.1875 118.829 53.7682 118.334 53.4609C117.844 53.1536 117.266 53 116.6 53C115.865 53 115.23 53.1823 114.693 53.5469C114.162 53.9062 113.753 54.375 113.467 54.9531C113.18 55.5312 113.037 56.151 113.037 56.8125V57.875C113.037 58.7813 113.193 59.5495 113.506 60.1797C113.824 60.8047 114.264 61.2812 114.826 61.6094C115.389 61.9323 116.042 62.0938 116.787 62.0938C117.271 62.0938 117.709 62.026 118.1 61.8906C118.495 61.75 118.837 61.5417 119.123 61.2656C119.41 60.9844 119.631 60.6354 119.787 60.2187L121.568 60.7188C121.381 61.3229 121.066 61.8542 120.623 62.3125C120.18 62.7656 119.633 63.1198 118.982 63.375C118.331 63.625 117.6 63.75 116.787 63.75ZM135.623 63.75C134.498 63.75 133.529 63.4844 132.717 62.9531C131.904 62.4219 131.279 61.6901 130.842 60.7578C130.404 59.8255 130.186 58.7604 130.186 57.5625C130.186 56.3437 130.41 55.2682 130.857 54.3359C131.311 53.3984 131.941 52.6667 132.748 52.1406C133.561 51.6094 134.508 51.3438 135.592 51.3438C136.436 51.3438 137.196 51.5 137.873 51.8125C138.55 52.125 139.105 52.5625 139.537 53.125C139.969 53.6875 140.238 54.3437 140.342 55.0937H138.498C138.357 54.5469 138.045 54.0625 137.561 53.6406C137.081 53.2135 136.436 53 135.623 53C134.904 53 134.274 53.1875 133.732 53.5625C133.196 53.9323 132.777 54.4557 132.475 55.1328C132.178 55.8047 132.029 56.5937 132.029 57.5C132.029 58.4271 132.175 59.2344 132.467 59.9219C132.764 60.6094 133.18 61.1432 133.717 61.5234C134.258 61.9036 134.894 62.0938 135.623 62.0938C136.102 62.0938 136.537 62.0104 136.928 61.8437C137.318 61.6771 137.649 61.4375 137.92 61.125C138.191 60.8125 138.383 60.4375 138.498 60H140.342C140.238 60.7083 139.98 61.3464 139.568 61.9141C139.162 62.4766 138.623 62.9245 137.951 63.2578C137.285 63.5859 136.508 63.75 135.623 63.75ZM146.568 63.7813C145.808 63.7813 145.118 63.638 144.498 63.3516C143.878 63.0599 143.386 62.6406 143.021 62.0938C142.657 61.5417 142.475 60.875 142.475 60.0937C142.475 59.4062 142.61 58.849 142.881 58.4219C143.152 57.9896 143.514 57.651 143.967 57.4062C144.42 57.1615 144.92 56.9792 145.467 56.8594C146.019 56.7344 146.574 56.6354 147.131 56.5625C147.86 56.4687 148.451 56.3984 148.904 56.3516C149.363 56.2995 149.696 56.2135 149.904 56.0937C150.118 55.974 150.225 55.7656 150.225 55.4687V55.4062C150.225 54.6354 150.014 54.0365 149.592 53.6094C149.175 53.1823 148.542 52.9687 147.693 52.9687C146.813 52.9687 146.123 53.1615 145.623 53.5469C145.123 53.9323 144.771 54.3437 144.568 54.7812L142.818 54.1562C143.131 53.4271 143.548 52.8594 144.068 52.4531C144.594 52.0417 145.167 51.7552 145.787 51.5937C146.412 51.4271 147.027 51.3438 147.631 51.3438C148.016 51.3438 148.459 51.3906 148.959 51.4844C149.464 51.5729 149.951 51.7578 150.42 52.0391C150.894 52.3203 151.287 52.7448 151.6 53.3125C151.912 53.8802 152.068 54.6406 152.068 55.5938V63.5H150.225V61.875H150.131C150.006 62.1354 149.798 62.4141 149.506 62.7109C149.214 63.0078 148.826 63.2604 148.342 63.4687C147.857 63.6771 147.266 63.7813 146.568 63.7813ZM146.85 62.125C147.579 62.125 148.193 61.9818 148.693 61.6953C149.199 61.4089 149.579 61.0391 149.834 60.5859C150.094 60.1328 150.225 59.6562 150.225 59.1562V57.4687C150.146 57.5625 149.975 57.6484 149.709 57.7266C149.449 57.7995 149.146 57.8646 148.803 57.9219C148.464 57.974 148.133 58.0208 147.811 58.0625C147.493 58.099 147.235 58.1302 147.037 58.1562C146.558 58.2187 146.11 58.3203 145.693 58.4609C145.282 58.5964 144.949 58.8021 144.693 59.0781C144.443 59.349 144.318 59.7187 144.318 60.1875C144.318 60.8281 144.555 61.3125 145.029 61.6406C145.508 61.9635 146.115 62.125 146.85 62.125ZM163.934 54.1875L162.277 54.6562C162.173 54.3802 162.02 54.112 161.816 53.8516C161.618 53.5859 161.348 53.3672 161.004 53.1953C160.66 53.0234 160.22 52.9375 159.684 52.9375C158.949 52.9375 158.337 53.1068 157.848 53.4453C157.363 53.7786 157.121 54.2031 157.121 54.7187C157.121 55.1771 157.288 55.5391 157.621 55.8047C157.954 56.0703 158.475 56.2917 159.184 56.4687L160.965 56.9063C162.038 57.1667 162.837 57.5651 163.363 58.1016C163.889 58.6328 164.152 59.3177 164.152 60.1562C164.152 60.8437 163.954 61.4583 163.559 62C163.168 62.5417 162.621 62.9688 161.918 63.2813C161.215 63.5938 160.397 63.75 159.465 63.75C158.241 63.75 157.228 63.4844 156.426 62.9531C155.624 62.4219 155.116 61.6458 154.902 60.625L156.652 60.1875C156.819 60.8333 157.134 61.3177 157.598 61.6406C158.066 61.9635 158.678 62.125 159.434 62.125C160.293 62.125 160.975 61.9427 161.48 61.5781C161.991 61.2083 162.246 60.7656 162.246 60.25C162.246 59.8333 162.1 59.4844 161.809 59.2031C161.517 58.9167 161.069 58.7031 160.465 58.5625L158.465 58.0937C157.366 57.8333 156.559 57.4297 156.043 56.8828C155.533 56.3307 155.277 55.6406 155.277 54.8125C155.277 54.1354 155.467 53.5365 155.848 53.0156C156.233 52.4948 156.757 52.0859 157.418 51.7891C158.085 51.4922 158.84 51.3438 159.684 51.3438C160.871 51.3438 161.803 51.6042 162.48 52.125C163.163 52.6458 163.647 53.3333 163.934 54.1875ZM174.49 58.5937V51.5H176.334V63.5H174.49V61.4687H174.365C174.084 62.0781 173.646 62.5964 173.053 63.0234C172.459 63.4453 171.709 63.6563 170.803 63.6563C170.053 63.6563 169.386 63.4922 168.803 63.1641C168.219 62.8307 167.761 62.3307 167.428 61.6641C167.094 60.9922 166.928 60.1458 166.928 59.125V51.5H168.771V59C168.771 59.875 169.016 60.5729 169.506 61.0938C170.001 61.6146 170.631 61.875 171.396 61.875C171.855 61.875 172.321 61.7578 172.795 61.5234C173.274 61.2891 173.675 60.9297 173.998 60.4453C174.326 59.9609 174.49 59.3437 174.49 58.5937ZM183.242 63.7813C182.482 63.7813 181.792 63.638 181.172 63.3516C180.552 63.0599 180.06 62.6406 179.695 62.0938C179.331 61.5417 179.148 60.875 179.148 60.0937C179.148 59.4062 179.284 58.849 179.555 58.4219C179.826 57.9896 180.188 57.651 180.641 57.4062C181.094 57.1615 181.594 56.9792 182.141 56.8594C182.693 56.7344 183.247 56.6354 183.805 56.5625C184.534 56.4687 185.125 56.3984 185.578 56.3516C186.036 56.2995 186.37 56.2135 186.578 56.0937C186.792 55.974 186.898 55.7656 186.898 55.4687V55.4062C186.898 54.6354 186.688 54.0365 186.266 53.6094C185.849 53.1823 185.216 52.9687 184.367 52.9687C183.487 52.9687 182.797 53.1615 182.297 53.5469C181.797 53.9323 181.445 54.3437 181.242 54.7812L179.492 54.1562C179.805 53.4271 180.221 52.8594 180.742 52.4531C181.268 52.0417 181.841 51.7552 182.461 51.5937C183.086 51.4271 183.701 51.3438 184.305 51.3438C184.69 51.3438 185.133 51.3906 185.633 51.4844C186.138 51.5729 186.625 51.7578 187.094 52.0391C187.568 52.3203 187.961 52.7448 188.273 53.3125C188.586 53.8802 188.742 54.6406 188.742 55.5938V63.5H186.898V61.875H186.805C186.68 62.1354 186.471 62.4141 186.18 62.7109C185.888 63.0078 185.5 63.2604 185.016 63.4687C184.531 63.6771 183.94 63.7813 183.242 63.7813ZM183.523 62.125C184.253 62.125 184.867 61.9818 185.367 61.6953C185.872 61.4089 186.253 61.0391 186.508 60.5859C186.768 60.1328 186.898 59.6562 186.898 59.1562V57.4687C186.82 57.5625 186.648 57.6484 186.383 57.7266C186.122 57.7995 185.82 57.8646 185.477 57.9219C185.138 57.974 184.807 58.0208 184.484 58.0625C184.167 58.099 183.909 58.1302 183.711 58.1562C183.232 58.2187 182.784 58.3203 182.367 58.4609C181.956 58.5964 181.622 58.8021 181.367 59.0781C181.117 59.349 180.992 59.7187 180.992 60.1875C180.992 60.8281 181.229 61.3125 181.703 61.6406C182.182 61.9635 182.789 62.125 183.523 62.125ZM193.951 47.5V63.5H192.107V47.5H193.951ZM203.766 63.5V47.5H205.609V53.4062H205.766C205.901 53.1979 206.089 52.9323 206.328 52.6094C206.573 52.2812 206.922 51.9896 207.375 51.7344C207.833 51.474 208.453 51.3438 209.234 51.3438C210.245 51.3438 211.135 51.5964 211.906 52.1016C212.677 52.6068 213.279 53.3229 213.711 54.25C214.143 55.1771 214.359 56.2708 214.359 57.5313C214.359 58.8021 214.143 59.9036 213.711 60.8359C213.279 61.763 212.68 62.4818 211.914 62.9922C211.148 63.4974 210.266 63.75 209.266 63.75C208.495 63.75 207.878 63.6224 207.414 63.3672C206.951 63.1068 206.594 62.8125 206.344 62.4844C206.094 62.151 205.901 61.875 205.766 61.6562H205.547V63.5H203.766ZM205.578 57.5C205.578 58.4062 205.711 59.2057 205.977 59.8984C206.242 60.5859 206.63 61.125 207.141 61.5156C207.651 61.901 208.276 62.0938 209.016 62.0938C209.786 62.0938 210.43 61.8906 210.945 61.4844C211.466 61.0729 211.857 60.5208 212.117 59.8281C212.383 59.1302 212.516 58.3542 212.516 57.5C212.516 56.6562 212.385 55.8958 212.125 55.2187C211.87 54.5365 211.482 53.9974 210.961 53.6016C210.445 53.2005 209.797 53 209.016 53C208.266 53 207.635 53.1901 207.125 53.5703C206.615 53.9453 206.229 54.4714 205.969 55.1484C205.708 55.8203 205.578 56.6042 205.578 57.5ZM224.742 58.5937V51.5H226.586V63.5H224.742V61.4687H224.617C224.336 62.0781 223.898 62.5964 223.305 63.0234C222.711 63.4453 221.961 63.6563 221.055 63.6563C220.305 63.6563 219.638 63.4922 219.055 63.1641C218.471 62.8307 218.013 62.3307 217.68 61.6641C217.346 60.9922 217.18 60.1458 217.18 59.125V51.5H219.023V59C219.023 59.875 219.268 60.5729 219.758 61.0938C220.253 61.6146 220.883 61.875 221.648 61.875C222.107 61.875 222.573 61.7578 223.047 61.5234C223.526 61.2891 223.927 60.9297 224.25 60.4453C224.578 59.9609 224.742 59.3437 224.742 58.5937ZM235.182 51.5V53.0625H228.963V51.5H235.182ZM230.775 48.625H232.619V60.0625C232.619 60.5833 232.695 60.974 232.846 61.2344C233.002 61.4896 233.2 61.6615 233.439 61.75C233.684 61.8333 233.942 61.875 234.213 61.875C234.416 61.875 234.583 61.8646 234.713 61.8437C234.843 61.8177 234.947 61.7969 235.025 61.7812L235.4 63.4375C235.275 63.4844 235.101 63.5313 234.877 63.5781C234.653 63.6302 234.369 63.6563 234.025 63.6563C233.505 63.6563 232.994 63.5443 232.494 63.3203C231.999 63.0964 231.588 62.7552 231.26 62.2969C230.937 61.8385 230.775 61.2604 230.775 60.5625V48.625ZM252.643 54.1875L250.986 54.6562C250.882 54.3802 250.729 54.112 250.525 53.8516C250.327 53.5859 250.057 53.3672 249.713 53.1953C249.369 53.0234 248.929 52.9375 248.393 52.9375C247.658 52.9375 247.046 53.1068 246.557 53.4453C246.072 53.7786 245.83 54.2031 245.83 54.7187C245.83 55.1771 245.997 55.5391 246.33 55.8047C246.663 56.0703 247.184 56.2917 247.893 56.4687L249.674 56.9063C250.747 57.1667 251.546 57.5651 252.072 58.1016C252.598 58.6328 252.861 59.3177 252.861 60.1562C252.861 60.8437 252.663 61.4583 252.268 62C251.877 62.5417 251.33 62.9688 250.627 63.2813C249.924 63.5938 249.106 63.75 248.174 63.75C246.95 63.75 245.937 63.4844 245.135 62.9531C244.333 62.4219 243.825 61.6458 243.611 60.625L245.361 60.1875C245.528 60.8333 245.843 61.3177 246.307 61.6406C246.775 61.9635 247.387 62.125 248.143 62.125C249.002 62.125 249.684 61.9427 250.189 61.5781C250.7 61.2083 250.955 60.7656 250.955 60.25C250.955 59.8333 250.809 59.4844 250.518 59.2031C250.226 58.9167 249.778 58.7031 249.174 58.5625L247.174 58.0937C246.075 57.8333 245.268 57.4297 244.752 56.8828C244.242 56.3307 243.986 55.6406 243.986 54.8125C243.986 54.1354 244.176 53.5365 244.557 53.0156C244.942 52.4948 245.465 52.0859 246.127 51.7891C246.794 51.4922 247.549 51.3438 248.393 51.3438C249.58 51.3438 250.512 51.6042 251.189 52.125C251.872 52.6458 252.356 53.3333 252.643 54.1875ZM260.855 51.5V53.0625H254.637V51.5H260.855ZM256.449 48.625H258.293V60.0625C258.293 60.5833 258.368 60.974 258.52 61.2344C258.676 61.4896 258.874 61.6615 259.113 61.75C259.358 61.8333 259.616 61.875 259.887 61.875C260.09 61.875 260.257 61.8646 260.387 61.8437C260.517 61.8177 260.621 61.7969 260.699 61.7812L261.074 63.4375C260.949 63.4844 260.775 63.5313 260.551 63.5781C260.327 63.6302 260.043 63.6563 259.699 63.6563C259.178 63.6563 258.668 63.5443 258.168 63.3203C257.673 63.0964 257.262 62.7552 256.934 62.2969C256.611 61.8385 256.449 61.2604 256.449 60.5625V48.625ZM263.629 63.5V51.5H265.473V63.5H263.629ZM264.566 49.5C264.207 49.5 263.897 49.3776 263.637 49.1328C263.382 48.888 263.254 48.5938 263.254 48.25C263.254 47.9063 263.382 47.612 263.637 47.3672C263.897 47.1224 264.207 47 264.566 47C264.926 47 265.233 47.1224 265.488 47.3672C265.749 47.612 265.879 47.9063 265.879 48.25C265.879 48.5938 265.749 48.888 265.488 49.1328C265.233 49.3776 264.926 49.5 264.566 49.5ZM270.693 47.5V63.5H268.85V47.5H270.693ZM275.914 47.5V63.5H274.07V47.5H275.914ZM285.479 63.5V51.5H287.26V53.3125H287.385C287.604 52.7188 287.999 52.237 288.572 51.8672C289.145 51.4974 289.791 51.3125 290.51 51.3125C290.645 51.3125 290.814 51.3151 291.018 51.3203C291.221 51.3255 291.374 51.3333 291.479 51.3438V53.2187C291.416 53.2031 291.273 53.1797 291.049 53.1484C290.83 53.112 290.598 53.0937 290.354 53.0937C289.77 53.0937 289.249 53.2161 288.791 53.4609C288.338 53.7005 287.979 54.0339 287.713 54.4609C287.452 54.8828 287.322 55.3646 287.322 55.9062V63.5H285.479ZM298.33 63.75C297.174 63.75 296.176 63.4948 295.338 62.9844C294.505 62.4688 293.861 61.75 293.408 60.8281C292.96 59.901 292.736 58.8229 292.736 57.5938C292.736 56.3646 292.96 55.2812 293.408 54.3437C293.861 53.401 294.492 52.6667 295.299 52.1406C296.111 51.6094 297.059 51.3438 298.143 51.3438C298.768 51.3438 299.385 51.4479 299.994 51.6562C300.604 51.8646 301.158 52.2031 301.658 52.6719C302.158 53.1354 302.557 53.75 302.854 54.5156C303.15 55.2812 303.299 56.224 303.299 57.3437V58.125H294.049V56.5312H301.424C301.424 55.8542 301.288 55.25 301.018 54.7187C300.752 54.1875 300.372 53.7682 299.877 53.4609C299.387 53.1536 298.809 53 298.143 53C297.408 53 296.773 53.1823 296.236 53.5469C295.705 53.9062 295.296 54.375 295.01 54.9531C294.723 55.5312 294.58 56.151 294.58 56.8125V57.875C294.58 58.7813 294.736 59.5495 295.049 60.1797C295.367 60.8047 295.807 61.2812 296.369 61.6094C296.932 61.9323 297.585 62.0938 298.33 62.0938C298.814 62.0938 299.252 62.026 299.643 61.8906C300.038 61.75 300.38 61.5417 300.666 61.2656C300.952 60.9844 301.174 60.6354 301.33 60.2187L303.111 60.7188C302.924 61.3229 302.609 61.8542 302.166 62.3125C301.723 62.7656 301.176 63.1198 300.525 63.375C299.874 63.625 299.143 63.75 298.33 63.75ZM314.604 54.1875L312.947 54.6562C312.843 54.3802 312.689 54.112 312.486 53.8516C312.288 53.5859 312.018 53.3672 311.674 53.1953C311.33 53.0234 310.89 52.9375 310.354 52.9375C309.619 52.9375 309.007 53.1068 308.518 53.4453C308.033 53.7786 307.791 54.2031 307.791 54.7187C307.791 55.1771 307.958 55.5391 308.291 55.8047C308.624 56.0703 309.145 56.2917 309.854 56.4687L311.635 56.9063C312.708 57.1667 313.507 57.5651 314.033 58.1016C314.559 58.6328 314.822 59.3177 314.822 60.1562C314.822 60.8437 314.624 61.4583 314.229 62C313.838 62.5417 313.291 62.9688 312.588 63.2813C311.885 63.5938 311.067 63.75 310.135 63.75C308.911 63.75 307.898 63.4844 307.096 62.9531C306.294 62.4219 305.786 61.6458 305.572 60.625L307.322 60.1875C307.489 60.8333 307.804 61.3177 308.268 61.6406C308.736 61.9635 309.348 62.125 310.104 62.125C310.963 62.125 311.645 61.9427 312.15 61.5781C312.661 61.2083 312.916 60.7656 312.916 60.25C312.916 59.8333 312.77 59.4844 312.479 59.2031C312.187 58.9167 311.739 58.7031 311.135 58.5625L309.135 58.0937C308.036 57.8333 307.229 57.4297 306.713 56.8828C306.202 56.3307 305.947 55.6406 305.947 54.8125C305.947 54.1354 306.137 53.5365 306.518 53.0156C306.903 52.4948 307.426 52.0859 308.088 51.7891C308.755 51.4922 309.51 51.3438 310.354 51.3438C311.541 51.3438 312.473 51.6042 313.15 52.125C313.833 52.6458 314.317 53.3333 314.604 54.1875ZM317.598 68V51.5H319.379V53.4062H319.598C319.733 53.1979 319.921 52.9323 320.16 52.6094C320.405 52.2812 320.754 51.9896 321.207 51.7344C321.665 51.474 322.285 51.3438 323.066 51.3438C324.077 51.3438 324.967 51.5964 325.738 52.1016C326.509 52.6068 327.111 53.3229 327.543 54.25C327.975 55.1771 328.191 56.2708 328.191 57.5313C328.191 58.8021 327.975 59.9036 327.543 60.8359C327.111 61.763 326.512 62.4818 325.746 62.9922C324.98 63.4974 324.098 63.75 323.098 63.75C322.327 63.75 321.71 63.6224 321.246 63.3672C320.783 63.1068 320.426 62.8125 320.176 62.4844C319.926 62.151 319.733 61.875 319.598 61.6562H319.441V68H317.598ZM319.41 57.5C319.41 58.4062 319.543 59.2057 319.809 59.8984C320.074 60.5859 320.462 61.125 320.973 61.5156C321.483 61.901 322.108 62.0938 322.848 62.0938C323.618 62.0938 324.262 61.8906 324.777 61.4844C325.298 61.0729 325.689 60.5208 325.949 59.8281C326.215 59.1302 326.348 58.3542 326.348 57.5C326.348 56.6562 326.217 55.8958 325.957 55.2187C325.702 54.5365 325.314 53.9974 324.793 53.6016C324.277 53.2005 323.629 53 322.848 53C322.098 53 321.467 53.1901 320.957 53.5703C320.447 53.9453 320.061 54.4714 319.801 55.1484C319.54 55.8203 319.41 56.6042 319.41 57.5ZM336.035 63.75C334.879 63.75 333.882 63.4948 333.043 62.9844C332.21 62.4688 331.566 61.75 331.113 60.8281C330.665 59.901 330.441 58.8229 330.441 57.5938C330.441 56.3646 330.665 55.2812 331.113 54.3437C331.566 53.401 332.197 52.6667 333.004 52.1406C333.816 51.6094 334.764 51.3438 335.848 51.3438C336.473 51.3438 337.09 51.4479 337.699 51.6562C338.309 51.8646 338.863 52.2031 339.363 52.6719C339.863 53.1354 340.262 53.75 340.559 54.5156C340.855 55.2812 341.004 56.224 341.004 57.3437V58.125H331.754V56.5312H339.129C339.129 55.8542 338.993 55.25 338.723 54.7187C338.457 54.1875 338.077 53.7682 337.582 53.4609C337.092 53.1536 336.514 53 335.848 53C335.113 53 334.478 53.1823 333.941 53.5469C333.41 53.9062 333.001 54.375 332.715 54.9531C332.428 55.5312 332.285 56.151 332.285 56.8125V57.875C332.285 58.7813 332.441 59.5495 332.754 60.1797C333.072 60.8047 333.512 61.2812 334.074 61.6094C334.637 61.9323 335.29 62.0938 336.035 62.0938C336.52 62.0938 336.957 62.026 337.348 61.8906C337.743 61.75 338.085 61.5417 338.371 61.2656C338.658 60.9844 338.879 60.6354 339.035 60.2187L340.816 60.7188C340.629 61.3229 340.314 61.8542 339.871 62.3125C339.428 62.7656 338.882 63.1198 338.23 63.375C337.579 63.625 336.848 63.75 336.035 63.75ZM348.684 63.75C347.559 63.75 346.59 63.4844 345.777 62.9531C344.965 62.4219 344.34 61.6901 343.902 60.7578C343.465 59.8255 343.246 58.7604 343.246 57.5625C343.246 56.3437 343.47 55.2682 343.918 54.3359C344.371 53.3984 345.001 52.6667 345.809 52.1406C346.621 51.6094 347.569 51.3438 348.652 51.3438C349.496 51.3438 350.257 51.5 350.934 51.8125C351.611 52.125 352.165 52.5625 352.598 53.125C353.03 53.6875 353.298 54.3437 353.402 55.0937H351.559C351.418 54.5469 351.105 54.0625 350.621 53.6406C350.142 53.2135 349.496 53 348.684 53C347.965 53 347.335 53.1875 346.793 53.5625C346.257 53.9323 345.837 54.4557 345.535 55.1328C345.238 55.8047 345.09 56.5937 345.09 57.5C345.09 58.4271 345.236 59.2344 345.527 59.9219C345.824 60.6094 346.241 61.1432 346.777 61.5234C347.319 61.9036 347.954 62.0938 348.684 62.0938C349.163 62.0938 349.598 62.0104 349.988 61.8437C350.379 61.6771 350.71 61.4375 350.98 61.125C351.251 60.8125 351.444 60.4375 351.559 60H353.402C353.298 60.7083 353.04 61.3464 352.629 61.9141C352.223 62.4766 351.684 62.9245 351.012 63.2578C350.345 63.5859 349.569 63.75 348.684 63.75ZM361.316 51.5V53.0625H355.098V51.5H361.316ZM356.91 48.625H358.754V60.0625C358.754 60.5833 358.829 60.974 358.98 61.2344C359.137 61.4896 359.335 61.6615 359.574 61.75C359.819 61.8333 360.077 61.875 360.348 61.875C360.551 61.875 360.717 61.8646 360.848 61.8437C360.978 61.8177 361.082 61.7969 361.16 61.7812L361.535 63.4375C361.41 63.4844 361.236 63.5313 361.012 63.5781C360.788 63.6302 360.504 63.6563 360.16 63.6563C359.639 63.6563 359.129 63.5443 358.629 63.3203C358.134 63.0964 357.723 62.7552 357.395 62.2969C357.072 61.8385 356.91 61.2604 356.91 60.5625V48.625ZM369.434 51.5V53.0625H362.965V51.5H369.434ZM364.902 63.5V49.8438C364.902 49.1562 365.064 48.5833 365.387 48.125C365.71 47.6667 366.129 47.3229 366.645 47.0937C367.16 46.8646 367.704 46.75 368.277 46.75C368.73 46.75 369.1 46.7865 369.387 46.8594C369.673 46.9323 369.887 47 370.027 47.0625L369.496 48.6562C369.402 48.625 369.272 48.5859 369.105 48.5391C368.944 48.4922 368.73 48.4687 368.465 48.4687C367.855 48.4687 367.415 48.6224 367.145 48.9297C366.879 49.237 366.746 49.6875 366.746 50.2812V63.5H364.902ZM379.58 58.5937V51.5H381.424V63.5H379.58V61.4687H379.455C379.174 62.0781 378.736 62.5964 378.143 63.0234C377.549 63.4453 376.799 63.6563 375.893 63.6563C375.143 63.6563 374.476 63.4922 373.893 63.1641C373.309 62.8307 372.851 62.3307 372.518 61.6641C372.184 60.9922 372.018 60.1458 372.018 59.125V51.5H373.861V59C373.861 59.875 374.106 60.5729 374.596 61.0938C375.09 61.6146 375.721 61.875 376.486 61.875C376.945 61.875 377.411 61.7578 377.885 61.5234C378.364 61.2891 378.765 60.9297 379.088 60.4453C379.416 59.9609 379.58 59.3437 379.58 58.5937ZM386.645 47.5V63.5H384.801V47.5H386.645Z" fill="#707070"/>
</svg>
