<svg width="236" height="78" viewBox="0 0 236 78" fill="none" xmlns="http://www.w3.org/2000/svg">
<rect x="0.375" width="235" height="77.5" rx="16.5" fill="black"/>
<path d="M12.375 18C12.375 14.4917 12.375 12.7375 13.1797 11.4568C13.5993 10.789 14.164 10.2243 14.8318 9.8047C16.1125 9 17.8667 9 21.375 9C24.8833 9 26.6375 9 27.9182 9.8047C28.586 10.2243 29.1507 10.789 29.5703 11.4568C30.375 12.7375 30.375 14.4917 30.375 18C30.375 21.5083 30.375 23.2625 29.5703 24.5432C29.1507 25.211 28.586 25.7757 27.9182 26.1953C26.6375 27 24.8833 27 21.375 27C17.8667 27 16.1125 27 14.8318 26.1953C14.164 25.7757 13.5993 25.211 13.1797 24.5432C12.375 23.2625 12.375 21.5083 12.375 18Z" fill="#22A0FB"/>
<path d="M16.9367 18.5748L16.9394 18.5824L16.9425 18.5899C16.9888 18.7032 17.0555 18.8068 17.133 18.9011L19.5282 21.8973C19.7511 22.1769 20.0525 22.3473 20.4171 22.3473C20.7945 22.3473 21.1092 22.1789 21.3205 21.8668L25.676 15.0787L25.6786 15.0746C25.7375 14.9803 25.7875 14.8815 25.8217 14.7789L25.8234 14.7736C25.8564 14.6695 25.875 14.5614 25.875 14.4505C25.875 14.1963 25.7907 13.9562 25.6003 13.7703C25.413 13.5843 25.1742 13.5 24.9198 13.5C24.7534 13.5 24.5779 13.5323 24.4214 13.6283C24.2748 13.7154 24.162 13.8459 24.0735 13.9806L20.3629 19.8755L18.6491 17.676C18.4541 17.4215 18.182 17.2623 17.8487 17.2623C17.5888 17.2623 17.3476 17.3495 17.1564 17.5353L17.1522 17.5395C16.9639 17.7278 16.875 17.9676 16.875 18.2268C16.875 18.3463 16.896 18.4629 16.9367 18.5748Z" fill="white"/>
<path d="M37.3232 24V13.0909H41.6271C42.451 13.0909 43.1541 13.2383 43.7365 13.533C44.3224 13.8242 44.7681 14.2379 45.0735 14.7741C45.3825 15.3068 45.5369 15.9336 45.5369 16.6545C45.5369 17.3789 45.3807 18.0021 45.0682 18.5241C44.7557 19.0426 44.3029 19.4403 43.7099 19.7173C43.1204 19.9943 42.4066 20.1328 41.5685 20.1328H38.6868V18.2791H41.1957C41.636 18.2791 42.0018 18.2187 42.293 18.098C42.5842 17.9773 42.8008 17.7962 42.9428 17.5547C43.0884 17.3132 43.1612 17.0131 43.1612 16.6545C43.1612 16.2923 43.0884 15.9869 42.9428 15.7383C42.8008 15.4897 42.5824 15.3015 42.2876 15.1737C41.9964 15.0423 41.6289 14.9766 41.185 14.9766H39.6296V24H37.3232ZM43.2145 19.0355L45.9258 24H43.3796L40.7269 19.0355H43.2145ZM53.0849 16.2283C53.0423 15.7987 52.8594 15.4648 52.5362 15.2269C52.2131 14.989 51.7745 14.87 51.2205 14.87C50.8441 14.87 50.5263 14.9233 50.267 15.0298C50.0078 15.1328 49.8089 15.2766 49.6705 15.4613C49.5355 15.646 49.468 15.8555 49.468 16.0898C49.4609 16.2852 49.5018 16.4556 49.5906 16.6012C49.6829 16.7468 49.8089 16.8729 49.9688 16.9794C50.1286 17.0824 50.3132 17.1729 50.5227 17.2511C50.7322 17.3256 50.956 17.3896 51.1939 17.4428L52.174 17.6772C52.6499 17.7837 53.0866 17.9258 53.4844 18.1033C53.8821 18.2809 54.2266 18.4993 54.5178 18.7585C54.8089 19.0178 55.0344 19.3232 55.1942 19.6747C55.3576 20.0263 55.4411 20.4293 55.4446 20.8839C55.4411 21.5515 55.2706 22.1303 54.9332 22.6204C54.5994 23.1069 54.1165 23.4851 53.4844 23.755C52.8558 24.0213 52.0977 24.1545 51.2099 24.1545C50.3292 24.1545 49.5621 24.0195 48.9087 23.7496C48.2589 23.4798 47.7511 23.0803 47.3853 22.5511C47.0231 22.0185 46.8331 21.3597 46.8153 20.5749H49.0472C49.0721 20.9407 49.1768 21.2461 49.3615 21.4911C49.5497 21.7326 49.8001 21.9155 50.1126 22.0398C50.4286 22.1605 50.7855 22.2209 51.1832 22.2209C51.5739 22.2209 51.913 22.1641 52.2006 22.0504C52.4918 21.9368 52.7173 21.7788 52.8771 21.5763C53.0369 21.3739 53.1168 21.1413 53.1168 20.8786C53.1168 20.6335 53.044 20.4276 52.8984 20.2607C52.7564 20.0937 52.5469 19.9517 52.2699 19.8345C51.9964 19.7173 51.6609 19.6108 51.2631 19.5149L50.0753 19.2166C49.1555 18.9929 48.4293 18.6431 47.8967 18.1673C47.364 17.6914 47.0994 17.0504 47.103 16.2443C47.0994 15.5838 47.2752 15.0067 47.6303 14.5131C47.989 14.0195 48.4808 13.6342 49.1058 13.3572C49.7308 13.0803 50.4411 12.9418 51.2365 12.9418C52.0462 12.9418 52.7528 13.0803 53.3565 13.3572C53.9638 13.6342 54.4361 14.0195 54.7734 14.5131C55.1108 15.0067 55.2848 15.5785 55.2955 16.2283H53.0849ZM58.9669 13.0909L61.6036 21.3793H61.7048L64.3469 13.0909H66.9037L63.143 24H60.1707L56.4047 13.0909H58.9669ZM68.2167 24V13.0909H72.5207C73.3481 13.0909 74.053 13.2489 74.6354 13.565C75.2178 13.8775 75.6617 14.3125 75.9671 14.87C76.276 15.424 76.4305 16.0632 76.4305 16.7876C76.4305 17.5121 76.2742 18.1513 75.9617 18.7053C75.6492 19.2592 75.1965 19.6907 74.6034 19.9996C74.0139 20.3086 73.3002 20.4631 72.4621 20.4631H69.7188V18.6147H72.0892C72.5331 18.6147 72.8989 18.5384 73.1865 18.3857C73.4777 18.2294 73.6943 18.0146 73.8364 17.7411C73.982 17.4641 74.0548 17.1463 74.0548 16.7876C74.0548 16.4254 73.982 16.1094 73.8364 15.8395C73.6943 15.5661 73.4777 15.3548 73.1865 15.2056C72.8953 15.0529 72.526 14.9766 72.0786 14.9766H70.5232V24H68.2167ZM85.7096 15.8182V17.5227H80.7824V15.8182H85.7096ZM81.901 13.858H84.1702V21.4858C84.1702 21.6953 84.2021 21.8587 84.2661 21.9759C84.33 22.0895 84.4188 22.1694 84.5324 22.2156C84.6496 22.2617 84.7845 22.2848 84.9372 22.2848C85.0438 22.2848 85.1503 22.2759 85.2568 22.2582C85.3634 22.2369 85.445 22.2209 85.5019 22.2102L85.8588 23.8988C85.7451 23.9343 85.5853 23.9751 85.3794 24.0213C85.1734 24.071 84.923 24.1012 84.6283 24.1119C84.0814 24.1332 83.602 24.0604 83.1901 23.8935C82.7817 23.7266 82.4639 23.4673 82.2366 23.1158C82.0093 22.7642 81.8975 22.3203 81.901 21.7841V13.858ZM90.7966 24.1598C89.9692 24.1598 89.2536 23.984 88.6499 23.6325C88.0498 23.2773 87.5864 22.7837 87.2597 22.1516C86.933 21.516 86.7696 20.7791 86.7696 19.9411C86.7696 19.0959 86.933 18.3572 87.2597 17.7251C87.5864 17.0895 88.0498 16.5959 88.6499 16.2443C89.2536 15.8892 89.9692 15.7116 90.7966 15.7116C91.624 15.7116 92.3378 15.8892 92.9379 16.2443C93.5416 16.5959 94.0068 17.0895 94.3335 17.7251C94.6602 18.3572 94.8236 19.0959 94.8236 19.9411C94.8236 20.7791 94.6602 21.516 94.3335 22.1516C94.0068 22.7837 93.5416 23.2773 92.9379 23.6325C92.3378 23.984 91.624 24.1598 90.7966 24.1598ZM90.8073 22.402C91.1837 22.402 91.498 22.2955 91.7501 22.0824C92.0022 21.8658 92.1922 21.571 92.32 21.1982C92.4514 20.8253 92.5171 20.4009 92.5171 19.9251C92.5171 19.4492 92.4514 19.0249 92.32 18.652C92.1922 18.2791 92.0022 17.9844 91.7501 17.7678C91.498 17.5511 91.1837 17.4428 90.8073 17.4428C90.4273 17.4428 90.1077 17.5511 89.8485 17.7678C89.5928 17.9844 89.3992 18.2791 89.2678 18.652C89.14 19.0249 89.0761 19.4492 89.0761 19.9251C89.0761 20.4009 89.14 20.8253 89.2678 21.1982C89.3992 21.571 89.5928 21.8658 89.8485 22.0824C90.1077 22.2955 90.4273 22.402 90.8073 22.402ZM99.8134 24V13.0909H102.12V17.9009H102.264L106.189 13.0909H108.954L104.906 17.9755L109.002 24H106.243L103.254 19.5149L102.12 20.8999V24H99.8134ZM113.241 24.1598C112.399 24.1598 111.675 23.9893 111.067 23.6484C110.464 23.304 109.998 22.8175 109.672 22.1889C109.345 21.5568 109.182 20.8093 109.182 19.9464C109.182 19.1048 109.345 18.3661 109.672 17.7305C109.998 17.0948 110.458 16.5994 111.051 16.2443C111.648 15.8892 112.348 15.7116 113.15 15.7116C113.69 15.7116 114.192 15.7987 114.658 15.9727C115.126 16.1431 115.535 16.4006 115.883 16.745C116.234 17.0895 116.508 17.5227 116.703 18.0447C116.898 18.5632 116.996 19.1705 116.996 19.8665V20.4897H110.087V19.0835H114.86C114.86 18.7567 114.789 18.4673 114.647 18.2152C114.505 17.9631 114.308 17.766 114.056 17.6239C113.807 17.4783 113.518 17.4055 113.187 17.4055C112.843 17.4055 112.538 17.4854 112.271 17.6452C112.008 17.8015 111.802 18.0128 111.653 18.2791C111.504 18.5419 111.428 18.8349 111.424 19.158V20.495C111.424 20.8999 111.499 21.2496 111.648 21.5444C111.801 21.8391 112.016 22.0664 112.293 22.2262C112.57 22.386 112.898 22.4659 113.278 22.4659C113.53 22.4659 113.761 22.4304 113.97 22.3594C114.18 22.2884 114.359 22.1818 114.508 22.0398C114.658 21.8977 114.771 21.7237 114.849 21.5178L116.948 21.6562C116.842 22.1605 116.623 22.6009 116.293 22.9773C115.966 23.3501 115.544 23.6413 115.025 23.8509C114.51 24.0568 113.915 24.1598 113.241 24.1598ZM125.885 15.8182L123.025 24H120.468L117.607 15.8182H120.004L121.703 21.6722H121.789L123.483 15.8182H125.885ZM127.046 24V15.8182H129.315V24H127.046ZM128.186 14.7635C127.849 14.7635 127.559 14.6516 127.318 14.4279C127.08 14.2006 126.961 13.929 126.961 13.6129C126.961 13.3004 127.08 13.0323 127.318 12.8086C127.559 12.5813 127.849 12.4677 128.186 12.4677C128.523 12.4677 128.811 12.5813 129.049 12.8086C129.29 13.0323 129.411 13.3004 129.411 13.6129C129.411 13.929 129.29 14.2006 129.049 14.4279C128.811 14.6516 128.523 14.7635 128.186 14.7635ZM133.402 19.2699V24H131.133V15.8182H133.296V17.2617H133.392C133.573 16.7859 133.876 16.4094 134.302 16.1325C134.729 15.8519 135.245 15.7116 135.853 15.7116C136.421 15.7116 136.916 15.8359 137.339 16.0845C137.761 16.3331 138.09 16.6882 138.324 17.1499C138.559 17.608 138.676 18.1548 138.676 18.7905V24H136.407V19.1953C136.41 18.6946 136.282 18.304 136.023 18.0234C135.764 17.7393 135.407 17.5973 134.952 17.5973C134.647 17.5973 134.377 17.663 134.143 17.7944C133.912 17.9258 133.731 18.1175 133.599 18.3697C133.472 18.6183 133.406 18.9183 133.402 19.2699ZM146.269 24.1545C145.747 24.1545 145.282 24.0639 144.873 23.8828C144.465 23.6982 144.142 23.4265 143.904 23.0678C143.669 22.7056 143.552 22.2546 143.552 21.7148C143.552 21.2603 143.636 20.8786 143.803 20.5696C143.97 20.2607 144.197 20.0121 144.484 19.8239C144.772 19.6357 145.099 19.4936 145.465 19.3977C145.834 19.3018 146.221 19.2344 146.626 19.1953C147.102 19.1456 147.485 19.0994 147.776 19.0568C148.068 19.0107 148.279 18.9432 148.41 18.8544C148.542 18.7656 148.607 18.6342 148.607 18.4602V18.4283C148.607 18.0909 148.501 17.8299 148.288 17.6452C148.078 17.4606 147.78 17.3683 147.393 17.3683C146.984 17.3683 146.66 17.4588 146.418 17.6399C146.177 17.8175 146.017 18.0412 145.939 18.3111L143.84 18.1406C143.946 17.6435 144.156 17.2138 144.468 16.8516C144.781 16.4858 145.184 16.2053 145.678 16.0099C146.175 15.8111 146.75 15.7116 147.403 15.7116C147.858 15.7116 148.293 15.7649 148.709 15.8714C149.128 15.978 149.499 16.1431 149.822 16.3668C150.149 16.5906 150.406 16.8782 150.594 17.2298C150.782 17.5778 150.877 17.995 150.877 18.4815V24H148.725V22.8654H148.661C148.529 23.1211 148.353 23.3466 148.133 23.5419C147.913 23.7337 147.649 23.8846 147.34 23.9947C147.031 24.1012 146.674 24.1545 146.269 24.1545ZM146.919 22.5884C147.253 22.5884 147.547 22.5227 147.803 22.3913C148.059 22.2564 148.259 22.0753 148.405 21.848C148.551 21.6207 148.623 21.3633 148.623 21.0756V20.2074C148.552 20.2536 148.455 20.2962 148.33 20.3352C148.21 20.3707 148.073 20.4045 147.92 20.4364C147.767 20.4648 147.615 20.4915 147.462 20.5163C147.309 20.5376 147.171 20.5572 147.047 20.5749C146.78 20.614 146.548 20.6761 146.349 20.7614C146.15 20.8466 145.995 20.962 145.885 21.1076C145.775 21.2496 145.72 21.4272 145.72 21.6403C145.72 21.9492 145.832 22.1854 146.056 22.3487C146.283 22.5085 146.571 22.5884 146.919 22.5884ZM154.906 19.2699V24H152.637V15.8182H154.8V17.2617H154.896C155.077 16.7859 155.38 16.4094 155.806 16.1325C156.233 15.8519 156.749 15.7116 157.356 15.7116C157.925 15.7116 158.42 15.8359 158.843 16.0845C159.265 16.3331 159.594 16.6882 159.828 17.1499C160.062 17.608 160.18 18.1548 160.18 18.7905V24H157.91V19.1953C157.914 18.6946 157.786 18.304 157.527 18.0234C157.268 17.7393 156.911 17.5973 156.456 17.5973C156.151 17.5973 155.881 17.663 155.647 17.7944C155.416 17.9258 155.235 18.1175 155.103 18.3697C154.975 18.6183 154.91 18.9183 154.906 19.2699ZM164.983 24.1332C164.362 24.1332 163.799 23.9734 163.294 23.6538C162.794 23.3306 162.396 22.8565 162.101 22.2315C161.81 21.603 161.664 20.8324 161.664 19.9197C161.664 18.9822 161.815 18.2028 162.117 17.5813C162.419 16.9563 162.82 16.4893 163.321 16.1804C163.825 15.8679 164.377 15.7116 164.978 15.7116C165.436 15.7116 165.817 15.7898 166.123 15.946C166.432 16.0987 166.68 16.2905 166.869 16.5213C167.06 16.7486 167.206 16.9723 167.305 17.1925H167.375V13.0909H169.638V24H167.401V22.6896H167.305C167.199 22.9169 167.048 23.1424 166.853 23.3661C166.661 23.5863 166.411 23.7692 166.102 23.9148C165.796 24.0604 165.423 24.1332 164.983 24.1332ZM165.702 22.3274C166.068 22.3274 166.377 22.228 166.629 22.0291C166.885 21.8267 167.08 21.5444 167.215 21.1822C167.353 20.82 167.423 20.3956 167.423 19.9091C167.423 19.4226 167.355 19 167.22 18.6413C167.085 18.2827 166.89 18.0057 166.634 17.8104C166.379 17.6151 166.068 17.5174 165.702 17.5174C165.329 17.5174 165.015 17.6186 164.759 17.821C164.504 18.0234 164.31 18.304 164.179 18.6626C164.047 19.0213 163.982 19.4368 163.982 19.9091C163.982 20.3849 164.047 20.8058 164.179 21.1715C164.314 21.5337 164.507 21.8178 164.759 22.0238C165.015 22.2262 165.329 22.3274 165.702 22.3274ZM175.018 24V13.0909H177.325V22.0984H182.002V24H175.018ZM185.82 24.1545C185.298 24.1545 184.832 24.0639 184.424 23.8828C184.016 23.6982 183.693 23.4265 183.455 23.0678C183.22 22.7056 183.103 22.2546 183.103 21.7148C183.103 21.2603 183.187 20.8786 183.353 20.5696C183.52 20.2607 183.748 20.0121 184.035 19.8239C184.323 19.6357 184.65 19.4936 185.015 19.3977C185.385 19.3018 185.772 19.2344 186.177 19.1953C186.652 19.1456 187.036 19.0994 187.327 19.0568C187.618 19.0107 187.83 18.9432 187.961 18.8544C188.092 18.7656 188.158 18.6342 188.158 18.4602V18.4283C188.158 18.0909 188.052 17.8299 187.839 17.6452C187.629 17.4606 187.331 17.3683 186.944 17.3683C186.535 17.3683 186.21 17.4588 185.969 17.6399C185.727 17.8175 185.568 18.0412 185.489 18.3111L183.391 18.1406C183.497 17.6435 183.707 17.2138 184.019 16.8516C184.332 16.4858 184.735 16.2053 185.228 16.0099C185.726 15.8111 186.301 15.7116 186.954 15.7116C187.409 15.7116 187.844 15.7649 188.259 15.8714C188.678 15.978 189.049 16.1431 189.373 16.3668C189.699 16.5906 189.957 16.8782 190.145 17.2298C190.333 17.5778 190.427 17.995 190.427 18.4815V24H188.275V22.8654H188.211C188.08 23.1211 187.904 23.3466 187.684 23.5419C187.464 23.7337 187.199 23.8846 186.89 23.9947C186.581 24.1012 186.225 24.1545 185.82 24.1545ZM186.47 22.5884C186.803 22.5884 187.098 22.5227 187.354 22.3913C187.609 22.2564 187.81 22.0753 187.956 21.848C188.101 21.6207 188.174 21.3633 188.174 21.0756V20.2074C188.103 20.2536 188.005 20.2962 187.881 20.3352C187.76 20.3707 187.624 20.4045 187.471 20.4364C187.318 20.4648 187.166 20.4915 187.013 20.5163C186.86 20.5376 186.722 20.5572 186.597 20.5749C186.331 20.614 186.098 20.6761 185.9 20.7614C185.701 20.8466 185.546 20.962 185.436 21.1076C185.326 21.2496 185.271 21.4272 185.271 21.6403C185.271 21.9492 185.383 22.1854 185.607 22.3487C185.834 22.5085 186.122 22.5884 186.47 22.5884ZM194.457 19.2699V24H192.188V15.8182H194.35V17.2617H194.446C194.627 16.7859 194.931 16.4094 195.357 16.1325C195.783 15.8519 196.3 15.7116 196.907 15.7116C197.475 15.7116 197.971 15.8359 198.393 16.0845C198.816 16.3331 199.144 16.6882 199.379 17.1499C199.613 17.608 199.73 18.1548 199.73 18.7905V24H197.461V19.1953C197.465 18.6946 197.337 18.304 197.078 18.0234C196.818 17.7393 196.462 17.5973 196.007 17.5973C195.702 17.5973 195.432 17.663 195.197 17.7944C194.967 17.9258 194.785 18.1175 194.654 18.3697C194.526 18.6183 194.46 18.9183 194.457 19.2699ZM203.852 24.1545C203.33 24.1545 202.865 24.0639 202.456 23.8828C202.048 23.6982 201.725 23.4265 201.487 23.0678C201.252 22.7056 201.135 22.2546 201.135 21.7148C201.135 21.2603 201.219 20.8786 201.386 20.5696C201.553 20.2607 201.78 20.0121 202.067 19.8239C202.355 19.6357 202.682 19.4936 203.048 19.3977C203.417 19.3018 203.804 19.2344 204.209 19.1953C204.685 19.1456 205.068 19.0994 205.359 19.0568C205.651 19.0107 205.862 18.9432 205.993 18.8544C206.125 18.7656 206.19 18.6342 206.19 18.4602V18.4283C206.19 18.0909 206.084 17.8299 205.871 17.6452C205.661 17.4606 205.363 17.3683 204.976 17.3683C204.567 17.3683 204.243 17.4588 204.001 17.6399C203.76 17.8175 203.6 18.0412 203.522 18.3111L201.423 18.1406C201.529 17.6435 201.739 17.2138 202.051 16.8516C202.364 16.4858 202.767 16.2053 203.261 16.0099C203.758 15.8111 204.333 15.7116 204.987 15.7116C205.441 15.7116 205.876 15.7649 206.292 15.8714C206.711 15.978 207.082 16.1431 207.405 16.3668C207.732 16.5906 207.989 16.8782 208.177 17.2298C208.365 17.5778 208.46 17.995 208.46 18.4815V24H206.308V22.8654H206.244C206.112 23.1211 205.936 23.3466 205.716 23.5419C205.496 23.7337 205.232 23.8846 204.923 23.9947C204.614 24.1012 204.257 24.1545 203.852 24.1545ZM204.502 22.5884C204.836 22.5884 205.13 22.5227 205.386 22.3913C205.642 22.2564 205.842 22.0753 205.988 21.848C206.134 21.6207 206.206 21.3633 206.206 21.0756V20.2074C206.135 20.2536 206.038 20.2962 205.913 20.3352C205.793 20.3707 205.656 20.4045 205.503 20.4364C205.35 20.4648 205.198 20.4915 205.045 20.5163C204.892 20.5376 204.754 20.5572 204.63 20.5749C204.363 20.614 204.131 20.6761 203.932 20.7614C203.733 20.8466 203.578 20.962 203.468 21.1076C203.358 21.2496 203.303 21.4272 203.303 21.6403C203.303 21.9492 203.415 22.1854 203.639 22.3487C203.866 22.5085 204.154 22.5884 204.502 22.5884ZM212.122 13.0909V14.2415C212.122 14.5682 212.058 14.902 211.93 15.2429C211.806 15.5803 211.639 15.8999 211.429 16.2017C211.22 16.5 210.991 16.7539 210.742 16.9634L209.741 16.3722C209.918 16.0916 210.074 15.7809 210.209 15.44C210.348 15.0991 210.417 14.7031 210.417 14.2521V13.0909H212.122ZM219.415 18.1513L217.338 18.2791C217.302 18.1016 217.226 17.9418 217.109 17.7997C216.992 17.6541 216.837 17.5387 216.645 17.4535C216.457 17.3647 216.232 17.3203 215.969 17.3203C215.617 17.3203 215.321 17.3949 215.079 17.544C214.838 17.6896 214.717 17.8849 214.717 18.13C214.717 18.3253 214.795 18.4904 214.951 18.6254C215.108 18.7603 215.376 18.8686 215.756 18.9503L217.237 19.2486C218.032 19.4119 218.625 19.6747 219.016 20.0369C219.406 20.3991 219.602 20.875 219.602 21.4645C219.602 22.0007 219.444 22.4712 219.128 22.8761C218.815 23.2809 218.385 23.5969 217.839 23.8242C217.295 24.0479 216.668 24.1598 215.958 24.1598C214.875 24.1598 214.012 23.9343 213.369 23.4833C212.73 23.0288 212.356 22.4109 212.245 21.6296L214.477 21.5124C214.545 21.8427 214.708 22.0948 214.967 22.2688C215.227 22.4393 215.559 22.5245 215.964 22.5245C216.361 22.5245 216.681 22.4482 216.922 22.2955C217.167 22.1392 217.292 21.9386 217.295 21.6935C217.292 21.4876 217.205 21.3189 217.034 21.1875C216.864 21.0526 216.601 20.9496 216.246 20.8786L214.829 20.5962C214.03 20.4364 213.435 20.1594 213.044 19.7653C212.657 19.3711 212.464 18.8686 212.464 18.2578C212.464 17.7322 212.606 17.2795 212.89 16.8995C213.178 16.5195 213.581 16.2266 214.099 16.0206C214.621 15.8146 215.232 15.7116 215.932 15.7116C216.965 15.7116 217.778 15.93 218.371 16.3668C218.968 16.8036 219.316 17.3984 219.415 18.1513ZM38.8945 44L36.668 35.8182H38.9638L40.2315 41.3153H40.3061L41.6271 35.8182H43.8803L45.2227 41.2834H45.2919L46.5384 35.8182H48.8288L46.6076 44H44.2053L42.799 38.8544H42.6978L41.2915 44H38.8945ZM53.5629 44.1598C52.7213 44.1598 51.9969 43.9893 51.3896 43.6484C50.786 43.304 50.3208 42.8175 49.9941 42.1889C49.6673 41.5568 49.504 40.8093 49.504 39.9464C49.504 39.1048 49.6673 38.3661 49.9941 37.7305C50.3208 37.0948 50.7806 36.5994 51.3737 36.2443C51.9703 35.8892 52.6698 35.7116 53.4724 35.7116C54.0122 35.7116 54.5146 35.7987 54.9798 35.9727C55.4486 36.1431 55.857 36.4006 56.205 36.745C56.5566 37.0895 56.83 37.5227 57.0253 38.0447C57.2206 38.5632 57.3183 39.1705 57.3183 39.8665V40.4897H50.4095V39.0835H55.1823C55.1823 38.7567 55.1112 38.4673 54.9692 38.2152C54.8271 37.9631 54.6301 37.766 54.3779 37.6239C54.1294 37.4783 53.8399 37.4055 53.5097 37.4055C53.1652 37.4055 52.8598 37.4854 52.5935 37.6452C52.3307 37.8015 52.1247 38.0128 51.9756 38.2791C51.8264 38.5419 51.7501 38.8349 51.7465 39.158V40.495C51.7465 40.8999 51.8211 41.2496 51.9703 41.5444C52.123 41.8391 52.3378 42.0664 52.6148 42.2262C52.8918 42.386 53.2203 42.4659 53.6002 42.4659C53.8524 42.4659 54.0832 42.4304 54.2927 42.3594C54.5022 42.2884 54.6816 42.1818 54.8307 42.0398C54.9798 41.8977 55.0935 41.7237 55.1716 41.5178L57.2703 41.6562C57.1638 42.1605 56.9454 42.6009 56.6151 42.9773C56.2884 43.3501 55.8659 43.6413 55.3474 43.8509C54.8325 44.0568 54.2377 44.1598 53.5629 44.1598ZM61.814 44.1332C61.1926 44.1332 60.6297 43.9734 60.1254 43.6538C59.6247 43.3306 59.227 42.8565 58.9323 42.2315C58.6411 41.603 58.4955 40.8324 58.4955 39.9197C58.4955 38.9822 58.6464 38.2028 58.9482 37.5813C59.2501 36.9563 59.6514 36.4893 60.1521 36.1804C60.6563 35.8679 61.2085 35.7116 61.8087 35.7116C62.2668 35.7116 62.6485 35.7898 62.9539 35.946C63.2629 36.0987 63.5115 36.2905 63.6997 36.5213C63.8914 36.7486 64.037 36.9723 64.1365 37.1925H64.2057V33.0909H66.4695V44H64.2323V42.6896H64.1365C64.0299 42.9169 63.879 43.1424 63.6837 43.3661C63.4919 43.5863 63.2416 43.7692 62.9326 43.9148C62.6272 44.0604 62.2544 44.1332 61.814 44.1332ZM62.5331 42.3274C62.8989 42.3274 63.2078 42.228 63.46 42.0291C63.7156 41.8267 63.911 41.5444 64.0459 41.1822C64.1844 40.82 64.2536 40.3956 64.2536 39.9091C64.2536 39.4226 64.1862 39 64.0512 38.6413C63.9163 38.2827 63.721 38.0057 63.4653 37.8104C63.2096 37.6151 62.8989 37.5174 62.5331 37.5174C62.1602 37.5174 61.846 37.6186 61.5903 37.821C61.3346 38.0234 61.1411 38.304 61.0097 38.6626C60.8783 39.0213 60.8126 39.4368 60.8126 39.9091C60.8126 40.3849 60.8783 40.8058 61.0097 41.1715C61.1446 41.5337 61.3382 41.8178 61.5903 42.0238C61.846 42.2262 62.1602 42.3274 62.5331 42.3274ZM71.3501 44.1332C70.7287 44.1332 70.1658 43.9734 69.6616 43.6538C69.1609 43.3306 68.7631 42.8565 68.4684 42.2315C68.1772 41.603 68.0316 40.8324 68.0316 39.9197C68.0316 38.9822 68.1825 38.2028 68.4844 37.5813C68.7862 36.9563 69.1875 36.4893 69.6882 36.1804C70.1925 35.8679 70.7447 35.7116 71.3448 35.7116C71.8029 35.7116 72.1847 35.7898 72.4901 35.946C72.799 36.0987 73.0476 36.2905 73.2358 36.5213C73.4276 36.7486 73.5732 36.9723 73.6726 37.1925H73.7418V33.0909H76.0057V44H73.7685V42.6896H73.6726C73.5661 42.9169 73.4151 43.1424 73.2198 43.3661C73.0281 43.5863 72.7777 43.7692 72.4688 43.9148C72.1634 44.0604 71.7905 44.1332 71.3501 44.1332ZM72.0692 42.3274C72.435 42.3274 72.744 42.228 72.9961 42.0291C73.2518 41.8267 73.4471 41.5444 73.582 41.1822C73.7205 40.82 73.7898 40.3956 73.7898 39.9091C73.7898 39.4226 73.7223 39 73.5874 38.6413C73.4524 38.2827 73.2571 38.0057 73.0014 37.8104C72.7457 37.6151 72.435 37.5174 72.0692 37.5174C71.6964 37.5174 71.3821 37.6186 71.1264 37.821C70.8707 38.0234 70.6772 38.304 70.5458 38.6626C70.4144 39.0213 70.3487 39.4368 70.3487 39.9091C70.3487 40.3849 70.4144 40.8058 70.5458 41.1715C70.6808 41.5337 70.8743 41.8178 71.1264 42.0238C71.3821 42.2262 71.6964 42.3274 72.0692 42.3274ZM77.8714 44V35.8182H80.1405V44H77.8714ZM79.0113 34.7635C78.6739 34.7635 78.3845 34.6516 78.143 34.4279C77.9051 34.2006 77.7861 33.929 77.7861 33.6129C77.7861 33.3004 77.9051 33.0323 78.143 32.8086C78.3845 32.5813 78.6739 32.4677 79.0113 32.4677C79.3486 32.4677 79.6363 32.5813 79.8742 32.8086C80.1157 33.0323 80.2364 33.3004 80.2364 33.6129C80.2364 33.929 80.1157 34.2006 79.8742 34.4279C79.6363 34.6516 79.3486 34.7635 79.0113 34.7635ZM84.2275 39.2699V44H81.9583V35.8182H84.1209V37.2617H84.2168C84.3979 36.7859 84.7015 36.4094 85.1277 36.1325C85.5538 35.8519 86.0705 35.7116 86.6777 35.7116C87.2459 35.7116 87.7413 35.8359 88.1639 36.0845C88.5865 36.3331 88.915 36.6882 89.1493 37.1499C89.3837 37.608 89.5009 38.1548 89.5009 38.7905V44H87.2317V39.1953C87.2353 38.6946 87.1074 38.304 86.8482 38.0234C86.589 37.7393 86.2321 37.5973 85.7775 37.5973C85.4721 37.5973 85.2022 37.663 84.9679 37.7944C84.737 37.9258 84.5559 38.1175 84.4245 38.3697C84.2967 38.6183 84.231 38.9183 84.2275 39.2699ZM94.9754 47.2386C94.2403 47.2386 93.61 47.1374 93.0844 46.935C92.5624 46.7362 92.1469 46.4645 91.838 46.12C91.529 45.7756 91.3284 45.3885 91.2361 44.9588L93.3348 44.6765C93.3987 44.8398 93.4999 44.9925 93.6384 45.1346C93.7769 45.2766 93.9598 45.3903 94.1871 45.4755C94.4179 45.5643 94.6984 45.6087 95.0287 45.6087C95.5223 45.6087 95.9289 45.4879 96.2485 45.2464C96.5716 45.0085 96.7332 44.609 96.7332 44.0479V42.5511H96.6373C96.5379 42.7784 96.3888 42.9933 96.1899 43.1957C95.991 43.3981 95.7354 43.5632 95.4229 43.6911C95.1104 43.8189 94.7375 43.8828 94.3042 43.8828C93.6899 43.8828 93.1306 43.7408 92.6263 43.4567C92.1256 43.169 91.7261 42.7305 91.4278 42.141C91.1331 41.5479 90.9857 40.7987 90.9857 39.8931C90.9857 38.9663 91.1366 38.1921 91.4385 37.5707C91.7403 36.9492 92.1416 36.484 92.6423 36.1751C93.1466 35.8661 93.6988 35.7116 94.2989 35.7116C94.757 35.7116 95.1405 35.7898 95.4495 35.946C95.7584 36.0987 96.007 36.2905 96.1952 36.5213C96.387 36.7486 96.5344 36.9723 96.6373 37.1925H96.7226V35.8182H98.9758V44.0799C98.9758 44.7759 98.8053 45.3583 98.4644 45.8271C98.1235 46.2958 97.6512 46.6474 97.0475 46.8817C96.4474 47.1197 95.7567 47.2386 94.9754 47.2386ZM95.0233 42.1783C95.3891 42.1783 95.6981 42.0877 95.9502 41.9066C96.2059 41.7219 96.4012 41.4592 96.5361 41.1183C96.6746 40.7738 96.7439 40.3619 96.7439 39.8825C96.7439 39.4031 96.6764 38.9876 96.5415 38.636C96.4065 38.2809 96.2112 38.0057 95.9555 37.8104C95.6998 37.6151 95.3891 37.5174 95.0233 37.5174C94.6505 37.5174 94.3362 37.6186 94.0805 37.821C93.8248 38.0199 93.6313 38.2969 93.4999 38.652C93.3685 39.0071 93.3028 39.4173 93.3028 39.8825C93.3028 40.3548 93.3685 40.7631 93.4999 41.1076C93.6349 41.4485 93.8284 41.7131 94.0805 41.9013C94.3362 42.0859 94.6505 42.1783 95.0233 42.1783Z" fill="#707070"/>
<path d="M36.375 19.0888H220.125V20.1115H36.375V19.0888ZM36.375 39.0888H99.8813V40.1115H36.375V39.0888Z" fill="#707070"/>
<path d="M41.2697 54.6818H42.7463V61.6428C42.7463 62.2724 42.6216 62.8109 42.3723 63.2583C42.1262 63.7058 41.7795 64.0478 41.332 64.2843C40.8846 64.5176 40.3604 64.6342 39.7596 64.6342C39.2067 64.6342 38.7097 64.5336 38.2686 64.3322C37.8308 64.1309 37.484 63.8384 37.2283 63.4549C36.9759 63.0682 36.8496 62.5984 36.8496 62.0455H38.3214C38.3214 62.3171 38.3837 62.552 38.5083 62.7502C38.6362 62.9483 38.8104 63.1033 39.0309 63.2152C39.2546 63.3239 39.5103 63.3782 39.7979 63.3782C40.1112 63.3782 40.3764 63.3127 40.5938 63.1816C40.8143 63.0474 40.9821 62.8509 41.0971 62.592C41.2122 62.3331 41.2697 62.0167 41.2697 61.6428V54.6818ZM49.3019 61.4462V57.1364H50.7401V64.5H49.3307V63.2248H49.254C49.0846 63.6179 48.8129 63.9455 48.439 64.2076C48.0683 64.4664 47.6064 64.5959 47.0535 64.5959C46.5805 64.5959 46.1618 64.492 45.7975 64.2843C45.4363 64.0733 45.1519 63.7617 44.9441 63.3494C44.7396 62.9371 44.6373 62.4274 44.6373 61.8201V57.1364H46.0707V61.6475C46.0707 62.1493 46.2098 62.5488 46.4878 62.8461C46.7659 63.1433 47.127 63.2919 47.5713 63.2919C47.8397 63.2919 48.1066 63.2248 48.3719 63.0906C48.6403 62.9563 48.8625 62.7534 49.0383 62.4817C49.2172 62.21 49.3051 61.8649 49.3019 61.4462ZM53.9496 60.1278V64.5H52.5161V57.1364H53.892V58.3349H53.9831C54.1525 57.945 54.4178 57.6317 54.7789 57.3952C55.1433 57.1587 55.6019 57.0405 56.1548 57.0405C56.6566 57.0405 57.096 57.146 57.4732 57.3569C57.8503 57.5646 58.1427 57.8746 58.3505 58.2869C58.5582 58.6992 58.6621 59.209 58.6621 59.8162V64.5H57.2287V59.9888C57.2287 59.4551 57.0896 59.038 56.8116 58.7376C56.5335 58.4339 56.1516 58.2821 55.6658 58.2821C55.3334 58.2821 55.0378 58.354 54.7789 58.4979C54.5232 58.6417 54.3203 58.8526 54.1701 59.1307C54.0231 59.4055 53.9496 59.7379 53.9496 60.1278ZM63.6081 64.6486C62.8827 64.6486 62.2578 64.4936 61.7337 64.1836C61.2127 63.8704 60.81 63.4309 60.5256 62.8652C60.2443 62.2963 60.1037 61.63 60.1037 60.8661C60.1037 60.1119 60.2443 59.4471 60.5256 58.8718C60.81 58.2965 61.2063 57.8475 61.7145 57.5247C62.2259 57.2019 62.8235 57.0405 63.5075 57.0405C63.923 57.0405 64.3257 57.1092 64.7156 57.2466C65.1055 57.3841 65.4555 57.5998 65.7655 57.8938C66.0755 58.1879 66.32 58.5698 66.499 59.0396C66.6779 59.5062 66.7674 60.0735 66.7674 60.7415V61.2496H60.9139V60.1758H65.3628C65.3628 59.7987 65.2861 59.4647 65.1327 59.1738C64.9792 58.8798 64.7635 58.6481 64.4855 58.4787C64.2106 58.3093 63.8878 58.2246 63.5171 58.2246C63.1144 58.2246 62.7628 58.3237 62.4624 58.5218C62.1651 58.7168 61.935 58.9725 61.772 59.2889C61.6122 59.6021 61.5323 59.9425 61.5323 60.31V61.149C61.5323 61.6412 61.6186 62.0598 61.7912 62.405C61.967 62.7502 62.2115 63.0138 62.5247 63.196C62.8379 63.375 63.2039 63.4645 63.6225 63.4645C63.8942 63.4645 64.1419 63.4261 64.3656 63.3494C64.5893 63.2695 64.7827 63.1513 64.9457 62.9947C65.1087 62.8381 65.2333 62.6447 65.3196 62.4146L66.6763 62.6591C66.5677 63.0586 66.3727 63.4086 66.0915 63.709C65.8134 64.0062 65.4634 64.2379 65.0416 64.4041C64.6229 64.5671 64.1451 64.6486 63.6081 64.6486ZM71.6114 64.5V63.4261L74.9337 59.984C75.2884 59.6101 75.5809 59.2825 75.811 59.0012C76.0443 58.7168 76.2185 58.4467 76.3335 58.1911C76.4486 57.9354 76.5061 57.6637 76.5061 57.3761C76.5061 57.0501 76.4294 56.7688 76.276 56.5323C76.1226 56.2926 75.9133 56.1088 75.648 55.981C75.3827 55.85 75.0839 55.7844 74.7515 55.7844C74.3999 55.7844 74.0931 55.8564 73.8311 56.0002C73.569 56.144 73.3676 56.3469 73.227 56.609C73.0864 56.8711 73.0161 57.1779 73.0161 57.5295H71.6018C71.6018 56.9318 71.7393 56.4093 72.0141 55.9618C72.289 55.5144 72.6661 55.1676 73.1455 54.9215C73.6249 54.6722 74.1698 54.5476 74.7803 54.5476C75.3971 54.5476 75.9404 54.6706 76.4102 54.9167C76.8833 55.1596 77.2524 55.492 77.5177 55.9139C77.7829 56.3326 77.9156 56.8056 77.9156 57.3329C77.9156 57.6973 77.8469 58.0536 77.7094 58.402C77.5752 58.7504 77.3403 59.1387 77.0047 59.5669C76.6691 59.992 76.2025 60.5082 75.6048 61.1154L73.6537 63.1577V63.2296H78.0738V64.5H71.6114ZM83.4657 54.6818V64.5H81.9795V56.168H81.922L79.5729 57.7021V56.283L82.0227 54.6818H83.4657ZM87.2887 63.1577L87.2168 63.6802C87.1689 64.0637 87.0874 64.4632 86.9723 64.8787C86.8605 65.2974 86.7438 65.6857 86.6224 66.0437C86.5041 66.4016 86.4066 66.6861 86.3299 66.897H85.3136C85.3551 66.6989 85.4127 66.4304 85.4862 66.0916C85.5597 65.756 85.6316 65.3805 85.7019 64.965C85.7722 64.5495 85.825 64.1261 85.8601 63.6946L85.9081 63.1577H87.2887ZM96.1334 54.6818V64.5H94.6472V56.168H94.5897L92.2406 57.7021V56.283L94.6904 54.6818H96.1334ZM102.364 54.6818V64.5H100.878V56.168H100.821L98.4715 57.7021V56.283L100.921 54.6818H102.364ZM105.834 63.2823C105.572 63.2823 105.346 63.1896 105.158 63.0043C104.969 62.8157 104.875 62.5888 104.875 62.3235C104.875 62.0614 104.969 61.8377 105.158 61.6523C105.346 61.4638 105.572 61.3695 105.834 61.3695C106.096 61.3695 106.321 61.4638 106.51 61.6523C106.698 61.8377 106.793 62.0614 106.793 62.3235C106.793 62.4993 106.748 62.6607 106.658 62.8077C106.572 62.9515 106.457 63.0666 106.313 63.1529C106.169 63.2392 106.009 63.2823 105.834 63.2823ZM105.834 58.3636C105.572 58.3636 105.346 58.271 105.158 58.0856C104.969 57.897 104.875 57.6701 104.875 57.4048C104.875 57.1428 104.969 56.919 105.158 56.7337C105.346 56.5451 105.572 56.4508 105.834 56.4508C106.096 56.4508 106.321 56.5451 106.51 56.7337C106.698 56.919 106.793 57.1428 106.793 57.4048C106.793 57.5806 106.748 57.742 106.658 57.889C106.572 58.0328 106.457 58.1479 106.313 58.2342C106.169 58.3205 106.009 58.3636 105.834 58.3636ZM111.784 64.6342C111.183 64.6342 110.643 64.5192 110.164 64.2891C109.688 64.0558 109.307 63.7362 109.023 63.3303C108.738 62.9244 108.586 62.4609 108.567 61.94H110.006C110.041 62.3619 110.228 62.7086 110.566 62.9803C110.905 63.252 111.311 63.3878 111.784 63.3878C112.161 63.3878 112.495 63.3015 112.786 63.1289C113.08 62.9531 113.31 62.7118 113.476 62.405C113.646 62.0982 113.73 61.7482 113.73 61.3551C113.73 60.9556 113.644 60.5993 113.472 60.286C113.299 59.9728 113.061 59.7267 112.757 59.5478C112.457 59.3688 112.112 59.2777 111.722 59.2745C111.425 59.2745 111.126 59.3256 110.825 59.4279C110.525 59.5302 110.282 59.6644 110.097 59.8306L108.74 59.6293L109.291 54.6818H114.689V55.9522H110.523L110.212 58.6992H110.269C110.461 58.5138 110.715 58.3588 111.031 58.2342C111.351 58.1096 111.693 58.0472 112.057 58.0472C112.655 58.0472 113.187 58.1895 113.654 58.4739C114.124 58.7583 114.493 59.1467 114.761 59.6388C115.033 60.1278 115.167 60.6903 115.164 61.3263C115.167 61.9624 115.023 62.5297 114.732 63.0282C114.445 63.5268 114.045 63.9199 113.534 64.2076C113.026 64.492 112.442 64.6342 111.784 64.6342ZM120.03 54.5476C120.468 54.5508 120.899 54.6307 121.324 54.7873C121.749 54.9439 122.133 55.1996 122.475 55.5543C122.82 55.9091 123.095 56.3885 123.299 56.9925C123.507 57.5934 123.612 58.3413 123.616 59.2362C123.616 60.0959 123.529 60.8613 123.357 61.5325C123.184 62.2005 122.936 62.7646 122.614 63.2248C122.294 63.685 121.906 64.035 121.449 64.2747C120.992 64.5144 120.477 64.6342 119.905 64.6342C119.32 64.6342 118.801 64.5192 118.347 64.2891C117.893 64.0589 117.524 63.7409 117.24 63.335C116.955 62.926 116.778 62.4561 116.707 61.9256H118.17C118.265 62.3475 118.46 62.6895 118.754 62.9515C119.052 63.2104 119.435 63.3398 119.905 63.3398C120.624 63.3398 121.185 63.0266 121.588 62.4002C121.99 61.7706 122.193 60.8917 122.197 59.7635H122.12C121.954 60.0384 121.746 60.2749 121.497 60.473C121.251 60.6712 120.974 60.8246 120.667 60.9332C120.36 61.0419 120.033 61.0962 119.685 61.0962C119.119 61.0962 118.604 60.9572 118.141 60.6792C117.677 60.4011 117.308 60.0192 117.033 59.5334C116.759 59.0476 116.621 58.4931 116.621 57.8699C116.621 57.2498 116.762 56.6873 117.043 56.1824C117.327 55.6774 117.724 55.2779 118.232 54.9838C118.743 54.6866 119.343 54.5412 120.03 54.5476ZM120.034 55.794C119.661 55.794 119.323 55.8867 119.023 56.0721C118.726 56.2543 118.491 56.502 118.318 56.8152C118.146 57.1252 118.059 57.4703 118.059 57.8507C118.059 58.231 118.142 58.5762 118.309 58.8862C118.478 59.193 118.708 59.4375 118.999 59.6197C119.293 59.7987 119.629 59.8881 120.006 59.8881C120.287 59.8881 120.549 59.8338 120.792 59.7251C121.035 59.6165 121.247 59.4663 121.43 59.2745C121.612 59.0795 121.754 58.859 121.856 58.6129C121.958 58.3668 122.01 58.108 122.01 57.8363C122.01 57.4751 121.923 57.1396 121.751 56.8295C121.581 56.5195 121.348 56.2702 121.051 56.0817C120.754 55.8899 120.415 55.794 120.034 55.794ZM128.754 64.5V54.6818H132.254C133.018 54.6818 133.651 54.8208 134.153 55.0989C134.654 55.377 135.03 55.7573 135.279 56.2399C135.528 56.7193 135.653 57.2594 135.653 57.8603C135.653 58.4643 135.527 59.0076 135.274 59.4902C135.025 59.9696 134.648 60.35 134.143 60.6312C133.641 60.9093 133.01 61.0483 132.249 61.0483H129.843V59.7923H132.115C132.598 59.7923 132.989 59.7092 133.29 59.543C133.59 59.3736 133.811 59.1435 133.951 58.8526C134.092 58.5618 134.162 58.231 134.162 57.8603C134.162 57.4895 134.092 57.1603 133.951 56.8727C133.811 56.585 133.588 56.3597 133.285 56.1967C132.984 56.0337 132.588 55.9522 132.096 55.9522H130.236V64.5H128.754ZM137.24 54.6818H139.037L142.163 62.3139H142.278L145.404 54.6818H147.202V64.5H145.792V57.3952H145.701L142.806 64.4856H141.636L138.74 57.3904H138.649V64.5H137.24V54.6818Z" fill="#707070"/>
</svg>
