<svg width="32" height="33" viewBox="0 0 32 33" fill="none" xmlns="http://www.w3.org/2000/svg">
<path d="M26.1811 6.40375C24.2823 5.51439 22.252 4.86804 20.1294 4.5C19.8688 4.97181 19.5642 5.60641 19.3542 6.11123C17.0978 5.77153 14.8622 5.77153 12.6473 6.11123C12.4374 5.60641 12.1259 4.97181 11.8629 4.5C9.73799 4.86804 7.70538 5.51677 5.80658 6.40846C1.97668 12.2022 0.938461 17.852 1.45757 23.4217C3.99776 25.3207 6.45951 26.4742 8.87971 27.2291C9.47727 26.4058 10.0102 25.5306 10.4693 24.6083C9.59493 24.2756 8.75743 23.8652 7.9661 23.3886C8.17603 23.2329 8.38139 23.0702 8.57978 22.9027C13.4064 25.1626 18.6506 25.1626 23.4195 22.9027C23.6202 23.0702 23.8255 23.2329 24.0331 23.3886C23.2395 23.8675 22.3997 24.278 21.5253 24.6106C21.9844 25.5306 22.5151 26.4082 23.1149 27.2315C25.5374 26.4766 28.0015 25.323 30.5417 23.4217C31.1508 16.9651 29.5012 11.3671 26.1811 6.40375ZM11.1269 19.9964C9.678 19.9964 8.48979 18.6423 8.48979 16.9934C8.48979 15.3444 9.65263 13.988 11.1269 13.988C12.6012 13.988 13.7894 15.342 13.764 16.9934C13.7663 18.6423 12.6012 19.9964 11.1269 19.9964ZM20.8724 19.9964C19.4235 19.9964 18.2353 18.6423 18.2353 16.9934C18.2353 15.3444 19.3981 13.988 20.8724 13.988C22.3466 13.988 23.5348 15.342 23.5095 16.9934C23.5095 18.6423 22.3466 19.9964 20.8724 19.9964Z" fill="black"/>
</svg>
