<svg width="24" height="24" viewBox="0 0 24 24" fill="none" xmlns="http://www.w3.org/2000/svg">
<path d="M9.77795 17.0937V19.7777C9.77795 21.0051 10.7729 22 12.0002 22C13.2276 22 14.2225 21.0051 14.2225 19.7777V17.0937M12.0002 2V3.11114M19.0718 4.92866L18.2861 5.71436M4.92867 4.92866L5.71436 5.71436M3.11114 12.0002H2M22.0004 12.0002H20.8893M17.5559 12.0002C17.5559 15.0685 15.0685 17.5559 12.0002 17.5559C8.93191 17.5559 6.44454 15.0685 6.44454 12.0002C6.44454 8.93191 8.93191 6.44454 12.0002 6.44454C15.0685 6.44454 17.5559 8.93191 17.5559 12.0002Z" stroke="black" stroke-width="1.8" stroke-linecap="round" stroke-linejoin="round"/>
</svg>
